<svg width="640" height="480" xmlns="http://www.w3.org/2000/svg" xmlns:xlink="http://www.w3.org/1999/xlink" version="1.1" baseProfile="full" viewBox="0 0 640 480">
<rect width="640" height="480" x="0" y="0" fill="rgb(255,255,255)"></rect>
<text dominant-baseline="central" text-anchor="middle" style="font-size:12px;font-family:sans-serif;" y="-6" transform="matrix(0,-1,1,0,20,221)" fill="#333">季度</text>
<path d="M60.5 405L60.5 37" fill="none" stroke="#333" stroke-linecap="round" class="zr1-cls-0"></path>
<text dominant-baseline="central" text-anchor="middle" style="font-size:12px;font-family:sans-serif;" y="6" transform="translate(340.787 435)" fill="#333">占比</text>
<path d="M60 405.5L621.574 405.5" fill="none" stroke="#333" stroke-linecap="round" class="zr1-cls-0"></path>
<path d="M60 405.5L55 405.5" fill="none" stroke="#333" class="zr1-cls-0"></path>
<path d="M60 313.5L55 313.5" fill="none" stroke="#333" class="zr1-cls-0"></path>
<path d="M60 221.5L55 221.5" fill="none" stroke="#333" class="zr1-cls-0"></path>
<path d="M60 129.5L55 129.5" fill="none" stroke="#333" class="zr1-cls-0"></path>
<path d="M60 37.5L55 37.5" fill="none" stroke="#333" class="zr1-cls-0"></path>
<path d="M60.5 405L60.5 410" fill="none" stroke="#333" class="zr1-cls-0"></path>
<path d="M172.5 405L172.5 410" fill="none" stroke="#333" class="zr1-cls-0"></path>
<path d="M284.5 405L284.5 410" fill="none" stroke="#333" class="zr1-cls-0"></path>
<path d="M397.5 405L397.5 410" fill="none" stroke="#333" class="zr1-cls-0"></path>
<path d="M509.5 405L509.5 410" fill="none" stroke="#333" class="zr1-cls-0"></path>
<path d="M621.5 405L621.5 410" fill="none" stroke="#333" class="zr1-cls-0"></path>
<text dominant-baseline="central" text-anchor="end" style="font-size:12px;font-family:sans-serif;" transform="translate(52 359)" fill="#333">Q1</text>
<text dominant-baseline="central" text-anchor="end" style="font-size:12px;font-family:sans-serif;" transform="translate(52 267)" fill="#333">Q2</text>
<text dominant-baseline="central" text-anchor="end" style="font-size:12px;font-family:sans-serif;" transform="translate(52 175)" fill="#333">Q3</text>
<text dominant-baseline="central" text-anchor="end" style="font-size:12px;font-family:sans-serif;" transform="translate(52 83)" fill="#333">Q4</text>
<text dominant-baseline="central" text-anchor="middle" style="font-size:12px;font-family:sans-serif;" y="6" transform="translate(60 413)" fill="#333">0%</text>
<text dominant-baseline="central" text-anchor="middle" style="font-size:12px;font-family:sans-serif;" y="6" transform="translate(172.3148 413)" fill="#333">20%</text>
<text dominant-baseline="central" text-anchor="middle" style="font-size:12px;font-family:sans-serif;" y="6" transform="translate(284.6296 413)" fill="#333">40%</text>
<text dominant-baseline="central" text-anchor="middle" style="font-size:12px;font-family:sans-serif;" y="6" transform="translate(396.9444 413)" fill="#333">60%</text>
<text dominant-baseline="central" text-anchor="middle" style="font-size:12px;font-family:sans-serif;" y="6" transform="translate(509.2592 413)" fill="#333">80%</text>
<text dominant-baseline="central" text-anchor="middle" style="font-size:12px;font-family:sans-serif;" y="6" transform="translate(621.574 413)" fill="#333">100%</text>
<path d="M60 327.26l438.7297 0l0 63.48l-438.7297 0Z" fill="#e01f54" class="zr1-cls-1"></path>
<path d="M60 235.26l271.7294 0l0 63.48l-271.7294 0Z" fill="#e01f54" class="zr1-cls-1"></path>
<path d="M60 143.26l269.5555 0l0 63.48l-269.5555 0Z" fill="#e01f54" class="zr1-cls-1"></path>
<path d="M60 51.26l264.2701 0l0 63.48l-264.2701 0Z" fill="#e01f54" class="zr1-cls-1"></path>
<path d="M498.7297 327.26l70.1968 0l0 63.48l-70.1968 0Z" fill="#001852" class="zr1-cls-2"></path>
<path d="M331.7294 235.26l163.0376 0l0 63.48l-163.0376 0Z" fill="#001852" class="zr1-cls-2"></path>
<path d="M329.5555 143.26l164.7284 0l0 63.48l-164.7284 0Z" fill="#001852" class="zr1-cls-2"></path>
<path d="M324.2701 51.26l171.7756 0l0 63.48l-171.7756 0Z" fill="#001852" class="zr1-cls-2"></path>
<path d="M568.9264 327.26l52.6476 0l0 63.48l-52.6476 0Z" fill="#efe1a9" class="zr1-cls-3"></path>
<path d="M494.767 235.26l126.807 0l0 63.48l-126.807 0Z" fill="#efe1a9" class="zr1-cls-3"></path>
<path d="M494.2839 143.26l127.2901 0l0 63.48l-127.2901 0Z" fill="#efe1a9" class="zr1-cls-3"></path>
<path d="M496.0457 51.26l125.5283 0l0 63.48l-125.5283 0Z" fill="#efe1a9" class="zr1-cls-3"></path>
<text dominant-baseline="central" text-anchor="middle" style="font-size:12px;font-family:sans-serif;" transform="translate(279.3648 359)" fill="#eee" stroke="#e01f54" stroke-width="2" paint-order="stroke" stroke-miterlimit="2">78.13%</text>
<text dominant-baseline="central" text-anchor="middle" style="font-size:12px;font-family:sans-serif;" transform="translate(195.8647 267)" fill="#eee" stroke="#e01f54" stroke-width="2" paint-order="stroke" stroke-miterlimit="2">48.39%</text>
<text dominant-baseline="central" text-anchor="middle" style="font-size:12px;font-family:sans-serif;" transform="translate(194.7778 175)" fill="#eee" stroke="#e01f54" stroke-width="2" paint-order="stroke" stroke-miterlimit="2">48.00%</text>
<text dominant-baseline="central" text-anchor="middle" style="font-size:12px;font-family:sans-serif;" transform="translate(192.1351 83)" fill="#eee" stroke="#e01f54" stroke-width="2" paint-order="stroke" stroke-miterlimit="2">47.06%</text>
<text dominant-baseline="central" text-anchor="middle" style="font-size:12px;font-family:sans-serif;" transform="translate(533.8281 359)" fill="#ccc" stroke="#001852" stroke-width="2" paint-order="stroke" stroke-miterlimit="2">12.50%</text>
<text dominant-baseline="central" text-anchor="middle" style="font-size:12px;font-family:sans-serif;" transform="translate(413.2482 267)" fill="#ccc" stroke="#001852" stroke-width="2" paint-order="stroke" stroke-miterlimit="2">29.03%</text>
<text dominant-baseline="central" text-anchor="middle" style="font-size:12px;font-family:sans-serif;" transform="translate(411.9197 175)" fill="#ccc" stroke="#001852" stroke-width="2" paint-order="stroke" stroke-miterlimit="2">29.33%</text>
<text dominant-baseline="central" text-anchor="middle" style="font-size:12px;font-family:sans-serif;" transform="translate(410.1579 83)" fill="#ccc" stroke="#001852" stroke-width="2" paint-order="stroke" stroke-miterlimit="2">30.59%</text>
<text dominant-baseline="central" text-anchor="middle" style="font-size:12px;font-family:sans-serif;" transform="translate(595.2502 359)" fill="#333">9.38%</text>
<text dominant-baseline="central" text-anchor="middle" style="font-size:12px;font-family:sans-serif;" transform="translate(558.1705 267)" fill="#333">22.58%</text>
<text dominant-baseline="central" text-anchor="middle" style="font-size:12px;font-family:sans-serif;" transform="translate(557.929 175)" fill="#333">22.67%</text>
<text dominant-baseline="central" text-anchor="middle" style="font-size:12px;font-family:sans-serif;" transform="translate(558.8099 83)" fill="#333">22.35%</text>
<path d="M-5 -5l212.744 0l0 24l-212.744 0Z" transform="translate(218.628 456)" fill="rgb(0,0,0)" fill-opacity="0" stroke="#b7b9be" stroke-width="0" class="zr1-cls-0"></path>
<path d="M3.5 0L21.5 0A3.5 3.5 0 0 1 25 3.5L25 10.5A3.5 3.5 0 0 1 21.5 14L3.5 14A3.5 3.5 0 0 1 0 10.5L0 3.5A3.5 3.5 0 0 1 3.5 0" transform="translate(218.628 456)" fill="#e01f54" class="zr1-cls-0"></path>
<text dominant-baseline="central" text-anchor="start" style="font-size:12px;font-family:sans-serif;" x="30" y="7" transform="translate(218.628 456)" fill="#333333">产品A</text>
<path d="M0 0l61.884 0l0 14l-61.884 0Z" transform="translate(218.628 456)" fill="none" class="zr1-cls-4"></path>
<path d="M3.5 0L21.5 0A3.5 3.5 0 0 1 25 3.5L25 10.5A3.5 3.5 0 0 1 21.5 14L3.5 14A3.5 3.5 0 0 1 0 10.5L0 3.5A3.5 3.5 0 0 1 3.5 0" transform="translate(288.512 456)" fill="#001852" class="zr1-cls-0"></path>
<text dominant-baseline="central" text-anchor="start" style="font-size:12px;font-family:sans-serif;" x="30" y="7" transform="translate(288.512 456)" fill="#333333">产品B</text>
<path d="M0 0l62.124 0l0 14l-62.124 0Z" transform="translate(288.512 456)" fill="none" class="zr1-cls-4"></path>
<path d="M3.5 0L21.5 0A3.5 3.5 0 0 1 25 3.5L25 10.5A3.5 3.5 0 0 1 21.5 14L3.5 14A3.5 3.5 0 0 1 0 10.5L0 3.5A3.5 3.5 0 0 1 3.5 0" transform="translate(358.636 456)" fill="#efe1a9" class="zr1-cls-0"></path>
<text dominant-baseline="central" text-anchor="start" style="font-size:12px;font-family:sans-serif;" x="30" y="7" transform="translate(358.636 456)" fill="#333333">产品C</text>
<path d="M0 0l62.736 0l0 14l-62.736 0Z" transform="translate(358.636 456)" fill="none" class="zr1-cls-4"></path>
<path d="M-61 -5l122 0l0 24l-122 0Z" transform="translate(320 10)" fill="rgb(0,0,0)" fill-opacity="0" stroke="#3c3c41" stroke-width="0" class="zr1-cls-0"></path>
<text dominant-baseline="central" text-anchor="middle" style="font-size:14px;font-family:sans-serif;font-weight:bold;" y="7" transform="translate(320 10)" fill="#333333">季度产品销量占比</text>
<style ><![CDATA[
.zr1-cls-0:hover {
pointer-events:none;
}
.zr1-cls-1:hover {
cursor:pointer;
fill:rgba(246,34,92,1);
}
.zr1-cls-2:hover {
cursor:pointer;
fill:rgba(0,26,90,1);
}
.zr1-cls-3:hover {
cursor:pointer;
fill:rgba(255,247,185,1);
}
.zr1-cls-4:hover {
cursor:pointer;
fill:rgba(0,0,0,0);
}

]]>

</style>
</svg>