<svg width="640" height="480" xmlns="http://www.w3.org/2000/svg" xmlns:xlink="http://www.w3.org/1999/xlink" version="1.1" baseProfile="full" viewBox="0 0 640 480">
<rect width="640" height="480" x="0" y="0" fill="rgb(255,255,255)"></rect>
<polyline points="320 384.8 320 384.8" fill="none" stroke="#e01f54" class="zr1-cls-0"></polyline>
<polyline points="320 312.4 320 312.4" fill="none" stroke="#001852" class="zr1-cls-0"></polyline>
<polyline points="320 240 320 240" fill="none" stroke="#efe1a9" class="zr1-cls-0"></polyline>
<polyline points="320 167.6 320 167.6" fill="none" stroke="#b8d2c7" class="zr1-cls-0"></polyline>
<polyline points="320 95.2 320 95.2" fill="none" stroke="#c6b38e" class="zr1-cls-0"></polyline>
<polygon points="64 420 576 420 524.8 349.6 115.2 349.6" fill="#e01f54" stroke="#ccc" stroke-width="0" stroke-linejoin="round" class="zr1-cls-1"></polygon>
<polygon points="115.2 347.6 524.8 347.6 473.6 277.2 166.4 277.2" fill="#001852" stroke="#ccc" stroke-width="0" stroke-linejoin="round" class="zr1-cls-2"></polygon>
<polygon points="166.4 275.2 473.6 275.2 422.4 204.8 217.6 204.8" fill="#efe1a9" stroke="#ccc" stroke-width="0" stroke-linejoin="round" class="zr1-cls-3"></polygon>
<polygon points="217.6 202.8 422.4 202.8 371.2 132.4 268.8 132.4" fill="#b8d2c7" stroke="#ccc" stroke-width="0" stroke-linejoin="round" class="zr1-cls-4"></polygon>
<polygon points="268.8 130.4 371.2 130.4 320 60 320 60" fill="#c6b38e" stroke="#ccc" stroke-width="0" stroke-linejoin="round" class="zr1-cls-5"></polygon>
<text dominant-baseline="central" text-anchor="middle" style="font-size:12px;font-family:sans-serif;" x="320" y="378.79999999999995" fill="#eee" stroke="#e01f54" stroke-width="2" paint-order="stroke" stroke-miterlimit="2">展现</text>
<text dominant-baseline="central" text-anchor="middle" style="font-size:12px;font-family:sans-serif;" x="320" y="390.79999999999995" fill="#eee" stroke="#e01f54" stroke-width="2" paint-order="stroke" stroke-miterlimit="2">100</text>
<text dominant-baseline="central" text-anchor="middle" style="font-size:12px;font-family:sans-serif;" x="320" y="306.40000000000003" fill="#ccc" stroke="#001852" stroke-width="2" paint-order="stroke" stroke-miterlimit="2">点击</text>
<text dominant-baseline="central" text-anchor="middle" style="font-size:12px;font-family:sans-serif;" x="320" y="318.40000000000003" fill="#ccc" stroke="#001852" stroke-width="2" paint-order="stroke" stroke-miterlimit="2">80</text>
<text dominant-baseline="central" text-anchor="middle" style="font-size:12px;font-family:sans-serif;" x="320" y="234.00000000000006" fill="#333">访问</text>
<text dominant-baseline="central" text-anchor="middle" style="font-size:12px;font-family:sans-serif;" x="320" y="246.00000000000006" fill="#333">60</text>
<text dominant-baseline="central" text-anchor="middle" style="font-size:12px;font-family:sans-serif;" x="320" y="161.60000000000002" fill="#333">咨询</text>
<text dominant-baseline="central" text-anchor="middle" style="font-size:12px;font-family:sans-serif;" x="320" y="173.60000000000002" fill="#333">40</text>
<text dominant-baseline="central" text-anchor="middle" style="font-size:12px;font-family:sans-serif;" x="320" y="89.20000000000002" fill="#333">订单</text>
<text dominant-baseline="central" text-anchor="middle" style="font-size:12px;font-family:sans-serif;" x="320" y="101.20000000000002" fill="#333">20</text>
<path d="M-5 -5l312 0l0 24l-312 0Z" transform="translate(169 456)" fill="rgb(0,0,0)" fill-opacity="0" stroke="#b7b9be" stroke-width="0" class="zr1-cls-6"></path>
<path d="M3.5 0L21.5 0A3.5 3.5 0 0 1 25 3.5L25 10.5A3.5 3.5 0 0 1 21.5 14L3.5 14A3.5 3.5 0 0 1 0 10.5L0 3.5A3.5 3.5 0 0 1 3.5 0" transform="translate(169 456)" fill="#e01f54" stroke="#ccc" stroke-width="0" stroke-linecap="butt" stroke-miterlimit="10" class="zr1-cls-6"></path>
<text dominant-baseline="central" text-anchor="start" style="font-size:12px;font-family:sans-serif;" x="30" y="7" transform="translate(169 456)" fill="#333333">展现</text>
<path d="M0 0l54 0l0 14l-54 0Z" transform="translate(169 456)" fill="none" class="zr1-cls-7"></path>
<path d="M3.5 0L21.5 0A3.5 3.5 0 0 1 25 3.5L25 10.5A3.5 3.5 0 0 1 21.5 14L3.5 14A3.5 3.5 0 0 1 0 10.5L0 3.5A3.5 3.5 0 0 1 3.5 0" transform="translate(231 456)" fill="#001852" stroke="#ccc" stroke-width="0" stroke-linecap="butt" stroke-miterlimit="10" class="zr1-cls-6"></path>
<text dominant-baseline="central" text-anchor="start" style="font-size:12px;font-family:sans-serif;" x="30" y="7" transform="translate(231 456)" fill="#333333">点击</text>
<path d="M0 0l54 0l0 14l-54 0Z" transform="translate(231 456)" fill="none" class="zr1-cls-7"></path>
<path d="M3.5 0L21.5 0A3.5 3.5 0 0 1 25 3.5L25 10.5A3.5 3.5 0 0 1 21.5 14L3.5 14A3.5 3.5 0 0 1 0 10.5L0 3.5A3.5 3.5 0 0 1 3.5 0" transform="translate(293 456)" fill="#efe1a9" stroke="#ccc" stroke-width="0" stroke-linecap="butt" stroke-miterlimit="10" class="zr1-cls-6"></path>
<text dominant-baseline="central" text-anchor="start" style="font-size:12px;font-family:sans-serif;" x="30" y="7" transform="translate(293 456)" fill="#333333">访问</text>
<path d="M0 0l54 0l0 14l-54 0Z" transform="translate(293 456)" fill="none" class="zr1-cls-7"></path>
<path d="M3.5 0L21.5 0A3.5 3.5 0 0 1 25 3.5L25 10.5A3.5 3.5 0 0 1 21.5 14L3.5 14A3.5 3.5 0 0 1 0 10.5L0 3.5A3.5 3.5 0 0 1 3.5 0" transform="translate(355 456)" fill="#b8d2c7" stroke="#ccc" stroke-width="0" stroke-linecap="butt" stroke-miterlimit="10" class="zr1-cls-6"></path>
<text dominant-baseline="central" text-anchor="start" style="font-size:12px;font-family:sans-serif;" x="30" y="7" transform="translate(355 456)" fill="#333333">咨询</text>
<path d="M0 0l54 0l0 14l-54 0Z" transform="translate(355 456)" fill="none" class="zr1-cls-7"></path>
<path d="M3.5 0L21.5 0A3.5 3.5 0 0 1 25 3.5L25 10.5A3.5 3.5 0 0 1 21.5 14L3.5 14A3.5 3.5 0 0 1 0 10.5L0 3.5A3.5 3.5 0 0 1 3.5 0" transform="translate(417 456)" fill="#c6b38e" stroke="#ccc" stroke-width="0" stroke-linecap="butt" stroke-miterlimit="10" class="zr1-cls-6"></path>
<text dominant-baseline="central" text-anchor="start" style="font-size:12px;font-family:sans-serif;" x="30" y="7" transform="translate(417 456)" fill="#333333">订单</text>
<path d="M0 0l54 0l0 14l-54 0Z" transform="translate(417 456)" fill="none" class="zr1-cls-7"></path>
<path d="M-54 -5l108 0l0 24l-108 0Z" transform="translate(320 10)" fill="rgb(0,0,0)" fill-opacity="0" stroke="#3c3c41" stroke-width="0" class="zr1-cls-6"></path>
<text dominant-baseline="central" text-anchor="middle" style="font-size:14px;font-family:sans-serif;font-weight:bold;" y="7" transform="translate(320 10)" fill="#333333">用户层级金字塔</text>
<style ><![CDATA[
.zr1-cls-0:hover {
cursor:pointer;
}
.zr1-cls-1:hover {
cursor:pointer;
fill:rgba(246,34,92,1);
}
.zr1-cls-2:hover {
cursor:pointer;
fill:rgba(0,26,90,1);
}
.zr1-cls-3:hover {
cursor:pointer;
fill:rgba(255,247,185,1);
}
.zr1-cls-4:hover {
cursor:pointer;
fill:rgba(202,231,218,1);
}
.zr1-cls-5:hover {
cursor:pointer;
fill:rgba(217,196,156,1);
}
.zr1-cls-6:hover {
pointer-events:none;
}
.zr1-cls-7:hover {
cursor:pointer;
fill:rgba(0,0,0,0);
}

]]>

</style>
</svg>