<svg width="1000" height="600" xmlns="http://www.w3.org/2000/svg" xmlns:xlink="http://www.w3.org/1999/xlink" version="1.1" baseProfile="full" viewBox="0 0 1000 600">
<rect width="1000" height="600" x="0" y="0" fill="rgb(255,255,255)"></rect>
<path d="M0 0l960 0l0 500l-960 0Z" transform="translate(20 50)" fill="#fff" class="zr1-cls-0"></path>
<path d="M0 0l718.75 0l0 275.5556l-718.75 0Z" transform="translate(20 50)" fill="#fff" class="zr1-cls-0"></path>
<path d="M0 0l718.75 0l0 219.4444l-718.75 0Z" transform="translate(20 330.5556)" fill="#fff" class="zr1-cls-0"></path>
<path d="M0 0l236.25 0l0 500l-236.25 0Z" transform="translate(743.75 50)" fill="#fff" class="zr1-cls-0"></path>
<path d="M0 0l358.875 0l0 275.5556l-358.875 0Z" transform="translate(20 50)" fill="rgb(230,76,118)" class="zr1-cls-1"></path>
<path d="M0 0l358.875 0l0 164.9333l-358.875 0Z" transform="translate(379.875 50)" fill="rgb(230,76,118)" class="zr1-cls-1"></path>
<path d="M0 0l358.875 0l0 109.6222l-358.875 0Z" transform="translate(379.875 215.9333)" fill="rgb(230,76,118)" class="zr1-cls-1"></path>
<path d="M0 0l358.875 0l0 219.4444l-358.875 0Z" transform="translate(20 330.5556)" fill="rgb(51,111,255)" class="zr1-cls-2"></path>
<path d="M0 0l178.9375 0l0 219.4444l-178.9375 0Z" transform="translate(379.875 330.5556)" fill="rgb(51,111,255)" class="zr1-cls-2"></path>
<path d="M0 0l178.9375 0l0 219.4444l-178.9375 0Z" transform="translate(559.8125 330.5556)" fill="rgb(51,111,255)" class="zr1-cls-2"></path>
<path d="M0 0l236.25 0l0 333l-236.25 0Z" transform="translate(743.75 50)" fill="rgb(223,195,83)" class="zr1-cls-3"></path>
<path d="M0 0l236.25 0l0 82.5l-236.25 0Z" transform="translate(743.75 384)" fill="rgb(223,195,83)" class="zr1-cls-3"></path>
<path d="M0 0l236.25 0l0 82.5l-236.25 0Z" transform="translate(743.75 467.5)" fill="rgb(223,195,83)" class="zr1-cls-3"></path>
<path d="M0 0l358.875 0l0 164.9333l-358.875 0Z" transform="translate(379.875 50)" fill="rgb(224,31,84)" class="zr1-cls-4"></path>
<path d="M0 0l358.875 0l0 109.6222l-358.875 0Z" transform="translate(379.875 215.9333)" fill="#e01f54" class="zr1-cls-4"></path>
<path d="M0 0l358.875 0l0 219.4444l-358.875 0Z" transform="translate(20 330.5556)" fill="#001852" class="zr1-cls-5"></path>
<path d="M0 0l178.9375 0l0 219.4444l-178.9375 0Z" transform="translate(379.875 330.5556)" fill="#001852" class="zr1-cls-5"></path>
<path d="M0 0l178.9375 0l0 219.4444l-178.9375 0Z" transform="translate(559.8125 330.5556)" fill="#001852" class="zr1-cls-5"></path>
<path d="M0 0l236.25 0l0 333l-236.25 0Z" transform="translate(743.75 50)" fill="#efe1a9" class="zr1-cls-6"></path>
<path d="M0 0l236.25 0l0 82.5l-236.25 0Z" transform="translate(743.75 384)" fill="#efe1a9" class="zr1-cls-6"></path>
<path d="M0 0l236.25 0l0 82.5l-236.25 0Z" transform="translate(743.75 467.5)" fill="#efe1a9" class="zr1-cls-6"></path>
<path d="M0 0l358.875 0l0 137.2778l-358.875 0Z" transform="translate(20 50)" fill="#fff" class="zr1-cls-0"></path>
<path d="M0 0l358.875 0l0 137.2778l-358.875 0Z" transform="translate(20 188.2778)" fill="rgb(255,255,255)" class="zr1-cls-0"></path>
<path d="M0 0l358.875 0l0 137.2778l-358.875 0Z" transform="translate(20 188.2778)" fill="rgb(190,26,71)" class="zr1-cls-7"></path>
<path d="M0 0l215.325 0l0 137.2778l-215.325 0Z" transform="translate(20 50)" fill="#fff" class="zr1-cls-0"></path>
<path d="M0 0l143.55 0l0 137.2778l-143.55 0Z" transform="translate(235.325 50)" fill="#fff" class="zr1-cls-0"></path>
<path d="M0 0l215.325 0l0 137.2778l-215.325 0Z" transform="translate(20 50)" fill="rgb(190,26,71)" class="zr1-cls-7"></path>
<text dominant-baseline="central" text-anchor="middle" style="font-size:12px;font-family:sans-serif;" xml:space="preserve" transform="translate(127.6625 118.6389)" fill="#fff">Xuhui District</text>
<path d="M0 0l143.55 0l0 68.6389l-143.55 0Z" transform="translate(235.325 50)" fill="#fff" class="zr1-cls-0"></path>
<path d="M0 0l143.55 0l0 68.6389l-143.55 0Z" transform="translate(235.325 118.6389)" fill="rgb(255,255,255)" class="zr1-cls-0"></path>
<path d="M0 0l143.55 0l0 68.6389l-143.55 0Z" transform="translate(235.325 50)" fill="rgb(190,26,71)" class="zr1-cls-7"></path>
<path d="M0 0l143.55 0l0 68.6389l-143.55 0Z" transform="translate(235.325 118.6389)" fill="rgb(190,26,71)" class="zr1-cls-7"></path>
<text dominant-baseline="central" text-anchor="middle" style="font-size:12px;font-family:sans-serif;" xml:space="preserve" transform="translate(307.1 84.3194)" fill="#fff">Weining Street</text>
<text dominant-baseline="central" text-anchor="middle" style="font-size:12px;font-family:sans-serif;" xml:space="preserve" transform="translate(307.1 152.9583)" fill="#fff">Xianxia Street</text>
<text dominant-baseline="central" text-anchor="middle" style="font-size:12px;font-family:sans-serif;" transform="translate(199.4375 256.9167)" fill="#fff">Beijing</text>
<text dominant-baseline="central" text-anchor="middle" style="font-size:12px;font-family:sans-serif;" transform="translate(559.3125 132.4667)" fill="#fff">Japan</text>
<text dominant-baseline="central" text-anchor="middle" style="font-size:12px;font-family:sans-serif;" transform="translate(559.3125 270.7444)" fill="#fff">India</text>
<text dominant-baseline="central" text-anchor="middle" style="font-size:12px;font-family:sans-serif;" transform="translate(199.4375 440.2778)" fill="#fff">Germany</text>
<text dominant-baseline="central" text-anchor="middle" style="font-size:12px;font-family:sans-serif;" transform="translate(469.3438 440.2778)" fill="#fff">UK</text>
<text dominant-baseline="central" text-anchor="middle" style="font-size:12px;font-family:sans-serif;" transform="translate(649.2813 440.2778)" fill="#fff">France</text>
<text dominant-baseline="central" text-anchor="middle" style="font-size:12px;font-family:sans-serif;" transform="translate(861.875 216.5)" fill="#fff">USA</text>
<text dominant-baseline="central" text-anchor="middle" style="font-size:12px;font-family:sans-serif;" transform="translate(861.875 425.25)" fill="#fff">Brazil</text>
<text dominant-baseline="central" text-anchor="middle" style="font-size:12px;font-family:sans-serif;" transform="translate(861.875 508.75)" fill="#fff">Canada</text>
<polygon points="0 0 25 0 30 11 25 22 0 22" transform="translate(438.456 563)" fill="#e8ebf0" class="zr1-cls-8"></polygon>
<polygon points="28 0 72.7 0 77.7 11 72.7 22 28 22 33 11" transform="translate(438.456 563)" fill="#e8ebf0" class="zr1-cls-8"></polygon>
<polygon points="75.7 0 123.1 0 123.1 22 75.7 22 80.7 11" transform="translate(438.456 563)" fill="#e8ebf0" class="zr1-cls-8"></polygon>
<text dominant-baseline="central" text-anchor="middle" style="font-size:12px;font-family:sans-serif;" transform="translate(491.318 574)" fill="#54555a">Asia</text>
<text dominant-baseline="central" text-anchor="middle" style="font-size:12px;font-family:sans-serif;" transform="translate(537.862 574)" fill="#54555a">India</text>
<style ><![CDATA[
.zr1-cls-0:hover {
cursor:pointer;
fill:rgba(255,255,255,1);
}
.zr1-cls-1:hover {
cursor:pointer;
fill:rgba(253,83,129,1);
}
.zr1-cls-2:hover {
cursor:pointer;
fill:rgba(56,122,255,1);
}
.zr1-cls-3:hover {
cursor:pointer;
fill:rgba(245,214,91,1);
}
.zr1-cls-4:hover {
cursor:pointer;
fill:rgba(246,34,92,1);
}
.zr1-cls-5:hover {
cursor:pointer;
fill:rgba(0,26,90,1);
}
.zr1-cls-6:hover {
cursor:pointer;
fill:rgba(255,247,185,1);
}
.zr1-cls-7:hover {
cursor:pointer;
fill:rgba(209,28,78,1);
}
.zr1-cls-8:hover {
cursor:pointer;
fill:#f4f7fd;
}

]]>

</style>
</svg>