<svg width="640" height="480" xmlns="http://www.w3.org/2000/svg" xmlns:xlink="http://www.w3.org/1999/xlink" version="1.1" baseProfile="full" viewBox="0 0 640 480">
<rect width="640" height="480" x="0" y="0" fill="rgb(255,255,255)"></rect>
<polyline points="391.9 75 397.9 61.2 427.9 61.2" fill="none" stroke="#e01f54" class="zr1-cls-0"></polyline>
<polyline points="487.9 175.1 501.9 169.6 531.9 169.6" fill="none" stroke="#001852" class="zr1-cls-0"></polyline>
<polyline points="492.1 292.8 506.4 297.2 536.4 297.2" fill="none" stroke="#efe1a9" class="zr1-cls-0"></polyline>
<polyline points="451.6 362.8 462.6 373 492.6 373" fill="none" stroke="#b8d2c7" class="zr1-cls-0"></polyline>
<polyline points="149.6 297.9 135.4 302.7 105.4 302.7" fill="none" stroke="#c6b38e" class="zr1-cls-0"></polyline>
<path d="M320 60A180 180 0 0 1 451.7991 117.4072L399.0795 166.4443A108 108 0 0 0 320 132Z" fill="#e01f54" stroke="#ccc" stroke-width="0" stroke-linejoin="round" class="zr1-cls-1"></path>
<path d="M451.7991 117.4072A180 180 0 0 1 499.989 241.9864L427.9934 241.1919A108 108 0 0 0 399.0795 166.4443Z" fill="#001852" stroke="#ccc" stroke-width="0" stroke-linejoin="round" class="zr1-cls-2"></path>
<path d="M499.989 241.9864A180 180 0 0 1 470.0771 339.3824L410.0463 299.6294A108 108 0 0 0 427.9934 241.1919Z" fill="#efe1a9" stroke="#ccc" stroke-width="0" stroke-linejoin="round" class="zr1-cls-3"></path>
<path d="M470.0771 339.3824A180 180 0 0 1 429.6208 382.77L385.7725 325.662A108 108 0 0 0 410.0463 299.6294Z" fill="#b8d2c7" stroke="#ccc" stroke-width="0" stroke-linejoin="round" class="zr1-cls-4"></path>
<path d="M429.6208 382.77A180 180 0 1 1 320 60L320 132A108 108 0 1 0 385.7725 325.662Z" fill="#c6b38e" stroke="#ccc" stroke-width="0" stroke-linejoin="round" class="zr1-cls-5"></path>
<text dominant-baseline="central" text-anchor="start" style="font-size:12px;font-family:sans-serif;" y="-6" transform="translate(432.8693 61.2226)" fill="#333" stroke="rgb(255,255,255)" stroke-width="2" paint-order="stroke" stroke-miterlimit="2">直接访问</text>
<text dominant-baseline="central" text-anchor="start" style="font-size:12px;font-family:sans-serif;" y="6" transform="translate(432.8693 61.2226)" fill="#333" stroke="rgb(255,255,255)" stroke-width="2" paint-order="stroke" stroke-miterlimit="2">335</text>
<text dominant-baseline="central" text-anchor="start" style="font-size:12px;font-family:sans-serif;" y="-6" transform="translate(536.8676 169.6497)" fill="#333" stroke="rgb(255,255,255)" stroke-width="2" paint-order="stroke" stroke-miterlimit="2">邮件营销</text>
<text dominant-baseline="central" text-anchor="start" style="font-size:12px;font-family:sans-serif;" y="6" transform="translate(536.8676 169.6497)" fill="#333" stroke="rgb(255,255,255)" stroke-width="2" paint-order="stroke" stroke-miterlimit="2">310</text>
<text dominant-baseline="central" text-anchor="start" style="font-size:12px;font-family:sans-serif;" y="-6" transform="translate(541.407 297.2487)" fill="#333" stroke="rgb(255,255,255)" stroke-width="2" paint-order="stroke" stroke-miterlimit="2">联盟广告</text>
<text dominant-baseline="central" text-anchor="start" style="font-size:12px;font-family:sans-serif;" y="6" transform="translate(541.407 297.2487)" fill="#333" stroke="rgb(255,255,255)" stroke-width="2" paint-order="stroke" stroke-miterlimit="2">234</text>
<text dominant-baseline="central" text-anchor="start" style="font-size:12px;font-family:sans-serif;" y="-6" transform="translate(497.6194 372.9839)" fill="#333" stroke="rgb(255,255,255)" stroke-width="2" paint-order="stroke" stroke-miterlimit="2">视频广告</text>
<text dominant-baseline="central" text-anchor="start" style="font-size:12px;font-family:sans-serif;" y="6" transform="translate(497.6194 372.9839)" fill="#333" stroke="rgb(255,255,255)" stroke-width="2" paint-order="stroke" stroke-miterlimit="2">135</text>
<text dominant-baseline="central" text-anchor="end" style="font-size:12px;font-family:sans-serif;" y="-6" transform="translate(100.3582 302.709)" fill="#333" stroke="rgb(255,255,255)" stroke-width="2" paint-order="stroke" stroke-miterlimit="2">搜索引擎</text>
<text dominant-baseline="central" text-anchor="end" style="font-size:12px;font-family:sans-serif;" y="6" transform="translate(100.3582 302.709)" fill="#333" stroke="rgb(255,255,255)" stroke-width="2" paint-order="stroke" stroke-miterlimit="2">1548</text>
<path d="M-5 -5l432 0l0 24l-432 0Z" transform="translate(109 456)" fill="rgb(0,0,0)" fill-opacity="0" stroke="#b7b9be" stroke-width="0" class="zr1-cls-6"></path>
<path d="M3.5 0L21.5 0A3.5 3.5 0 0 1 25 3.5L25 10.5A3.5 3.5 0 0 1 21.5 14L3.5 14A3.5 3.5 0 0 1 0 10.5L0 3.5A3.5 3.5 0 0 1 3.5 0" transform="translate(109 456)" fill="#e01f54" stroke="#ccc" stroke-width="0" stroke-linecap="butt" stroke-miterlimit="10" stroke-linejoin="round" class="zr1-cls-6"></path>
<text dominant-baseline="central" text-anchor="start" style="font-size:12px;font-family:sans-serif;" x="30" y="7" transform="translate(109 456)" fill="#333333">直接访问</text>
<path d="M0 0l78 0l0 14l-78 0Z" transform="translate(109 456)" fill="none" class="zr1-cls-7"></path>
<path d="M3.5 0L21.5 0A3.5 3.5 0 0 1 25 3.5L25 10.5A3.5 3.5 0 0 1 21.5 14L3.5 14A3.5 3.5 0 0 1 0 10.5L0 3.5A3.5 3.5 0 0 1 3.5 0" transform="translate(195 456)" fill="#001852" stroke="#ccc" stroke-width="0" stroke-linecap="butt" stroke-miterlimit="10" stroke-linejoin="round" class="zr1-cls-6"></path>
<text dominant-baseline="central" text-anchor="start" style="font-size:12px;font-family:sans-serif;" x="30" y="7" transform="translate(195 456)" fill="#333333">邮件营销</text>
<path d="M0 0l78 0l0 14l-78 0Z" transform="translate(195 456)" fill="none" class="zr1-cls-7"></path>
<path d="M3.5 0L21.5 0A3.5 3.5 0 0 1 25 3.5L25 10.5A3.5 3.5 0 0 1 21.5 14L3.5 14A3.5 3.5 0 0 1 0 10.5L0 3.5A3.5 3.5 0 0 1 3.5 0" transform="translate(281 456)" fill="#efe1a9" stroke="#ccc" stroke-width="0" stroke-linecap="butt" stroke-miterlimit="10" stroke-linejoin="round" class="zr1-cls-6"></path>
<text dominant-baseline="central" text-anchor="start" style="font-size:12px;font-family:sans-serif;" x="30" y="7" transform="translate(281 456)" fill="#333333">联盟广告</text>
<path d="M0 0l78 0l0 14l-78 0Z" transform="translate(281 456)" fill="none" class="zr1-cls-7"></path>
<path d="M3.5 0L21.5 0A3.5 3.5 0 0 1 25 3.5L25 10.5A3.5 3.5 0 0 1 21.5 14L3.5 14A3.5 3.5 0 0 1 0 10.5L0 3.5A3.5 3.5 0 0 1 3.5 0" transform="translate(367 456)" fill="#b8d2c7" stroke="#ccc" stroke-width="0" stroke-linecap="butt" stroke-miterlimit="10" stroke-linejoin="round" class="zr1-cls-6"></path>
<text dominant-baseline="central" text-anchor="start" style="font-size:12px;font-family:sans-serif;" x="30" y="7" transform="translate(367 456)" fill="#333333">视频广告</text>
<path d="M0 0l78 0l0 14l-78 0Z" transform="translate(367 456)" fill="none" class="zr1-cls-7"></path>
<path d="M3.5 0L21.5 0A3.5 3.5 0 0 1 25 3.5L25 10.5A3.5 3.5 0 0 1 21.5 14L3.5 14A3.5 3.5 0 0 1 0 10.5L0 3.5A3.5 3.5 0 0 1 3.5 0" transform="translate(453 456)" fill="#c6b38e" stroke="#ccc" stroke-width="0" stroke-linecap="butt" stroke-miterlimit="10" stroke-linejoin="round" class="zr1-cls-6"></path>
<text dominant-baseline="central" text-anchor="start" style="font-size:12px;font-family:sans-serif;" x="30" y="7" transform="translate(453 456)" fill="#333333">搜索引擎</text>
<path d="M0 0l78 0l0 14l-78 0Z" transform="translate(453 456)" fill="none" class="zr1-cls-7"></path>
<path d="M-47 -5l94 0l0 24l-94 0Z" transform="translate(320 10)" fill="rgb(0,0,0)" fill-opacity="0" stroke="#3c3c41" stroke-width="0" class="zr1-cls-6"></path>
<text dominant-baseline="central" text-anchor="middle" style="font-size:14px;font-family:sans-serif;font-weight:bold;" y="7" transform="translate(320 10)" fill="#333333">网站流量来源</text>
<style ><![CDATA[
.zr1-cls-0:hover {
cursor:pointer;
}
.zr1-cls-1:hover {
cursor:pointer;
fill:rgba(246,34,92,1);
}
.zr1-cls-2:hover {
cursor:pointer;
fill:rgba(0,26,90,1);
}
.zr1-cls-3:hover {
cursor:pointer;
fill:rgba(255,247,185,1);
}
.zr1-cls-4:hover {
cursor:pointer;
fill:rgba(202,231,218,1);
}
.zr1-cls-5:hover {
cursor:pointer;
fill:rgba(217,196,156,1);
}
.zr1-cls-6:hover {
pointer-events:none;
}
.zr1-cls-7:hover {
cursor:pointer;
fill:rgba(0,0,0,0);
}

]]>

</style>
</svg>