<svg width="640" height="640" xmlns="http://www.w3.org/2000/svg" xmlns:xlink="http://www.w3.org/1999/xlink" version="1.1" baseProfile="full" viewBox="0 0 640 640">
<rect width="640" height="640" x="0" y="0" fill="rgb(255,255,255)"></rect>
<path d="M331.9303 265.0749L260.1202 198.4761" fill="none" stroke="#e01f54" stroke-opacity="0.5" class="zr1-cls-0"></path>
<path d="M331.9303 265.0749L322.0056 370.1422" fill="none" stroke="#e01f54" stroke-opacity="0.5" class="zr1-cls-0"></path>
<path d="M331.9303 265.0749L349.447 352.0705" fill="none" stroke="#e01f54" stroke-opacity="0.5" class="zr1-cls-0"></path>
<path d="M408.7596 209.094L331.9303 265.0749" fill="none" stroke="#e01f54" stroke-opacity="0.5" class="zr1-cls-0"></path>
<path d="M239.5451 249.0169L331.9303 265.0749" fill="none" stroke="#e01f54" stroke-opacity="0.5" class="zr1-cls-0"></path>
<path d="M429.6396 257.8504L331.9303 265.0749" fill="none" stroke="#e01f54" stroke-opacity="0.5" class="zr1-cls-0"></path>
<path d="M364.6532 175.6353L331.9303 265.0749" fill="none" stroke="#e01f54" stroke-opacity="0.5" class="zr1-cls-0"></path>
<path d="M419.2025 311.4892L331.9303 265.0749" fill="none" stroke="#e01f54" stroke-opacity="0.5" class="zr1-cls-0"></path>
<path d="M308.6947 172.7858L331.9303 265.0749" fill="none" stroke="#e01f54" stroke-opacity="0.5" class="zr1-cls-0"></path>
<path d="M250.2379 343.2638L197.1379 419.2313" fill="none" stroke="#001852" stroke-opacity="0.5" class="zr1-cls-0"></path>
<path d="M250.2379 343.2638L349.447 352.0705" fill="none" stroke="#001852" stroke-opacity="0.5" class="zr1-cls-0"></path>
<path d="M250.2379 343.2638L322.0056 370.1422" fill="none" stroke="#001852" stroke-opacity="0.5" class="zr1-cls-0"></path>
<path d="M250.2379 343.2638L331.9303 265.0749" fill="none" stroke="#001852" stroke-opacity="0.5" class="zr1-cls-0"></path>
<path d="M162.7517 359.602L250.2379 343.2638" fill="none" stroke="#001852" stroke-opacity="0.5" class="zr1-cls-0"></path>
<path d="M171.9513 293.1645L250.2379 343.2638" fill="none" stroke="#001852" stroke-opacity="0.5" class="zr1-cls-0"></path>
<path d="M320.7961 308.1261L250.2379 343.2638" fill="none" stroke="#001852" stroke-opacity="0.5" class="zr1-cls-0"></path>
<path d="M259.934 435.9309L250.2379 343.2638" fill="none" stroke="#001852" stroke-opacity="0.5" class="zr1-cls-0"></path>
<path d="M432.8376 459.4273L359.8933 501.2762" fill="none" stroke="#f5e8c8" stroke-opacity="0.5" class="zr1-cls-0"></path>
<path d="M432.8376 459.4273L490.4556 398.3217" fill="none" stroke="#f5e8c8" stroke-opacity="0.5" class="zr1-cls-0"></path>
<path d="M1 0A1 1 0 1 1 1 -0.0001" transform="matrix(5,0,0,5,331.9303,265.0749)" fill="#e01f54" stroke="#ccc" stroke-width="0" class="zr1-cls-1"></path>
<path d="M1 0A1 1 0 1 1 1 -0.0001" transform="matrix(5,0,0,5,260.1202,198.4761)" fill="#e01f54" stroke="#ccc" stroke-width="0" class="zr1-cls-1"></path>
<path d="M1 0A1 1 0 1 1 1 -0.0001" transform="matrix(5,0,0,5,322.0056,370.1422)" fill="#e01f54" stroke="#ccc" stroke-width="0" class="zr1-cls-1"></path>
<path d="M1 0A1 1 0 1 1 1 -0.0001" transform="matrix(5,0,0,5,349.447,352.0705)" fill="#e01f54" stroke="#ccc" stroke-width="0" class="zr1-cls-1"></path>
<path d="M1 0A1 1 0 1 1 1 -0.0001" transform="matrix(5,0,0,5,408.7596,209.094)" fill="#e01f54" stroke="#ccc" stroke-width="0" class="zr1-cls-1"></path>
<path d="M1 0A1 1 0 1 1 1 -0.0001" transform="matrix(5,0,0,5,239.5451,249.0169)" fill="#e01f54" stroke="#ccc" stroke-width="0" class="zr1-cls-1"></path>
<path d="M1 0A1 1 0 1 1 1 -0.0001" transform="matrix(5,0,0,5,429.6396,257.8504)" fill="#e01f54" stroke="#ccc" stroke-width="0" class="zr1-cls-1"></path>
<path d="M1 0A1 1 0 1 1 1 -0.0001" transform="matrix(5,0,0,5,364.6532,175.6353)" fill="#e01f54" stroke="#ccc" stroke-width="0" class="zr1-cls-1"></path>
<path d="M1 0A1 1 0 1 1 1 -0.0001" transform="matrix(5,0,0,5,419.2025,311.4892)" fill="#e01f54" stroke="#ccc" stroke-width="0" class="zr1-cls-1"></path>
<path d="M1 0A1 1 0 1 1 1 -0.0001" transform="matrix(5,0,0,5,308.6947,172.7858)" fill="#e01f54" stroke="#ccc" stroke-width="0" class="zr1-cls-1"></path>
<path d="M1 0A1 1 0 1 1 1 -0.0001" transform="matrix(5,0,0,5,250.2379,343.2638)" fill="#001852" stroke="#ccc" stroke-width="0" class="zr1-cls-2"></path>
<path d="M1 0A1 1 0 1 1 1 -0.0001" transform="matrix(5,0,0,5,197.1379,419.2313)" fill="#001852" stroke="#ccc" stroke-width="0" class="zr1-cls-2"></path>
<path d="M1 0A1 1 0 1 1 1 -0.0001" transform="matrix(5,0,0,5,162.7517,359.602)" fill="#001852" stroke="#ccc" stroke-width="0" class="zr1-cls-2"></path>
<path d="M1 0A1 1 0 1 1 1 -0.0001" transform="matrix(5,0,0,5,171.9513,293.1645)" fill="#001852" stroke="#ccc" stroke-width="0" class="zr1-cls-2"></path>
<path d="M1 0A1 1 0 1 1 1 -0.0001" transform="matrix(5,0,0,5,320.7961,308.1261)" fill="#001852" stroke="#ccc" stroke-width="0" class="zr1-cls-2"></path>
<path d="M1 0A1 1 0 1 1 1 -0.0001" transform="matrix(5,0,0,5,259.934,435.9309)" fill="#001852" stroke="#ccc" stroke-width="0" class="zr1-cls-2"></path>
<path d="M1 0A1 1 0 1 1 1 -0.0001" transform="matrix(5,0,0,5,432.8376,459.4273)" fill="#f5e8c8" stroke="#ccc" stroke-width="0" class="zr1-cls-3"></path>
<path d="M1 0A1 1 0 1 1 1 -0.0001" transform="matrix(5,0,0,5,359.8933,501.2762)" fill="#f5e8c8" stroke="#ccc" stroke-width="0" class="zr1-cls-3"></path>
<path d="M1 0A1 1 0 1 1 1 -0.0001" transform="matrix(5,0,0,5,490.4556,398.3217)" fill="#f5e8c8" stroke="#ccc" stroke-width="0" class="zr1-cls-3"></path>
<text dominant-baseline="central" text-anchor="start" style="font-size:12px;font-family:sans-serif;" transform="translate(341.9303 265.0749)" fill="#666">Myriel</text>
<text dominant-baseline="central" text-anchor="start" style="font-size:12px;font-family:sans-serif;" transform="translate(270.1202 198.4761)" fill="#666">Napoleon</text>
<text dominant-baseline="central" text-anchor="start" style="font-size:12px;font-family:sans-serif;" transform="translate(332.0056 370.1422)" fill="#666">Mlle.Baptistine</text>
<text dominant-baseline="central" text-anchor="start" style="font-size:12px;font-family:sans-serif;" transform="translate(418.7596 209.094)" fill="#666">CountessdeLo</text>
<text dominant-baseline="central" text-anchor="start" style="font-size:12px;font-family:sans-serif;" transform="translate(249.5451 249.0169)" fill="#666">Geborand</text>
<text dominant-baseline="central" text-anchor="start" style="font-size:12px;font-family:sans-serif;" transform="translate(439.6396 257.8504)" fill="#666">Champtercier</text>
<text dominant-baseline="central" text-anchor="start" style="font-size:12px;font-family:sans-serif;" transform="translate(374.6532 175.6353)" fill="#666">Cravatte</text>
<text dominant-baseline="central" text-anchor="start" style="font-size:12px;font-family:sans-serif;" transform="translate(318.6947 172.7858)" fill="#666">OldMan</text>
<text dominant-baseline="central" text-anchor="start" style="font-size:12px;font-family:sans-serif;" transform="translate(260.2379 343.2638)" fill="#666">Valjean</text>
<text dominant-baseline="central" text-anchor="start" style="font-size:12px;font-family:sans-serif;" transform="translate(330.7961 308.1261)" fill="#666">Isabeau</text>
<text dominant-baseline="central" text-anchor="start" style="font-size:12px;font-family:sans-serif;" transform="translate(269.934 435.9309)" fill="#666">Gervais</text>
<text dominant-baseline="central" text-anchor="start" style="font-size:12px;font-family:sans-serif;" transform="translate(369.8933 501.2762)" fill="#666">Fantine</text>
<text dominant-baseline="central" text-anchor="start" style="font-size:12px;font-family:sans-serif;" transform="translate(500.4556 398.3217)" fill="#666">Mme.Thenardier</text>
<path d="M-5 -5l237.6319 0l0 24l-237.6319 0Z" transform="translate(206.1841 34)" fill="rgb(0,0,0)" fill-opacity="0" stroke="#b7b9be" stroke-width="0" class="zr1-cls-4"></path>
<path d="M3.5 0L21.5 0A3.5 3.5 0 0 1 25 3.5L25 10.5A3.5 3.5 0 0 1 21.5 14L3.5 14A3.5 3.5 0 0 1 0 10.5L0 3.5A3.5 3.5 0 0 1 3.5 0" transform="translate(206.1841 34)" fill="#e01f54" stroke="#ccc" stroke-width="0" stroke-linecap="butt" stroke-miterlimit="10" class="zr1-cls-4"></path>
<text dominant-baseline="central" text-anchor="start" style="font-size:12px;font-family:sans-serif;" x="30" y="7" transform="translate(206.1841 34)" fill="#333333">Group1</text>
<path d="M0 0l68.952 0l0 14l-68.952 0Z" transform="translate(206.1841 34)" fill="none" class="zr1-cls-5"></path>
<path d="M3.5 0L21.5 0A3.5 3.5 0 0 1 25 3.5L25 10.5A3.5 3.5 0 0 1 21.5 14L3.5 14A3.5 3.5 0 0 1 0 10.5L0 3.5A3.5 3.5 0 0 1 3.5 0" transform="translate(283.136 34)" fill="#001852" stroke="#ccc" stroke-width="0" stroke-linecap="butt" stroke-miterlimit="10" class="zr1-cls-4"></path>
<text dominant-baseline="central" text-anchor="start" style="font-size:12px;font-family:sans-serif;" x="30" y="7" transform="translate(283.136 34)" fill="#333333">Group2</text>
<path d="M0 0l71.34 0l0 14l-71.34 0Z" transform="translate(283.136 34)" fill="none" class="zr1-cls-5"></path>
<path d="M3.5 0L21.5 0A3.5 3.5 0 0 1 25 3.5L25 10.5A3.5 3.5 0 0 1 21.5 14L3.5 14A3.5 3.5 0 0 1 0 10.5L0 3.5A3.5 3.5 0 0 1 3.5 0" transform="translate(362.476 34)" fill="#f5e8c8" stroke="#ccc" stroke-width="0" stroke-linecap="butt" stroke-miterlimit="10" class="zr1-cls-4"></path>
<text dominant-baseline="central" text-anchor="start" style="font-size:12px;font-family:sans-serif;" x="30" y="7" transform="translate(362.476 34)" fill="#333333">Group3</text>
<path d="M0 0l71.34 0l0 14l-71.34 0Z" transform="translate(362.476 34)" fill="none" class="zr1-cls-5"></path>
<path d="M-81.993 -5l163.986 0l0 24l-163.986 0Z" transform="translate(320 10)" fill="rgb(0,0,0)" fill-opacity="0" stroke="#3c3c41" stroke-width="0" class="zr1-cls-4"></path>
<text dominant-baseline="central" text-anchor="middle" style="font-size:14px;font-family:sans-serif;font-weight:bold;" xml:space="preserve" y="7" transform="translate(320 10)" fill="#333333">悲惨世界人物关系 (简化)</text>
<style ><![CDATA[
.zr1-cls-0:hover {
cursor:pointer;
}
.zr1-cls-1:hover {
cursor:pointer;
fill:rgba(246,34,92,1);
}
.zr1-cls-2:hover {
cursor:pointer;
fill:rgba(0,26,90,1);
}
.zr1-cls-3:hover {
cursor:pointer;
fill:rgba(255,255,220,1);
}
.zr1-cls-4:hover {
pointer-events:none;
}
.zr1-cls-5:hover {
cursor:pointer;
fill:rgba(0,0,0,0);
}

]]>

</style>
</svg>