<svg width="640" height="480" xmlns="http://www.w3.org/2000/svg" xmlns:xlink="http://www.w3.org/1999/xlink" version="1.1" baseProfile="full" viewBox="0 0 640 480">
<rect width="640" height="480" x="0" y="0" fill="rgb(255,255,255)"></rect>
<path d="M320 204L288.8231 222L288.8231 258L320 276L351.1769 258L351.1769 222L320 204L320 240ZM320 132L226.4693 186L226.4693 294L320 348L413.5307 294L413.5307 186L320 132L320 168L382.3538 204L382.3538 276L320 312L257.6462 276L257.6462 204L320 168ZM320 60L164.1154 150L164.1154 330L320 420L475.8846 330L475.8846 150L320 60L320 96L444.7077 168L444.7077 312L320 384L195.2923 312L195.2923 168L320 96Z" fill="rgb(234,237,245)" fill-opacity="0.5" class="zr1-cls-0"></path>
<path d="M320 168L257.6462 204L257.6462 276L320 312L382.3538 276L382.3538 204L320 168L320 204L351.1769 222L351.1769 258L320 276L288.8231 258L288.8231 222L320 204ZM320 96L195.2923 168L195.2923 312L320 384L444.7077 312L444.7077 168L320 96L320 132L413.5307 186L413.5307 294L320 348L226.4693 294L226.4693 186L320 132Z" fill="rgb(255,255,255)" fill-opacity="0" class="zr1-cls-0"></path>
<path d="M320 240M320 204L288.8231 222L288.8231 258L320 276L351.1769 258L351.1769 222L320 204M320 168L257.6462 204L257.6462 276L320 312L382.3538 276L382.3538 204L320 168M320 132L226.4693 186L226.4693 294L320 348L413.5307 294L413.5307 186L320 132M320 96L195.2923 168L195.2923 312L320 384L444.7077 312L444.7077 168L320 96M320 60L164.1154 150L164.1154 330L320 420L475.8846 330L475.8846 150L320 60" fill="none" stroke="#dbdee4" class="zr1-cls-0"></path>
<path d="M320.5 240L320.5 60" fill="none" stroke="#cfd2d7" stroke-linecap="round" class="zr1-cls-0"></path>
<text dominant-baseline="central" text-anchor="middle" style="font-size:12px;font-family:sans-serif;" y="-6" transform="translate(320 45)" fill="#54555a">销售</text>
<path d="M320 240L164.1154 150" fill="none" stroke="#cfd2d7" stroke-linecap="round" class="zr1-cls-0"></path>
<text dominant-baseline="central" text-anchor="end" style="font-size:12px;font-family:sans-serif;" transform="translate(151.125 142.5)" fill="#54555a">市场</text>
<path d="M320 240L164.1154 330" fill="none" stroke="#cfd2d7" stroke-linecap="round" class="zr1-cls-0"></path>
<text dominant-baseline="central" text-anchor="end" style="font-size:12px;font-family:sans-serif;" transform="translate(151.125 337.5)" fill="#54555a">研发</text>
<path d="M320.5 240L320.5 420" fill="none" stroke="#cfd2d7" stroke-linecap="round" class="zr1-cls-0"></path>
<text dominant-baseline="central" text-anchor="middle" style="font-size:12px;font-family:sans-serif;" y="6" transform="translate(320 435)" fill="#54555a">客服</text>
<path d="M320 240L475.8846 330" fill="none" stroke="#cfd2d7" stroke-linecap="round" class="zr1-cls-0"></path>
<text dominant-baseline="central" text-anchor="start" style="font-size:12px;font-family:sans-serif;" transform="translate(488.875 337.5)" fill="#54555a">信息技术</text>
<path d="M320 240L475.8846 150" fill="none" stroke="#cfd2d7" stroke-linecap="round" class="zr1-cls-0"></path>
<text dominant-baseline="central" text-anchor="start" style="font-size:12px;font-family:sans-serif;" transform="translate(488.875 142.5)" fill="#54555a">行政</text>
<polyline points="320 114 286.6 220.7 208.7 304.3 320 420 475.9 330 453.6 162.9 320 114" fill="none" stroke="#e01f54" stroke-width="2" stroke-linejoin="round" class="zr1-cls-1"></polyline>
<polygon points="320 114 286.6 220.7 208.7 304.3 320 420 475.9 330 453.6 162.9 320 114" fill="#e01f54" fill-opacity="0.7" class="zr1-cls-2"></polygon>
<polyline points="320 90 164.1 150 164.1 330 320 373.7 450.9 315.6 475.9 150 320 90" fill="none" stroke="#001852" stroke-width="2" stroke-linejoin="round" class="zr1-cls-1"></polyline>
<polygon points="320 90 164.1 150 164.1 330 320 373.7 450.9 315.6 475.9 150 320 90" fill="#001852" fill-opacity="0.7" class="zr1-cls-3"></polygon>
<path d="M1 0A1 1 0 1 1 1 -0.0001" transform="matrix(2,0,0,2,320,114)" fill="#fff" stroke="#e01f54" class="zr1-cls-4"></path>
<path d="M1 0A1 1 0 1 1 1 -0.0001" transform="matrix(2,0,0,2,286.5962,220.7143)" fill="#fff" stroke="#e01f54" class="zr1-cls-4"></path>
<path d="M1 0A1 1 0 1 1 1 -0.0001" transform="matrix(2,0,0,2,208.6539,304.2857)" fill="#fff" stroke="#e01f54" class="zr1-cls-4"></path>
<path d="M1 0A1 1 0 1 1 1 -0.0001" transform="matrix(2,0,0,2,320,420)" fill="#fff" stroke="#e01f54" class="zr1-cls-4"></path>
<path d="M1 0A1 1 0 1 1 1 -0.0001" transform="matrix(2,0,0,2,475.8846,330)" fill="#fff" stroke="#e01f54" class="zr1-cls-4"></path>
<path d="M1 0A1 1 0 1 1 1 -0.0001" transform="matrix(2,0,0,2,453.6153,162.8571)" fill="#fff" stroke="#e01f54" class="zr1-cls-4"></path>
<path d="M1 0A1 1 0 1 1 1 -0.0001" transform="matrix(2,0,0,2,320,90)" fill="#fff" stroke="#001852" class="zr1-cls-4"></path>
<path d="M1 0A1 1 0 1 1 1 -0.0001" transform="matrix(2,0,0,2,164.1154,150)" fill="#fff" stroke="#001852" class="zr1-cls-4"></path>
<path d="M1 0A1 1 0 1 1 1 -0.0001" transform="matrix(2,0,0,2,164.1154,330)" fill="#fff" stroke="#001852" class="zr1-cls-4"></path>
<path d="M1 0A1 1 0 1 1 1 -0.0001" transform="matrix(2,0,0,2,320,373.7143)" fill="#fff" stroke="#001852" class="zr1-cls-4"></path>
<path d="M1 0A1 1 0 1 1 1 -0.0001" transform="matrix(2,0,0,2,450.943,315.6)" fill="#fff" stroke="#001852" class="zr1-cls-4"></path>
<path d="M1 0A1 1 0 1 1 1 -0.0001" transform="matrix(2,0,0,2,475.8846,150)" fill="#fff" stroke="#001852" class="zr1-cls-4"></path>
<path d="M-5 -5l264.5038 0l0 24l-264.5038 0Z" transform="translate(192.7481 456)" fill="rgb(0,0,0)" fill-opacity="0" stroke="#b7b9be" stroke-width="0" class="zr1-cls-0"></path>
<path d="M3.5 0L21.5 0A3.5 3.5 0 0 1 25 3.5L25 10.5A3.5 3.5 0 0 1 21.5 14L3.5 14A3.5 3.5 0 0 1 0 10.5L0 3.5A3.5 3.5 0 0 1 3.5 0" transform="translate(192.7481 456)" fill="#e01f54" class="zr1-cls-0"></path>
<text dominant-baseline="central" text-anchor="start" style="font-size:12px;font-family:sans-serif;" xml:space="preserve" x="30" y="7" transform="translate(192.7481 456)" fill="#333333">Allocated Budget</text>
<path d="M0 0l125.6639 0l0 14l-125.6639 0Z" transform="translate(192.7481 456)" fill="none" class="zr1-cls-5"></path>
<path d="M3.5 0L21.5 0A3.5 3.5 0 0 1 25 3.5L25 10.5A3.5 3.5 0 0 1 21.5 14L3.5 14A3.5 3.5 0 0 1 0 10.5L0 3.5A3.5 3.5 0 0 1 3.5 0" transform="translate(326.412 456)" fill="#001852" class="zr1-cls-0"></path>
<text dominant-baseline="central" text-anchor="start" style="font-size:12px;font-family:sans-serif;" xml:space="preserve" x="30" y="7" transform="translate(326.412 456)" fill="#333333">Actual Spending</text>
<path d="M0 0l120.8399 0l0 14l-120.8399 0Z" transform="translate(326.412 456)" fill="none" class="zr1-cls-5"></path>
<path d="M-44.879 -5l89.758 0l0 24l-89.758 0Z" transform="translate(320 10)" fill="rgb(0,0,0)" fill-opacity="0" stroke="#3c3c41" stroke-width="0" class="zr1-cls-0"></path>
<text dominant-baseline="central" text-anchor="middle" style="font-size:14px;font-family:sans-serif;font-weight:bold;" xml:space="preserve" y="7" transform="translate(320 10)" fill="#333333">预算 vs 开销</text>
<style ><![CDATA[
.zr1-cls-0:hover {
pointer-events:none;
}
.zr1-cls-1:hover {
cursor:pointer;
}
.zr1-cls-2:hover {
cursor:pointer;
fill:rgba(246,34,92,1);
}
.zr1-cls-3:hover {
cursor:pointer;
fill:rgba(0,26,90,1);
}
.zr1-cls-4:hover {
cursor:pointer;
fill:rgba(255,255,255,1);
}
.zr1-cls-5:hover {
cursor:pointer;
fill:rgba(0,0,0,0);
}

]]>

</style>
</svg>