<svg width="640" height="480" xmlns="http://www.w3.org/2000/svg" xmlns:xlink="http://www.w3.org/1999/xlink" version="1.1" baseProfile="full" viewBox="0 0 640 480">
<rect width="640" height="480" x="0" y="0" fill="rgb(255,255,255)"></rect>
<text dominant-baseline="central" text-anchor="middle" style="font-size:12px;font-family:sans-serif;" y="-6" transform="matrix(0,-1,1,0,20,221)" fill="#333">销量</text>
<path d="M60.5 405L60.5 37" fill="none" stroke="#333" stroke-linecap="round" class="zr1-cls-0"></path>
<text dominant-baseline="central" text-anchor="middle" style="font-size:12px;font-family:sans-serif;" y="6" transform="translate(342.75 435)" fill="#333">季度</text>
<path d="M60.5 405.5L625 405.5" fill="none" stroke="#333" stroke-linecap="round" class="zr1-cls-0"></path>
<path d="M60.5 405.5L55.5 405.5" fill="none" stroke="#333" class="zr1-cls-0"></path>
<path d="M60.5 352.5L55.5 352.5" fill="none" stroke="#333" class="zr1-cls-0"></path>
<path d="M60.5 300.5L55.5 300.5" fill="none" stroke="#333" class="zr1-cls-0"></path>
<path d="M60.5 247.5L55.5 247.5" fill="none" stroke="#333" class="zr1-cls-0"></path>
<path d="M60.5 194.5L55.5 194.5" fill="none" stroke="#333" class="zr1-cls-0"></path>
<path d="M60.5 142.5L55.5 142.5" fill="none" stroke="#333" class="zr1-cls-0"></path>
<path d="M60.5 89.5L55.5 89.5" fill="none" stroke="#333" class="zr1-cls-0"></path>
<path d="M60.5 37.5L55.5 37.5" fill="none" stroke="#333" class="zr1-cls-0"></path>
<path d="M60.5 405L60.5 410" fill="none" stroke="#333" class="zr1-cls-0"></path>
<path d="M201.5 405L201.5 410" fill="none" stroke="#333" class="zr1-cls-0"></path>
<path d="M342.5 405L342.5 410" fill="none" stroke="#333" class="zr1-cls-0"></path>
<path d="M484.5 405L484.5 410" fill="none" stroke="#333" class="zr1-cls-0"></path>
<path d="M625.5 405L625.5 410" fill="none" stroke="#333" class="zr1-cls-0"></path>
<text dominant-baseline="central" text-anchor="end" style="font-size:12px;font-family:sans-serif;" transform="translate(52.5 405)" fill="#333">0</text>
<text dominant-baseline="central" text-anchor="end" style="font-size:12px;font-family:sans-serif;" transform="translate(52.5 352.4286)" fill="#333">100</text>
<text dominant-baseline="central" text-anchor="end" style="font-size:12px;font-family:sans-serif;" transform="translate(52.5 299.8571)" fill="#333">200</text>
<text dominant-baseline="central" text-anchor="end" style="font-size:12px;font-family:sans-serif;" transform="translate(52.5 247.2857)" fill="#333">300</text>
<text dominant-baseline="central" text-anchor="end" style="font-size:12px;font-family:sans-serif;" transform="translate(52.5 194.7143)" fill="#333">400</text>
<text dominant-baseline="central" text-anchor="end" style="font-size:12px;font-family:sans-serif;" transform="translate(52.5 142.1429)" fill="#333">500</text>
<text dominant-baseline="central" text-anchor="end" style="font-size:12px;font-family:sans-serif;" transform="translate(52.5 89.5714)" fill="#333">600</text>
<text dominant-baseline="central" text-anchor="end" style="font-size:12px;font-family:sans-serif;" transform="translate(52.5 37)" fill="#333">700</text>
<text dominant-baseline="central" text-anchor="middle" style="font-size:12px;font-family:sans-serif;" y="6" transform="translate(131.0625 413)" fill="#333">Q1</text>
<text dominant-baseline="central" text-anchor="middle" style="font-size:12px;font-family:sans-serif;" y="6" transform="translate(272.1875 413)" fill="#333">Q2</text>
<text dominant-baseline="central" text-anchor="middle" style="font-size:12px;font-family:sans-serif;" y="6" transform="translate(413.3125 413)" fill="#333">Q3</text>
<text dominant-baseline="central" text-anchor="middle" style="font-size:12px;font-family:sans-serif;" y="6" transform="translate(554.4375 413)" fill="#333">Q4</text>
<path d="M82.3744 405l97.3763 0l0 -262.8571l-97.3763 0Z" fill="#e01f54" class="zr1-cls-1"></path>
<path d="M223.4994 405l97.3763 0l0 -78.8571l-97.3763 0Z" fill="#e01f54" class="zr1-cls-1"></path>
<path d="M364.6244 405l97.3763 0l0 -94.6286l-97.3763 0Z" fill="#e01f54" class="zr1-cls-1"></path>
<path d="M505.7494 405l97.3763 0l0 -105.1429l-97.3763 0Z" fill="#e01f54" class="zr1-cls-1"></path>
<path d="M82.3744 142.1429l97.3763 0l0 -42.0571l-97.3763 0Z" fill="#001852" class="zr1-cls-2"></path>
<path d="M223.4994 326.1429l97.3763 0l0 -47.3143l-97.3763 0Z" fill="#001852" class="zr1-cls-2"></path>
<path d="M364.6244 310.3714l97.3763 0l0 -57.8286l-97.3763 0Z" fill="#001852" class="zr1-cls-2"></path>
<path d="M505.7494 299.8571l97.3763 0l0 -68.3429l-97.3763 0Z" fill="#001852" class="zr1-cls-2"></path>
<path d="M82.3744 100.0857l97.3763 0l0 -31.5429l-97.3763 0Z" fill="#efe1a9" class="zr1-cls-3"></path>
<path d="M223.4994 278.8286l97.3763 0l0 -36.8l-97.3763 0Z" fill="#efe1a9" class="zr1-cls-3"></path>
<path d="M364.6244 252.5429l97.3763 0l0 -44.6857l-97.3763 0Z" fill="#efe1a9" class="zr1-cls-3"></path>
<path d="M505.7494 231.5143l97.3763 0l0 -49.9429l-97.3763 0Z" fill="#efe1a9" class="zr1-cls-3"></path>
<text dominant-baseline="central" text-anchor="middle" style="font-size:12px;font-family:sans-serif;" transform="translate(131.0625 273.5714)" fill="#eee" stroke="#e01f54" stroke-width="2" paint-order="stroke" stroke-miterlimit="2">500</text>
<text dominant-baseline="central" text-anchor="middle" style="font-size:12px;font-family:sans-serif;" transform="translate(272.1875 365.5714)" fill="#eee" stroke="#e01f54" stroke-width="2" paint-order="stroke" stroke-miterlimit="2">150</text>
<text dominant-baseline="central" text-anchor="middle" style="font-size:12px;font-family:sans-serif;" transform="translate(413.3125 357.6857)" fill="#eee" stroke="#e01f54" stroke-width="2" paint-order="stroke" stroke-miterlimit="2">180</text>
<text dominant-baseline="central" text-anchor="middle" style="font-size:12px;font-family:sans-serif;" transform="translate(554.4375 352.4286)" fill="#eee" stroke="#e01f54" stroke-width="2" paint-order="stroke" stroke-miterlimit="2">200</text>
<text dominant-baseline="central" text-anchor="middle" style="font-size:12px;font-family:sans-serif;" transform="translate(131.0625 121.1143)" fill="#ccc" stroke="#001852" stroke-width="2" paint-order="stroke" stroke-miterlimit="2">80</text>
<text dominant-baseline="central" text-anchor="middle" style="font-size:12px;font-family:sans-serif;" transform="translate(272.1875 302.4857)" fill="#ccc" stroke="#001852" stroke-width="2" paint-order="stroke" stroke-miterlimit="2">90</text>
<text dominant-baseline="central" text-anchor="middle" style="font-size:12px;font-family:sans-serif;" transform="translate(413.3125 281.4571)" fill="#ccc" stroke="#001852" stroke-width="2" paint-order="stroke" stroke-miterlimit="2">110</text>
<text dominant-baseline="central" text-anchor="middle" style="font-size:12px;font-family:sans-serif;" transform="translate(554.4375 265.6857)" fill="#ccc" stroke="#001852" stroke-width="2" paint-order="stroke" stroke-miterlimit="2">130</text>
<text dominant-baseline="central" text-anchor="middle" style="font-size:12px;font-family:sans-serif;" transform="translate(131.0625 84.3143)" fill="#333">60</text>
<text dominant-baseline="central" text-anchor="middle" style="font-size:12px;font-family:sans-serif;" transform="translate(272.1875 260.4286)" fill="#333">70</text>
<text dominant-baseline="central" text-anchor="middle" style="font-size:12px;font-family:sans-serif;" transform="translate(413.3125 230.2)" fill="#333">85</text>
<text dominant-baseline="central" text-anchor="middle" style="font-size:12px;font-family:sans-serif;" transform="translate(554.4375 206.5429)" fill="#333">95</text>
<path d="M-5 -5l212.744 0l0 24l-212.744 0Z" transform="translate(218.628 456)" fill="rgb(0,0,0)" fill-opacity="0" stroke="#b7b9be" stroke-width="0" class="zr1-cls-0"></path>
<path d="M3.5 0L21.5 0A3.5 3.5 0 0 1 25 3.5L25 10.5A3.5 3.5 0 0 1 21.5 14L3.5 14A3.5 3.5 0 0 1 0 10.5L0 3.5A3.5 3.5 0 0 1 3.5 0" transform="translate(218.628 456)" fill="#e01f54" class="zr1-cls-0"></path>
<text dominant-baseline="central" text-anchor="start" style="font-size:12px;font-family:sans-serif;" x="30" y="7" transform="translate(218.628 456)" fill="#333333">产品A</text>
<path d="M0 0l61.884 0l0 14l-61.884 0Z" transform="translate(218.628 456)" fill="none" class="zr1-cls-4"></path>
<path d="M3.5 0L21.5 0A3.5 3.5 0 0 1 25 3.5L25 10.5A3.5 3.5 0 0 1 21.5 14L3.5 14A3.5 3.5 0 0 1 0 10.5L0 3.5A3.5 3.5 0 0 1 3.5 0" transform="translate(288.512 456)" fill="#001852" class="zr1-cls-0"></path>
<text dominant-baseline="central" text-anchor="start" style="font-size:12px;font-family:sans-serif;" x="30" y="7" transform="translate(288.512 456)" fill="#333333">产品B</text>
<path d="M0 0l62.124 0l0 14l-62.124 0Z" transform="translate(288.512 456)" fill="none" class="zr1-cls-4"></path>
<path d="M3.5 0L21.5 0A3.5 3.5 0 0 1 25 3.5L25 10.5A3.5 3.5 0 0 1 21.5 14L3.5 14A3.5 3.5 0 0 1 0 10.5L0 3.5A3.5 3.5 0 0 1 3.5 0" transform="translate(358.636 456)" fill="#efe1a9" class="zr1-cls-0"></path>
<text dominant-baseline="central" text-anchor="start" style="font-size:12px;font-family:sans-serif;" x="30" y="7" transform="translate(358.636 456)" fill="#333333">产品C</text>
<path d="M0 0l62.736 0l0 14l-62.736 0Z" transform="translate(358.636 456)" fill="none" class="zr1-cls-4"></path>
<path d="M-61 -5l122 0l0 24l-122 0Z" transform="translate(320 10)" fill="rgb(0,0,0)" fill-opacity="0" stroke="#3c3c41" stroke-width="0" class="zr1-cls-0"></path>
<text dominant-baseline="central" text-anchor="middle" style="font-size:14px;font-family:sans-serif;font-weight:bold;" y="7" transform="translate(320 10)" fill="#333333">季度产品销量堆叠</text>
<style ><![CDATA[
.zr1-cls-0:hover {
pointer-events:none;
}
.zr1-cls-1:hover {
cursor:pointer;
fill:rgba(246,34,92,1);
}
.zr1-cls-2:hover {
cursor:pointer;
fill:rgba(0,26,90,1);
}
.zr1-cls-3:hover {
cursor:pointer;
fill:rgba(255,247,185,1);
}
.zr1-cls-4:hover {
cursor:pointer;
fill:rgba(0,0,0,0);
}

]]>

</style>
</svg>