<svg width="640" height="480" xmlns="http://www.w3.org/2000/svg" xmlns:xlink="http://www.w3.org/1999/xlink" version="1.1" baseProfile="full" viewBox="0 0 640 480">
<rect width="640" height="480" x="0" y="0" fill="rgb(255,255,255)"></rect>
<text dominant-baseline="central" text-anchor="middle" style="font-size:12px;font-family:sans-serif;" y="-6" transform="matrix(0,-1,1,0,20,249.5)" fill="#333">薪资(单位:万元)</text>
<path d="M60.5 433L60.5 66" fill="none" stroke="#333" stroke-linecap="round" class="zr1-cls-0"></path>
<text dominant-baseline="central" text-anchor="middle" style="font-size:12px;font-family:sans-serif;" y="6" transform="translate(342.5 463)" fill="#333">职业</text>
<path d="M60 433.5L625 433.5" fill="none" stroke="#333" stroke-linecap="round" class="zr1-cls-0"></path>
<path d="M60 433.5L55 433.5" fill="none" stroke="#333" class="zr1-cls-0"></path>
<path d="M60 387.5L55 387.5" fill="none" stroke="#333" class="zr1-cls-0"></path>
<path d="M60 341.5L55 341.5" fill="none" stroke="#333" class="zr1-cls-0"></path>
<path d="M60 295.5L55 295.5" fill="none" stroke="#333" class="zr1-cls-0"></path>
<path d="M60 249.5L55 249.5" fill="none" stroke="#333" class="zr1-cls-0"></path>
<path d="M60 203.5L55 203.5" fill="none" stroke="#333" class="zr1-cls-0"></path>
<path d="M60 158.5L55 158.5" fill="none" stroke="#333" class="zr1-cls-0"></path>
<path d="M60 112.5L55 112.5" fill="none" stroke="#333" class="zr1-cls-0"></path>
<path d="M60 66.5L55 66.5" fill="none" stroke="#333" class="zr1-cls-0"></path>
<path d="M60.5 433L60.5 438" fill="none" stroke="#333" class="zr1-cls-0"></path>
<path d="M201.5 433L201.5 438" fill="none" stroke="#333" class="zr1-cls-0"></path>
<path d="M342.5 433L342.5 438" fill="none" stroke="#333" class="zr1-cls-0"></path>
<path d="M484.5 433L484.5 438" fill="none" stroke="#333" class="zr1-cls-0"></path>
<path d="M625.5 433L625.5 438" fill="none" stroke="#333" class="zr1-cls-0"></path>
<text dominant-baseline="central" text-anchor="end" style="font-size:12px;font-family:sans-serif;" transform="translate(52 433)" fill="#333">5</text>
<text dominant-baseline="central" text-anchor="end" style="font-size:12px;font-family:sans-serif;" transform="translate(52 387.125)" fill="#333">10</text>
<text dominant-baseline="central" text-anchor="end" style="font-size:12px;font-family:sans-serif;" transform="translate(52 341.25)" fill="#333">15</text>
<text dominant-baseline="central" text-anchor="end" style="font-size:12px;font-family:sans-serif;" transform="translate(52 295.375)" fill="#333">20</text>
<text dominant-baseline="central" text-anchor="end" style="font-size:12px;font-family:sans-serif;" transform="translate(52 249.5)" fill="#333">25</text>
<text dominant-baseline="central" text-anchor="end" style="font-size:12px;font-family:sans-serif;" transform="translate(52 203.625)" fill="#333">30</text>
<text dominant-baseline="central" text-anchor="end" style="font-size:12px;font-family:sans-serif;" transform="translate(52 157.75)" fill="#333">35</text>
<text dominant-baseline="central" text-anchor="end" style="font-size:12px;font-family:sans-serif;" transform="translate(52 111.875)" fill="#333">40</text>
<text dominant-baseline="central" text-anchor="end" style="font-size:12px;font-family:sans-serif;" transform="translate(52 66)" fill="#333">45</text>
<text dominant-baseline="central" text-anchor="middle" style="font-size:12px;font-family:sans-serif;" y="6" transform="translate(130.625 441)" fill="#333">FrontEnd</text>
<text dominant-baseline="central" text-anchor="middle" style="font-size:12px;font-family:sans-serif;" y="6" transform="translate(271.875 441)" fill="#333">BackEnd</text>
<text dominant-baseline="central" text-anchor="middle" style="font-size:12px;font-family:sans-serif;" y="6" transform="translate(413.125 441)" fill="#333">Algorithm</text>
<text dominant-baseline="central" text-anchor="middle" style="font-size:12px;font-family:sans-serif;" y="6" transform="translate(554.375 441)" fill="#333">Operation</text>
<polygon points="131.4 395.6 133.3 393.6 134.9 391.5 136.2 389.4 137.3 387.4 138.2 385.3 138.8 383.3 139.7 381.2 140.3 379.2 140.7 377.1 140.7 375 140.9 373 140.8 370.9 141 368.9 140.8 366.8 141.3 364.8 143 362.7 145.4 360.6 148.2 358.6 151.5 356.5 154.7 354.5 157.1 352.4 159 350.4 160.1 348.3 160.6 346.2 160.7 344.2 159.9 342.1 158.9 340.1 157.7 338 157.1 336 157 333.9 157.1 331.8 158.1 329.8 159.1 327.7 160.6 325.7 163.1 323.6 167.3 321.6 170.5 319.5 172.6 317.4 173.4 315.4 173.3 313.3 172.1 311.3 169.6 309.2 166.7 307.1 163.2 305.1 160.1 303 157.3 301 154.8 298.9 152.9 296.9 150.1 294.8 146.9 292.7 145.7 290.7 145.7 288.6 147.5 286.6 148.7 284.5 149.3 282.5 150.1 280.4 151 278.3 151.4 276.3 151.3 274.2 150.9 272.2 150 270.1 150.1 268.1 149.4 266 148.5 263.9 147.2 261.9 145.7 259.8 144.1 257.8 142.5 255.7 141.1 253.7 140 251.6 138.6 249.5 137.2 247.5 136.4 245.4 135.4 243.4 135.2 241.3 135.1 239.3 134.8 237.2 134.5 235.1 134.4 233.1 134.1 231 133.7 229 133.8 226.9 134.4 224.9 134.9 222.8 135.2 220.7 135.3 218.7 135.2 216.6 135 214.6 134.6 212.5 134.1 210.5 133.4 208.4 133.3 206.3 133 204.3 132.7 202.2 132.3 200.2 131.8 198.1 131.3 196 130 196 129.4 198.1 128.9 200.2 128.5 202.2 128.2 204.3 128 206.3 127.8 208.4 127.2 210.5 126.6 212.5 126.2 214.6 126 216.6 126 218.7 126.1 220.7 126.4 222.8 126.8 224.9 127.4 226.9 127.5 229 127.1 231 126.8 233.1 126.7 235.1 126.5 237.2 126.1 239.3 126 241.3 125.9 243.4 124.9 245.4 124 247.5 122.7 249.5 121.2 251.6 120.2 253.7 118.8 255.7 117.2 257.8 115.5 259.8 114.1 261.9 112.7 263.9 111.8 266 111.2 268.1 111.2 270.1 110.3 272.2 109.9 274.2 109.9 276.3 110.3 278.3 111.1 280.4 111.9 282.5 112.5 284.5 113.7 286.6 115.6 288.6 115.5 290.7 114.3 292.7 111.2 294.8 108.4 296.9 106.4 298.9 104 301 101.2 303 98.1 305.1 94.6 307.1 91.7 309.2 89.2 311.3 87.9 313.3 87.8 315.4 88.6 317.4 90.7 319.5 93.9 321.6 98.1 323.6 100.6 325.7 102.1 327.7 103.1 329.8 104.2 331.8 104.3 333.9 104.2 336 103.5 338 102.3 340.1 101.4 342.1 100.6 344.2 100.7 346.2 101.2 348.3 102.3 350.4 104.1 352.4 106.5 354.5 109.7 356.5 113 358.6 115.8 360.6 118.3 362.7 119.9 364.8 120.5 366.8 120.3 368.9 120.4 370.9 120.4 373 120.6 375 120.6 377.1 120.9 379.2 121.6 381.2 122.5 383.3 123.1 385.3 123.9 387.4 125 389.4 126.4 391.5 128 393.6 129.8 395.6" fill="#e01f54" fill-opacity="0.5" class="zr1-cls-0"></polygon>
<polygon points="131.4 395.6 133.3 393.6 134.9 391.5 136.2 389.4 137.3 387.4 138.2 385.3 138.8 383.3 139.7 381.2 140.3 379.2 140.7 377.1 140.7 375 140.9 373 140.8 370.9 141 368.9 140.8 366.8 141.3 364.8 143 362.7 145.4 360.6 148.2 358.6 151.5 356.5 154.7 354.5 157.1 352.4 159 350.4 160.1 348.3 160.6 346.2 160.7 344.2 159.9 342.1 158.9 340.1 157.7 338 157.1 336 157 333.9 157.1 331.8 158.1 329.8 159.1 327.7 160.6 325.7 163.1 323.6 167.3 321.6 170.5 319.5 172.6 317.4 173.4 315.4 173.3 313.3 172.1 311.3 169.6 309.2 166.7 307.1 163.2 305.1 160.1 303 157.3 301 154.8 298.9 152.9 296.9 150.1 294.8 146.9 292.7 145.7 290.7 145.7 288.6 147.5 286.6 148.7 284.5 149.3 282.5 150.1 280.4 151 278.3 151.4 276.3 151.3 274.2 150.9 272.2 150 270.1 150.1 268.1 149.4 266 148.5 263.9 147.2 261.9 145.7 259.8 144.1 257.8 142.5 255.7 141.1 253.7 140 251.6 138.6 249.5 137.2 247.5 136.4 245.4 135.4 243.4 135.2 241.3 135.1 239.3 134.8 237.2 134.5 235.1 134.4 233.1 134.1 231 133.7 229 133.8 226.9 134.4 224.9 134.9 222.8 135.2 220.7 135.3 218.7 135.2 216.6 135 214.6 134.6 212.5 134.1 210.5 133.4 208.4 133.3 206.3 133 204.3 132.7 202.2 132.3 200.2 131.8 198.1 131.3 196 130 196 129.4 198.1 128.9 200.2 128.5 202.2 128.2 204.3 128 206.3 127.8 208.4 127.2 210.5 126.6 212.5 126.2 214.6 126 216.6 126 218.7 126.1 220.7 126.4 222.8 126.8 224.9 127.4 226.9 127.5 229 127.1 231 126.8 233.1 126.7 235.1 126.5 237.2 126.1 239.3 126 241.3 125.9 243.4 124.9 245.4 124 247.5 122.7 249.5 121.2 251.6 120.2 253.7 118.8 255.7 117.2 257.8 115.5 259.8 114.1 261.9 112.7 263.9 111.8 266 111.2 268.1 111.2 270.1 110.3 272.2 109.9 274.2 109.9 276.3 110.3 278.3 111.1 280.4 111.9 282.5 112.5 284.5 113.7 286.6 115.6 288.6 115.5 290.7 114.3 292.7 111.2 294.8 108.4 296.9 106.4 298.9 104 301 101.2 303 98.1 305.1 94.6 307.1 91.7 309.2 89.2 311.3 87.9 313.3 87.8 315.4 88.6 317.4 90.7 319.5 93.9 321.6 98.1 323.6 100.6 325.7 102.1 327.7 103.1 329.8 104.2 331.8 104.3 333.9 104.2 336 103.5 338 102.3 340.1 101.4 342.1 100.6 344.2 100.7 346.2 101.2 348.3 102.3 350.4 104.1 352.4 106.5 354.5 109.7 356.5 113 358.6 115.8 360.6 118.3 362.7 119.9 364.8 120.5 366.8 120.3 368.9 120.4 370.9 120.4 373 120.6 375 120.6 377.1 120.9 379.2 121.6 381.2 122.5 383.3 123.1 385.3 123.9 387.4 125 389.4 126.4 391.5 128 393.6 129.8 395.6" fill="none" stroke="#e01f54" class="zr1-cls-0"></polygon>
<polygon points="272.6 370.6 273.2 368.7 273.7 366.8 274.3 364.9 275.8 363 277.4 361.1 279.3 359.2 280.9 357.3 282.1 355.4 282.9 353.5 283.3 351.6 283.4 349.7 283.1 347.8 282.5 345.9 281.5 344 280.1 342.1 278.8 340.2 277.5 338.3 276 336.4 274.4 334.5 274.3 332.6 275.6 330.7 277.8 328.8 280.8 326.9 284.3 325 287.2 323.1 290.3 321.2 293.3 319.3 295.5 317.4 298 315.5 300.3 313.6 301.9 311.7 303 309.8 302.9 307.9 302.1 306 300.7 304.1 300.3 302.2 300 300.3 299.7 298.4 300.5 296.5 301.8 294.6 303.4 292.7 303.9 290.8 304.5 288.9 303.9 287 302.5 285.1 301.2 283.2 300.1 281.3 298.4 279.4 296.5 277.5 294.2 275.5 292.4 273.6 291.6 271.7 292.1 269.8 292.2 267.9 293.9 266 296.4 264.1 299 262.2 301.9 260.3 303.8 258.4 305.1 256.5 305.3 254.6 304.3 252.7 302.9 250.8 301.1 248.9 298.3 247 294.9 245.1 292 243.2 289.5 241.3 288.4 239.4 288 237.5 287.8 235.6 288.7 233.7 290.3 231.8 292 229.9 292.8 228 293.4 226.1 293.5 224.2 292.8 222.3 291.7 220.4 290.9 218.5 289.6 216.6 287.8 214.7 285.6 212.8 284.1 210.9 282.5 209 281 207.1 279.6 205.2 278.5 203.3 277.8 201.4 277.6 199.5 277.2 197.6 276.6 195.7 275.9 193.8 274.9 191.9 273.8 190 273.2 188.1 272.6 186.2 271.2 186.2 270.6 188.1 270 190 268.8 191.9 267.9 193.8 267.1 195.7 266.5 197.6 266.1 199.5 265.9 201.4 265.3 203.3 264.2 205.2 262.7 207.1 261.3 209 259.6 210.9 258.1 212.8 255.9 214.7 254.2 216.6 252.8 218.5 252 220.4 250.9 222.3 250.3 224.2 250.3 226.1 250.9 228 251.8 229.9 253.4 231.8 255 233.7 255.9 235.6 255.8 237.5 255.3 239.4 254.2 241.3 251.7 243.2 248.8 245.1 245.5 247 242.7 248.9 240.8 250.8 239.4 252.7 238.4 254.6 238.6 256.5 240 258.4 241.9 260.3 244.8 262.2 247.3 264.1 249.9 266 251.6 267.9 251.6 269.8 252.1 271.7 251.4 273.6 249.6 275.5 247.2 277.5 245.3 279.4 243.7 281.3 242.5 283.2 241.3 285.1 239.9 287 239.2 288.9 239.9 290.8 240.4 292.7 242 294.6 243.2 296.5 244 298.4 243.8 300.3 243.4 302.2 243 304.1 241.6 306 240.9 307.9 240.8 309.8 241.9 311.7 243.4 313.6 245.7 315.5 248.2 317.4 250.5 319.3 253.5 321.2 256.5 323.1 259.5 325 263 326.9 265.9 328.8 268.2 330.7 269.4 332.6 269.4 334.5 267.7 336.4 266.2 338.3 265 340.2 263.6 342.1 262.2 344 261.2 345.9 260.6 347.8 260.3 349.7 260.4 351.6 260.9 353.5 261.7 355.4 262.9 357.3 264.4 359.2 266.3 361.1 268 363 269.5 364.9 270 366.8 270.6 368.7 271.2 370.6" fill="#001852" fill-opacity="0.5" class="zr1-cls-0"></polygon>
<polygon points="272.6 370.6 273.2 368.7 273.7 366.8 274.3 364.9 275.8 363 277.4 361.1 279.3 359.2 280.9 357.3 282.1 355.4 282.9 353.5 283.3 351.6 283.4 349.7 283.1 347.8 282.5 345.9 281.5 344 280.1 342.1 278.8 340.2 277.5 338.3 276 336.4 274.4 334.5 274.3 332.6 275.6 330.7 277.8 328.8 280.8 326.9 284.3 325 287.2 323.1 290.3 321.2 293.3 319.3 295.5 317.4 298 315.5 300.3 313.6 301.9 311.7 303 309.8 302.9 307.9 302.1 306 300.7 304.1 300.3 302.2 300 300.3 299.7 298.4 300.5 296.5 301.8 294.6 303.4 292.7 303.9 290.8 304.5 288.9 303.9 287 302.5 285.1 301.2 283.2 300.1 281.3 298.4 279.4 296.5 277.5 294.2 275.5 292.4 273.6 291.6 271.7 292.1 269.8 292.2 267.9 293.9 266 296.4 264.1 299 262.2 301.9 260.3 303.8 258.4 305.1 256.5 305.3 254.6 304.3 252.7 302.9 250.8 301.1 248.9 298.3 247 294.9 245.1 292 243.2 289.5 241.3 288.4 239.4 288 237.5 287.8 235.6 288.7 233.7 290.3 231.8 292 229.9 292.8 228 293.4 226.1 293.5 224.2 292.8 222.3 291.7 220.4 290.9 218.5 289.6 216.6 287.8 214.7 285.6 212.8 284.1 210.9 282.5 209 281 207.1 279.6 205.2 278.5 203.3 277.8 201.4 277.6 199.5 277.2 197.6 276.6 195.7 275.9 193.8 274.9 191.9 273.8 190 273.2 188.1 272.6 186.2 271.2 186.2 270.6 188.1 270 190 268.8 191.9 267.9 193.8 267.1 195.7 266.5 197.6 266.1 199.5 265.9 201.4 265.3 203.3 264.2 205.2 262.7 207.1 261.3 209 259.6 210.9 258.1 212.8 255.9 214.7 254.2 216.6 252.8 218.5 252 220.4 250.9 222.3 250.3 224.2 250.3 226.1 250.9 228 251.8 229.9 253.4 231.8 255 233.7 255.9 235.6 255.8 237.5 255.3 239.4 254.2 241.3 251.7 243.2 248.8 245.1 245.5 247 242.7 248.9 240.8 250.8 239.4 252.7 238.4 254.6 238.6 256.5 240 258.4 241.9 260.3 244.8 262.2 247.3 264.1 249.9 266 251.6 267.9 251.6 269.8 252.1 271.7 251.4 273.6 249.6 275.5 247.2 277.5 245.3 279.4 243.7 281.3 242.5 283.2 241.3 285.1 239.9 287 239.2 288.9 239.9 290.8 240.4 292.7 242 294.6 243.2 296.5 244 298.4 243.8 300.3 243.4 302.2 243 304.1 241.6 306 240.9 307.9 240.8 309.8 241.9 311.7 243.4 313.6 245.7 315.5 248.2 317.4 250.5 319.3 253.5 321.2 256.5 323.1 259.5 325 263 326.9 265.9 328.8 268.2 330.7 269.4 332.6 269.4 334.5 267.7 336.4 266.2 338.3 265 340.2 263.6 342.1 262.2 344 261.2 345.9 260.6 347.8 260.3 349.7 260.4 351.6 260.9 353.5 261.7 355.4 262.9 357.3 264.4 359.2 266.3 361.1 268 363 269.5 364.9 270 366.8 270.6 368.7 271.2 370.6" fill="none" stroke="#001852" class="zr1-cls-0"></polygon>
<polygon points="413.5 391.2 413.9 387.9 414.2 384.7 414.5 381.5 414.7 378.3 414.8 375.1 414.9 371.9 415 368.7 415.1 365.4 415.6 362.2 416.6 359 417.4 355.8 418.1 352.6 418.7 349.4 419.3 346.2 419.9 342.9 420.7 339.7 421.8 336.5 422.9 333.3 423.5 330.1 423.8 326.9 423.7 323.7 423.3 320.5 422.9 317.2 422.4 314 422.3 310.8 422.7 307.6 423.5 304.4 423.8 301.2 423.7 298 423.5 294.7 423 291.5 422.5 288.3 422.1 285.1 422.9 281.9 423.4 278.7 423.7 275.5 424.9 272.2 426.3 269 427.4 265.8 428 262.6 429.4 259.4 430.5 256.2 432.9 253 435.4 249.7 437.7 246.5 439.8 243.3 441 240.1 441.4 236.9 441.1 233.7 440.3 230.5 439.3 227.2 437.6 224 435.9 220.8 435 217.6 433.8 214.4 432.3 211.2 430.4 208 428 204.7 426.4 201.5 425.3 198.3 424.9 195.1 424.7 191.9 424.6 188.7 425 185.5 425.7 182.2 426.4 179 426.6 175.8 426.9 172.6 427.2 169.4 427.4 166.2 427 163 426.7 159.7 426.4 156.5 425.7 153.3 424.6 150.1 423.8 146.9 422.7 143.7 421.5 140.5 419.9 137.3 418.4 134 417.5 130.8 416.9 127.6 416.6 124.4 416.1 121.2 415.7 118 415.6 114.8 415.5 111.5 415.2 108.3 414.9 105.1 415 101.9 414.9 98.7 414.8 95.5 414.7 92.3 414.5 89 414.2 85.8 413.9 82.6 413.5 79.4 412.7 79.4 412.3 82.6 412 85.8 411.8 89 411.6 92.3 411.4 95.5 411.3 98.7 411.3 101.9 411.3 105.1 411 108.3 410.8 111.5 410.6 114.8 410.5 118 410.2 121.2 409.7 124.4 409.3 127.6 408.7 130.8 407.8 134 406.3 137.3 404.8 140.5 403.6 143.7 402.4 146.9 401.6 150.1 400.5 153.3 399.8 156.5 399.5 159.7 399.3 163 398.9 166.2 399.1 169.4 399.4 172.6 399.7 175.8 399.8 179 400.6 182.2 401.2 185.5 401.7 188.7 401.6 191.9 401.3 195.1 400.9 198.3 399.9 201.5 398.2 204.7 395.9 208 394 211.2 392.4 214.4 391.2 217.6 390.4 220.8 388.6 224 386.9 227.2 385.9 230.5 385.2 233.7 384.8 236.9 385.2 240.1 386.5 243.3 388.5 246.5 390.9 249.7 393.4 253 395.7 256.2 396.9 259.4 398.2 262.6 398.9 265.8 399.9 269 401.4 272.2 402.6 275.5 402.9 278.7 403.4 281.9 404.2 285.1 403.8 288.3 403.2 291.5 402.8 294.7 402.6 298 402.5 301.2 402.8 304.4 403.6 307.6 403.9 310.8 403.8 314 403.4 317.2 402.9 320.5 402.5 323.7 402.4 326.9 402.7 330.1 403.4 333.3 404.4 336.5 405.5 339.7 406.3 342.9 407 346.2 407.6 349.4 408.2 352.6 408.8 355.8 409.6 359 410.7 362.2 411.1 365.4 411.3 368.7 411.3 371.9 411.4 375.1 411.6 378.3 411.8 381.5 412 384.7 412.3 387.9 412.7 391.2" fill="#efe1a9" fill-opacity="0.5" class="zr1-cls-0"></polygon>
<polygon points="413.5 391.2 413.9 387.9 414.2 384.7 414.5 381.5 414.7 378.3 414.8 375.1 414.9 371.9 415 368.7 415.1 365.4 415.6 362.2 416.6 359 417.4 355.8 418.1 352.6 418.7 349.4 419.3 346.2 419.9 342.9 420.7 339.7 421.8 336.5 422.9 333.3 423.5 330.1 423.8 326.9 423.7 323.7 423.3 320.5 422.9 317.2 422.4 314 422.3 310.8 422.7 307.6 423.5 304.4 423.8 301.2 423.7 298 423.5 294.7 423 291.5 422.5 288.3 422.1 285.1 422.9 281.9 423.4 278.7 423.7 275.5 424.9 272.2 426.3 269 427.4 265.8 428 262.6 429.4 259.4 430.5 256.2 432.9 253 435.4 249.7 437.7 246.5 439.8 243.3 441 240.1 441.4 236.9 441.1 233.7 440.3 230.5 439.3 227.2 437.6 224 435.9 220.8 435 217.6 433.8 214.4 432.3 211.2 430.4 208 428 204.7 426.4 201.5 425.3 198.3 424.9 195.1 424.7 191.9 424.6 188.7 425 185.5 425.7 182.2 426.4 179 426.6 175.8 426.9 172.6 427.2 169.4 427.4 166.2 427 163 426.7 159.7 426.4 156.5 425.7 153.3 424.6 150.1 423.8 146.9 422.7 143.7 421.5 140.5 419.9 137.3 418.4 134 417.5 130.8 416.9 127.6 416.6 124.4 416.1 121.2 415.7 118 415.6 114.8 415.5 111.5 415.2 108.3 414.9 105.1 415 101.9 414.9 98.7 414.8 95.5 414.7 92.3 414.5 89 414.2 85.8 413.9 82.6 413.5 79.4 412.7 79.4 412.3 82.6 412 85.8 411.8 89 411.6 92.3 411.4 95.5 411.3 98.7 411.3 101.9 411.3 105.1 411 108.3 410.8 111.5 410.6 114.8 410.5 118 410.2 121.2 409.7 124.4 409.3 127.6 408.7 130.8 407.8 134 406.3 137.3 404.8 140.5 403.6 143.7 402.4 146.9 401.6 150.1 400.5 153.3 399.8 156.5 399.5 159.7 399.3 163 398.9 166.2 399.1 169.4 399.4 172.6 399.7 175.8 399.8 179 400.6 182.2 401.2 185.5 401.7 188.7 401.6 191.9 401.3 195.1 400.9 198.3 399.9 201.5 398.2 204.7 395.9 208 394 211.2 392.4 214.4 391.2 217.6 390.4 220.8 388.6 224 386.9 227.2 385.9 230.5 385.2 233.7 384.8 236.9 385.2 240.1 386.5 243.3 388.5 246.5 390.9 249.7 393.4 253 395.7 256.2 396.9 259.4 398.2 262.6 398.9 265.8 399.9 269 401.4 272.2 402.6 275.5 402.9 278.7 403.4 281.9 404.2 285.1 403.8 288.3 403.2 291.5 402.8 294.7 402.6 298 402.5 301.2 402.8 304.4 403.6 307.6 403.9 310.8 403.8 314 403.4 317.2 402.9 320.5 402.5 323.7 402.4 326.9 402.7 330.1 403.4 333.3 404.4 336.5 405.5 339.7 406.3 342.9 407 346.2 407.6 349.4 408.2 352.6 408.8 355.8 409.6 359 410.7 362.2 411.1 365.4 411.3 368.7 411.3 371.9 411.4 375.1 411.6 378.3 411.8 381.5 412 384.7 412.3 387.9 412.7 391.2" fill="none" stroke="#efe1a9" class="zr1-cls-0"></polygon>
<polygon points="555.5 398 556.4 396.7 557.2 395.5 557.8 394.3 558.4 393 558.8 391.8 559 390.5 559.1 389.3 559.1 388 558.9 386.8 558.6 385.5 558.4 384.3 558.8 383 559.8 381.8 560.7 380.6 561.1 379.3 561.8 378.1 562.7 376.8 563.3 375.6 564.6 374.3 565.6 373.1 566.3 371.8 567.6 370.6 569.9 369.3 572 368.1 573.5 366.9 575 365.6 575.5 364.4 575.9 363.1 577.3 361.9 579.7 360.6 582.1 359.4 584 358.1 585.3 356.9 586.3 355.6 587.7 354.4 590.4 353.1 592.3 351.9 594.4 350.7 597.8 349.4 601.3 348.2 605.2 346.9 609.4 345.7 611.7 344.4 611.7 343.2 610 341.9 609.8 340.7 610.4 339.4 610.6 338.2 609.4 337 608.5 335.7 607 334.5 606.8 333.2 606.6 332 605.5 330.7 605.9 329.5 605.3 328.2 605 327 605.9 325.7 605.9 324.5 604.7 323.3 601.5 322 598.3 320.8 595.1 319.5 592.7 318.3 589.9 317 586.5 315.8 583 314.5 580.9 313.3 579.7 312 578.4 310.8 578.1 309.6 577.5 308.3 576.7 307.1 576.3 305.8 578 304.6 580.1 303.3 582 302.1 583.3 300.8 583.9 299.6 583.4 298.3 582.9 297.1 583.1 295.9 582.7 294.6 581 293.4 579.5 292.1 577.9 290.9 576.3 289.6 574.1 288.4 571 287.1 567.3 285.9 564.6 284.6 563 283.4 562 282.2 560.9 280.9 559.4 279.7 557.7 278.4 555.7 277.2 553 277.2 551 278.4 549.3 279.7 547.9 280.9 546.8 282.2 545.8 283.4 544.1 284.6 541.5 285.9 537.7 287.1 534.7 288.4 532.4 289.6 530.8 290.9 529.2 292.1 527.8 293.4 526.1 294.6 525.6 295.9 525.8 297.1 525.3 298.3 524.8 299.6 525.5 300.8 526.8 302.1 528.6 303.3 530.8 304.6 532.5 305.8 532 307.1 531.2 308.3 530.6 309.6 530.3 310.8 529.1 312 527.8 313.3 525.8 314.5 522.2 315.8 518.8 317 516.1 318.3 513.6 319.5 510.4 320.8 507.2 322 504 323.3 502.8 324.5 502.9 325.7 503.7 327 503.4 328.2 502.8 329.5 503.2 330.7 502.1 332 502 333.2 501.7 334.5 500.3 335.7 499.4 337 498.2 338.2 498.3 339.4 499 340.7 498.7 341.9 497 343.2 497.1 344.4 499.4 345.7 503.6 346.9 507.5 348.2 511 349.4 514.4 350.7 516.5 351.9 518.4 353.1 521 354.4 522.4 355.6 523.4 356.9 524.7 358.1 526.7 359.4 529.1 360.6 531.5 361.9 532.8 363.1 533.2 364.4 533.7 365.6 535.2 366.9 536.8 368.1 538.9 369.3 541.1 370.6 542.5 371.8 543.1 373.1 544.2 374.3 545.4 375.6 546.1 376.8 547 378.1 547.6 379.3 548.1 380.6 548.9 381.8 549.9 383 550.4 384.3 550.2 385.5 549.9 386.8 549.7 388 549.6 389.3 549.8 390.5 550 391.8 550.4 393 550.9 394.3 551.6 395.5 552.4 396.7 553.3 398" fill="#b8d2c7" fill-opacity="0.5" class="zr1-cls-0"></polygon>
<polygon points="555.5 398 556.4 396.7 557.2 395.5 557.8 394.3 558.4 393 558.8 391.8 559 390.5 559.1 389.3 559.1 388 558.9 386.8 558.6 385.5 558.4 384.3 558.8 383 559.8 381.8 560.7 380.6 561.1 379.3 561.8 378.1 562.7 376.8 563.3 375.6 564.6 374.3 565.6 373.1 566.3 371.8 567.6 370.6 569.9 369.3 572 368.1 573.5 366.9 575 365.6 575.5 364.4 575.9 363.1 577.3 361.9 579.7 360.6 582.1 359.4 584 358.1 585.3 356.9 586.3 355.6 587.7 354.4 590.4 353.1 592.3 351.9 594.4 350.7 597.8 349.4 601.3 348.2 605.2 346.9 609.4 345.7 611.7 344.4 611.7 343.2 610 341.9 609.8 340.7 610.4 339.4 610.6 338.2 609.4 337 608.5 335.7 607 334.5 606.8 333.2 606.6 332 605.5 330.7 605.9 329.5 605.3 328.2 605 327 605.9 325.7 605.9 324.5 604.7 323.3 601.5 322 598.3 320.8 595.1 319.5 592.7 318.3 589.9 317 586.5 315.8 583 314.5 580.9 313.3 579.7 312 578.4 310.8 578.1 309.6 577.5 308.3 576.7 307.1 576.3 305.8 578 304.6 580.1 303.3 582 302.1 583.3 300.8 583.9 299.6 583.4 298.3 582.9 297.1 583.1 295.9 582.7 294.6 581 293.4 579.5 292.1 577.9 290.9 576.3 289.6 574.1 288.4 571 287.1 567.3 285.9 564.6 284.6 563 283.4 562 282.2 560.9 280.9 559.4 279.7 557.7 278.4 555.7 277.2 553 277.2 551 278.4 549.3 279.7 547.9 280.9 546.8 282.2 545.8 283.4 544.1 284.6 541.5 285.9 537.7 287.1 534.7 288.4 532.4 289.6 530.8 290.9 529.2 292.1 527.8 293.4 526.1 294.6 525.6 295.9 525.8 297.1 525.3 298.3 524.8 299.6 525.5 300.8 526.8 302.1 528.6 303.3 530.8 304.6 532.5 305.8 532 307.1 531.2 308.3 530.6 309.6 530.3 310.8 529.1 312 527.8 313.3 525.8 314.5 522.2 315.8 518.8 317 516.1 318.3 513.6 319.5 510.4 320.8 507.2 322 504 323.3 502.8 324.5 502.9 325.7 503.7 327 503.4 328.2 502.8 329.5 503.2 330.7 502.1 332 502 333.2 501.7 334.5 500.3 335.7 499.4 337 498.2 338.2 498.3 339.4 499 340.7 498.7 341.9 497 343.2 497.1 344.4 499.4 345.7 503.6 346.9 507.5 348.2 511 349.4 514.4 350.7 516.5 351.9 518.4 353.1 521 354.4 522.4 355.6 523.4 356.9 524.7 358.1 526.7 359.4 529.1 360.6 531.5 361.9 532.8 363.1 533.2 364.4 533.7 365.6 535.2 366.9 536.8 368.1 538.9 369.3 541.1 370.6 542.5 371.8 543.1 373.1 544.2 374.3 545.4 375.6 546.1 376.8 547 378.1 547.6 379.3 548.1 380.6 548.9 381.8 549.9 383 550.4 384.3 550.2 385.5 549.9 386.8 549.7 388 549.6 389.3 549.8 390.5 550 391.8 550.4 393 550.9 394.3 551.6 395.5 552.4 396.7 553.3 398" fill="none" stroke="#b8d2c7" class="zr1-cls-0"></polygon>
<path d="M-5 -5l362.3438 0l0 24l-362.3438 0Z" transform="translate(143.8281 34)" fill="rgb(0,0,0)" fill-opacity="0" stroke="#b7b9be" stroke-width="0" class="zr1-cls-0"></path>
<path d="M3.5 0L21.5 0A3.5 3.5 0 0 1 25 3.5L25 10.5A3.5 3.5 0 0 1 21.5 14L3.5 14A3.5 3.5 0 0 1 0 10.5L0 3.5A3.5 3.5 0 0 1 3.5 0" transform="translate(143.8281 34)" fill="#e01f54" class="zr1-cls-0"></path>
<text dominant-baseline="central" text-anchor="start" style="font-size:12px;font-family:sans-serif;" x="30" y="7" transform="translate(143.8281 34)" fill="#333333">FrontEnd</text>
<path d="M0 0l80.688 0l0 14l-80.688 0Z" transform="translate(143.8281 34)" fill="none" class="zr1-cls-1"></path>
<path d="M3.5 0L21.5 0A3.5 3.5 0 0 1 25 3.5L25 10.5A3.5 3.5 0 0 1 21.5 14L3.5 14A3.5 3.5 0 0 1 0 10.5L0 3.5A3.5 3.5 0 0 1 3.5 0" transform="translate(232.5161 34)" fill="#001852" class="zr1-cls-0"></path>
<text dominant-baseline="central" text-anchor="start" style="font-size:12px;font-family:sans-serif;" x="30" y="7" transform="translate(232.5161 34)" fill="#333333">BackEnd</text>
<path d="M0 0l79.128 0l0 14l-79.128 0Z" transform="translate(232.5161 34)" fill="none" class="zr1-cls-1"></path>
<path d="M3.5 0L21.5 0A3.5 3.5 0 0 1 25 3.5L25 10.5A3.5 3.5 0 0 1 21.5 14L3.5 14A3.5 3.5 0 0 1 0 10.5L0 3.5A3.5 3.5 0 0 1 3.5 0" transform="translate(319.644 34)" fill="#efe1a9" class="zr1-cls-0"></path>
<text dominant-baseline="central" text-anchor="start" style="font-size:12px;font-family:sans-serif;" x="30" y="7" transform="translate(319.644 34)" fill="#333333">Algorithm</text>
<path d="M0 0l83.4719 0l0 14l-83.4719 0Z" transform="translate(319.644 34)" fill="none" class="zr1-cls-1"></path>
<path d="M3.5 0L21.5 0A3.5 3.5 0 0 1 25 3.5L25 10.5A3.5 3.5 0 0 1 21.5 14L3.5 14A3.5 3.5 0 0 1 0 10.5L0 3.5A3.5 3.5 0 0 1 3.5 0" transform="translate(411.116 34)" fill="#b8d2c7" class="zr1-cls-0"></path>
<text dominant-baseline="central" text-anchor="start" style="font-size:12px;font-family:sans-serif;" x="30" y="7" transform="translate(411.116 34)" fill="#333333">Operation</text>
<path d="M0 0l85.0559 0l0 14l-85.0559 0Z" transform="translate(411.116 34)" fill="none" class="zr1-cls-1"></path>
<path d="M-102.587 -5l205.174 0l0 24l-205.174 0Z" transform="translate(320 10)" fill="rgb(0,0,0)" fill-opacity="0" stroke="#3c3c41" stroke-width="0" class="zr1-cls-0"></path>
<text dominant-baseline="central" text-anchor="middle" style="font-size:14px;font-family:sans-serif;font-weight:bold;" y="7" transform="translate(320 10)" fill="#333333">互联网平均年薪分布(单位:万元)</text>
<style ><![CDATA[
.zr1-cls-0:hover {
pointer-events:none;
}
.zr1-cls-1:hover {
cursor:pointer;
fill:rgba(0,0,0,0);
}

]]>

</style>
</svg>