<svg width="640" height="480" xmlns="http://www.w3.org/2000/svg" xmlns:xlink="http://www.w3.org/1999/xlink" version="1.1" baseProfile="full" viewBox="0 0 640 480">
<rect width="640" height="480" x="0" y="0" fill="rgb(255,255,255)"></rect>
<text dominant-baseline="central" text-anchor="middle" style="font-size:12px;font-family:sans-serif;" y="-6" transform="matrix(0,-1,1,0,20,249.5)" fill="#333">气温(℃)</text>
<path d="M60.5 433L60.5 66" fill="none" stroke="#333" stroke-linecap="round" class="zr3-cls-3"></path>
<text dominant-baseline="central" text-anchor="middle" style="font-size:12px;font-family:sans-serif;" y="6" transform="translate(342.5 463)" fill="#333">城市</text>
<path d="M60 433.5L625 433.5" fill="none" stroke="#333" stroke-linecap="round" class="zr3-cls-3"></path>
<path d="M60 433.5L55 433.5" fill="none" stroke="#333" class="zr3-cls-3"></path>
<path d="M60 372.5L55 372.5" fill="none" stroke="#333" class="zr3-cls-3"></path>
<path d="M60 310.5L55 310.5" fill="none" stroke="#333" class="zr3-cls-3"></path>
<path d="M60 249.5L55 249.5" fill="none" stroke="#333" class="zr3-cls-3"></path>
<path d="M60 188.5L55 188.5" fill="none" stroke="#333" class="zr3-cls-3"></path>
<path d="M60 127.5L55 127.5" fill="none" stroke="#333" class="zr3-cls-3"></path>
<path d="M60 66.5L55 66.5" fill="none" stroke="#333" class="zr3-cls-3"></path>
<path d="M60.5 433L60.5 438" fill="none" stroke="#333" class="zr3-cls-3"></path>
<path d="M130.5 433L130.5 438" fill="none" stroke="#333" class="zr3-cls-3"></path>
<path d="M201.5 433L201.5 438" fill="none" stroke="#333" class="zr3-cls-3"></path>
<path d="M272.5 433L272.5 438" fill="none" stroke="#333" class="zr3-cls-3"></path>
<path d="M342.5 433L342.5 438" fill="none" stroke="#333" class="zr3-cls-3"></path>
<path d="M413.5 433L413.5 438" fill="none" stroke="#333" class="zr3-cls-3"></path>
<path d="M484.5 433L484.5 438" fill="none" stroke="#333" class="zr3-cls-3"></path>
<path d="M554.5 433L554.5 438" fill="none" stroke="#333" class="zr3-cls-3"></path>
<path d="M625.5 433L625.5 438" fill="none" stroke="#333" class="zr3-cls-3"></path>
<text dominant-baseline="central" text-anchor="end" style="font-size:12px;font-family:sans-serif;" transform="translate(52 433)" fill="#333">0</text>
<text dominant-baseline="central" text-anchor="end" style="font-size:12px;font-family:sans-serif;" transform="translate(52 371.8333)" fill="#333">5</text>
<text dominant-baseline="central" text-anchor="end" style="font-size:12px;font-family:sans-serif;" transform="translate(52 310.6667)" fill="#333">10</text>
<text dominant-baseline="central" text-anchor="end" style="font-size:12px;font-family:sans-serif;" transform="translate(52 249.5)" fill="#333">15</text>
<text dominant-baseline="central" text-anchor="end" style="font-size:12px;font-family:sans-serif;" transform="translate(52 188.3333)" fill="#333">20</text>
<text dominant-baseline="central" text-anchor="end" style="font-size:12px;font-family:sans-serif;" transform="translate(52 127.1667)" fill="#333">25</text>
<text dominant-baseline="central" text-anchor="end" style="font-size:12px;font-family:sans-serif;" transform="translate(52 66)" fill="#333">30</text>
<text dominant-baseline="central" text-anchor="middle" style="font-size:12px;font-family:sans-serif;" y="6" transform="translate(95.3125 441)" fill="#333">北京</text>
<text dominant-baseline="central" text-anchor="middle" style="font-size:12px;font-family:sans-serif;" y="6" transform="translate(165.9375 441)" fill="#333">上海</text>
<text dominant-baseline="central" text-anchor="middle" style="font-size:12px;font-family:sans-serif;" y="6" transform="translate(236.5625 441)" fill="#333">广州</text>
<text dominant-baseline="central" text-anchor="middle" style="font-size:12px;font-family:sans-serif;" y="6" transform="translate(307.1875 441)" fill="#333">深圳</text>
<text dominant-baseline="central" text-anchor="middle" style="font-size:12px;font-family:sans-serif;" y="6" transform="translate(377.8125 441)" fill="#333">杭州</text>
<text dominant-baseline="central" text-anchor="middle" style="font-size:12px;font-family:sans-serif;" y="6" transform="translate(448.4375 441)" fill="#333">成都</text>
<text dominant-baseline="central" text-anchor="middle" style="font-size:12px;font-family:sans-serif;" y="6" transform="translate(519.0625 441)" fill="#333">武汉</text>
<text dominant-baseline="central" text-anchor="middle" style="font-size:12px;font-family:sans-serif;" y="6" transform="translate(589.6875 441)" fill="#333">南京</text>
<path d="M70.9469 66l48.7313 0l0 367l-48.7312 0Z" fill="rgb(180,180,180)" fill-opacity="0.2" class="zr3-cls-3"></path>
<path d="M141.5719 66l48.7313 0l0 367l-48.7312 0Z" fill="rgb(180,180,180)" fill-opacity="0.2" class="zr3-cls-3"></path>
<path d="M212.1969 66l48.7313 0l0 367l-48.7312 0Z" fill="rgb(180,180,180)" fill-opacity="0.2" class="zr3-cls-3"></path>
<path d="M282.8219 66l48.7313 0l0 367l-48.7312 0Z" fill="rgb(180,180,180)" fill-opacity="0.2" class="zr3-cls-3"></path>
<path d="M353.4469 66l48.7313 0l0 367l-48.7312 0Z" fill="rgb(180,180,180)" fill-opacity="0.2" class="zr3-cls-3"></path>
<path d="M424.0719 66l48.7313 0l0 367l-48.7312 0Z" fill="rgb(180,180,180)" fill-opacity="0.2" class="zr3-cls-3"></path>
<path d="M494.6969 66l48.7313 0l0 367l-48.7312 0Z" fill="rgb(180,180,180)" fill-opacity="0.2" class="zr3-cls-3"></path>
<path d="M565.3219 66l48.7313 0l0 367l-48.7312 0Z" fill="rgb(180,180,180)" fill-opacity="0.2" class="zr3-cls-3"></path>
<path d="M70.9469 433l48.7313 0l0 -318.0667l-48.7312 0Z" fill="#e01f54" class="zr3-cls-4"></path>
<path d="M141.5719 433l48.7313 0l0 -342.5333l-48.7313 0Z" fill="#e01f54" class="zr3-cls-4"></path>
<path d="M212.1969 433l48.7313 0l0 -367l-48.7313 0Z" fill="#e01f54" class="zr3-cls-4"></path>
<path d="M282.8219 433l48.7312 0l0 -354.7667l-48.7312 0Z" fill="#e01f54" class="zr3-cls-4"></path>
<path d="M353.4469 433l48.7312 0l0 -330.3l-48.7312 0Z" fill="#e01f54" class="zr3-cls-4"></path>
<path d="M424.0719 433l48.7312 0l0 -305.8333l-48.7312 0Z" fill="#e01f54" class="zr3-cls-4"></path>
<path d="M494.6969 433l48.7313 0l0 -342.5333l-48.7313 0Z" fill="#e01f54" class="zr3-cls-4"></path>
<path d="M565.3219 433l48.7313 0l0 -318.0667l-48.7313 0Z" fill="#e01f54" class="zr3-cls-4"></path>
<text dominant-baseline="central" text-anchor="middle" style="font-size:12px;font-family:sans-serif;" transform="translate(95.3125 273.9667)" fill="#eee" stroke="#e01f54" stroke-width="2" paint-order="stroke" stroke-miterlimit="2">26</text>
<text dominant-baseline="central" text-anchor="middle" style="font-size:12px;font-family:sans-serif;" transform="translate(165.9375 261.7333)" fill="#eee" stroke="#e01f54" stroke-width="2" paint-order="stroke" stroke-miterlimit="2">28</text>
<text dominant-baseline="central" text-anchor="middle" style="font-size:12px;font-family:sans-serif;" transform="translate(236.5625 249.5)" fill="#eee" stroke="#e01f54" stroke-width="2" paint-order="stroke" stroke-miterlimit="2">30</text>
<text dominant-baseline="central" text-anchor="middle" style="font-size:12px;font-family:sans-serif;" transform="translate(307.1875 255.6167)" fill="#eee" stroke="#e01f54" stroke-width="2" paint-order="stroke" stroke-miterlimit="2">29</text>
<text dominant-baseline="central" text-anchor="middle" style="font-size:12px;font-family:sans-serif;" transform="translate(377.8125 267.85)" fill="#eee" stroke="#e01f54" stroke-width="2" paint-order="stroke" stroke-miterlimit="2">27</text>
<text dominant-baseline="central" text-anchor="middle" style="font-size:12px;font-family:sans-serif;" transform="translate(448.4375 280.0833)" fill="#eee" stroke="#e01f54" stroke-width="2" paint-order="stroke" stroke-miterlimit="2">25</text>
<text dominant-baseline="central" text-anchor="middle" style="font-size:12px;font-family:sans-serif;" transform="translate(519.0625 261.7333)" fill="#eee" stroke="#e01f54" stroke-width="2" paint-order="stroke" stroke-miterlimit="2">28</text>
<text dominant-baseline="central" text-anchor="middle" style="font-size:12px;font-family:sans-serif;" transform="translate(589.6875 273.9667)" fill="#eee" stroke="#e01f54" stroke-width="2" paint-order="stroke" stroke-miterlimit="2">26</text>
<path d="M-5 -5l83.056 0l0 24l-83.056 0Z" transform="translate(283.472 34)" fill="rgb(0,0,0)" fill-opacity="0" stroke="#b7b9be" stroke-width="0" class="zr3-cls-3"></path>
<path d="M3.5 0L21.5 0A3.5 3.5 0 0 1 25 3.5L25 10.5A3.5 3.5 0 0 1 21.5 14L3.5 14A3.5 3.5 0 0 1 0 10.5L0 3.5A3.5 3.5 0 0 1 3.5 0" transform="translate(283.472 34)" fill="#e01f54" class="zr3-cls-3"></path>
<text dominant-baseline="central" text-anchor="start" style="font-size:12px;font-family:sans-serif;" x="30" y="7" transform="translate(283.472 34)" fill="#333333">气温(℃)</text>
<path d="M0 0l73.056 0l0 14l-73.056 0Z" transform="translate(283.472 34)" fill="none" class="zr3-cls-5"></path>
<path d="M-54 -5l108 0l0 24l-108 0Z" transform="translate(320 10)" fill="rgb(0,0,0)" fill-opacity="0" stroke="#3c3c41" stroke-width="0" class="zr3-cls-3"></path>
<text dominant-baseline="central" text-anchor="middle" style="font-size:14px;font-family:sans-serif;font-weight:bold;" y="7" transform="translate(320 10)" fill="#333333">各城市平均气温</text>
<style ><![CDATA[
.zr3-cls-3:hover {
pointer-events:none;
}
.zr3-cls-4:hover {
cursor:pointer;
fill:rgba(246,34,92,1);
}
.zr3-cls-5:hover {
cursor:pointer;
fill:rgba(0,0,0,0);
}

]]>

</style>
</svg>