<svg width="640" height="480" xmlns="http://www.w3.org/2000/svg" xmlns:xlink="http://www.w3.org/1999/xlink" version="1.1" baseProfile="full" viewBox="0 0 640 480">
<rect width="640" height="480" x="0" y="0" fill="rgb(255,255,255)"></rect>
<text dominant-baseline="central" text-anchor="middle" style="font-size:12px;font-family:sans-serif;" y="-6" transform="matrix(0,-1,1,0,20,249.5)" fill="#333">城市</text>
<path d="M63.5 433L63.5 66" fill="none" stroke="#333" stroke-linecap="round" class="zr1-cls-0"></path>
<text dominant-baseline="central" text-anchor="middle" style="font-size:12px;font-family:sans-serif;" y="6" transform="translate(343.95 463)" fill="#333">气温(℃)</text>
<path d="M62.9 433.5L625 433.5" fill="none" stroke="#333" stroke-linecap="round" class="zr1-cls-0"></path>
<path d="M62.9 433.5L57.9 433.5" fill="none" stroke="#333" class="zr1-cls-0"></path>
<path d="M62.9 387.5L57.9 387.5" fill="none" stroke="#333" class="zr1-cls-0"></path>
<path d="M62.9 341.5L57.9 341.5" fill="none" stroke="#333" class="zr1-cls-0"></path>
<path d="M62.9 295.5L57.9 295.5" fill="none" stroke="#333" class="zr1-cls-0"></path>
<path d="M62.9 249.5L57.9 249.5" fill="none" stroke="#333" class="zr1-cls-0"></path>
<path d="M62.9 203.5L57.9 203.5" fill="none" stroke="#333" class="zr1-cls-0"></path>
<path d="M62.9 158.5L57.9 158.5" fill="none" stroke="#333" class="zr1-cls-0"></path>
<path d="M62.9 112.5L57.9 112.5" fill="none" stroke="#333" class="zr1-cls-0"></path>
<path d="M62.9 66.5L57.9 66.5" fill="none" stroke="#333" class="zr1-cls-0"></path>
<path d="M63.5 433L63.5 438" fill="none" stroke="#333" class="zr1-cls-0"></path>
<path d="M156.5 433L156.5 438" fill="none" stroke="#333" class="zr1-cls-0"></path>
<path d="M250.5 433L250.5 438" fill="none" stroke="#333" class="zr1-cls-0"></path>
<path d="M344.5 433L344.5 438" fill="none" stroke="#333" class="zr1-cls-0"></path>
<path d="M437.5 433L437.5 438" fill="none" stroke="#333" class="zr1-cls-0"></path>
<path d="M531.5 433L531.5 438" fill="none" stroke="#333" class="zr1-cls-0"></path>
<path d="M625.5 433L625.5 438" fill="none" stroke="#333" class="zr1-cls-0"></path>
<text dominant-baseline="central" text-anchor="end" style="font-size:12px;font-family:sans-serif;" transform="translate(54.9 410.0625)" fill="#333">北京</text>
<text dominant-baseline="central" text-anchor="end" style="font-size:12px;font-family:sans-serif;" transform="translate(54.9 364.1875)" fill="#333">上海</text>
<text dominant-baseline="central" text-anchor="end" style="font-size:12px;font-family:sans-serif;" transform="translate(54.9 318.3125)" fill="#333">广州</text>
<text dominant-baseline="central" text-anchor="end" style="font-size:12px;font-family:sans-serif;" transform="translate(54.9 272.4375)" fill="#333">深圳</text>
<text dominant-baseline="central" text-anchor="end" style="font-size:12px;font-family:sans-serif;" transform="translate(54.9 226.5625)" fill="#333">杭州</text>
<text dominant-baseline="central" text-anchor="end" style="font-size:12px;font-family:sans-serif;" transform="translate(54.9 180.6875)" fill="#333">成都</text>
<text dominant-baseline="central" text-anchor="end" style="font-size:12px;font-family:sans-serif;" transform="translate(54.9 134.8125)" fill="#333">武汉</text>
<text dominant-baseline="central" text-anchor="end" style="font-size:12px;font-family:sans-serif;" transform="translate(54.9 88.9375)" fill="#333">南京</text>
<text dominant-baseline="central" text-anchor="middle" style="font-size:12px;font-family:sans-serif;" y="6" transform="translate(62.9 441)" fill="#333">0</text>
<text dominant-baseline="central" text-anchor="middle" style="font-size:12px;font-family:sans-serif;" y="6" transform="translate(156.5833 441)" fill="#333">5</text>
<text dominant-baseline="central" text-anchor="middle" style="font-size:12px;font-family:sans-serif;" y="6" transform="translate(250.2667 441)" fill="#333">10</text>
<text dominant-baseline="central" text-anchor="middle" style="font-size:12px;font-family:sans-serif;" y="6" transform="translate(343.95 441)" fill="#333">15</text>
<text dominant-baseline="central" text-anchor="middle" style="font-size:12px;font-family:sans-serif;" y="6" transform="translate(437.6333 441)" fill="#333">20</text>
<text dominant-baseline="central" text-anchor="middle" style="font-size:12px;font-family:sans-serif;" y="6" transform="translate(531.3167 441)" fill="#333">25</text>
<text dominant-baseline="central" text-anchor="middle" style="font-size:12px;font-family:sans-serif;" y="6" transform="translate(625 441)" fill="#333">30</text>
<path d="M62.9 394.2356l487.1533 0l0 31.6538l-487.1533 0Z" fill="#e01f54" class="zr1-cls-1"></path>
<path d="M62.9 348.3606l524.6267 0l0 31.6538l-524.6267 0Z" fill="#e01f54" class="zr1-cls-1"></path>
<path d="M62.9 302.4856l562.1 0l0 31.6538l-562.1 0Z" fill="#e01f54" class="zr1-cls-1"></path>
<path d="M62.9 256.6106l543.3633 0l0 31.6538l-543.3633 0Z" fill="#e01f54" class="zr1-cls-1"></path>
<path d="M62.9 210.7356l505.89 0l0 31.6538l-505.89 0Z" fill="#e01f54" class="zr1-cls-1"></path>
<path d="M62.9 164.8606l468.4167 0l0 31.6538l-468.4167 0Z" fill="#e01f54" class="zr1-cls-1"></path>
<path d="M62.9 118.9856l524.6267 0l0 31.6538l-524.6267 0Z" fill="#e01f54" class="zr1-cls-1"></path>
<path d="M62.9 73.1106l487.1533 0l0 31.6538l-487.1533 0Z" fill="#e01f54" class="zr1-cls-1"></path>
<text dominant-baseline="central" text-anchor="middle" style="font-size:12px;font-family:sans-serif;" transform="translate(306.4767 410.0625)" fill="#eee" stroke="#e01f54" stroke-width="2" paint-order="stroke" stroke-miterlimit="2">26</text>
<text dominant-baseline="central" text-anchor="middle" style="font-size:12px;font-family:sans-serif;" transform="translate(325.2133 364.1875)" fill="#eee" stroke="#e01f54" stroke-width="2" paint-order="stroke" stroke-miterlimit="2">28</text>
<text dominant-baseline="central" text-anchor="middle" style="font-size:12px;font-family:sans-serif;" transform="translate(343.95 318.3125)" fill="#eee" stroke="#e01f54" stroke-width="2" paint-order="stroke" stroke-miterlimit="2">30</text>
<text dominant-baseline="central" text-anchor="middle" style="font-size:12px;font-family:sans-serif;" transform="translate(334.5817 272.4375)" fill="#eee" stroke="#e01f54" stroke-width="2" paint-order="stroke" stroke-miterlimit="2">29</text>
<text dominant-baseline="central" text-anchor="middle" style="font-size:12px;font-family:sans-serif;" transform="translate(315.845 226.5625)" fill="#eee" stroke="#e01f54" stroke-width="2" paint-order="stroke" stroke-miterlimit="2">27</text>
<text dominant-baseline="central" text-anchor="middle" style="font-size:12px;font-family:sans-serif;" transform="translate(297.1083 180.6875)" fill="#eee" stroke="#e01f54" stroke-width="2" paint-order="stroke" stroke-miterlimit="2">25</text>
<text dominant-baseline="central" text-anchor="middle" style="font-size:12px;font-family:sans-serif;" transform="translate(325.2133 134.8125)" fill="#eee" stroke="#e01f54" stroke-width="2" paint-order="stroke" stroke-miterlimit="2">28</text>
<text dominant-baseline="central" text-anchor="middle" style="font-size:12px;font-family:sans-serif;" transform="translate(306.4767 88.9375)" fill="#eee" stroke="#e01f54" stroke-width="2" paint-order="stroke" stroke-miterlimit="2">26</text>
<path d="M-5 -5l83.056 0l0 24l-83.056 0Z" transform="translate(283.472 34)" fill="rgb(0,0,0)" fill-opacity="0" stroke="#b7b9be" stroke-width="0" class="zr1-cls-0"></path>
<path d="M3.5 0L21.5 0A3.5 3.5 0 0 1 25 3.5L25 10.5A3.5 3.5 0 0 1 21.5 14L3.5 14A3.5 3.5 0 0 1 0 10.5L0 3.5A3.5 3.5 0 0 1 3.5 0" transform="translate(283.472 34)" fill="#e01f54" class="zr1-cls-0"></path>
<text dominant-baseline="central" text-anchor="start" style="font-size:12px;font-family:sans-serif;" x="30" y="7" transform="translate(283.472 34)" fill="#333333">气温(℃)</text>
<path d="M0 0l73.056 0l0 14l-73.056 0Z" transform="translate(283.472 34)" fill="none" class="zr1-cls-2"></path>
<path d="M-54 -5l108 0l0 24l-108 0Z" transform="translate(320 10)" fill="rgb(0,0,0)" fill-opacity="0" stroke="#3c3c41" stroke-width="0" class="zr1-cls-0"></path>
<text dominant-baseline="central" text-anchor="middle" style="font-size:14px;font-family:sans-serif;font-weight:bold;" y="7" transform="translate(320 10)" fill="#333333">各城市平均气温</text>
<style ><![CDATA[
.zr1-cls-0:hover {
pointer-events:none;
}
.zr1-cls-1:hover {
cursor:pointer;
fill:rgba(246,34,92,1);
}
.zr1-cls-2:hover {
cursor:pointer;
fill:rgba(0,0,0,0);
}

]]>

</style>
</svg>