<svg width="640" height="480" xmlns="http://www.w3.org/2000/svg" xmlns:xlink="http://www.w3.org/1999/xlink" version="1.1" baseProfile="full" viewBox="0 0 640 480">
<rect width="640" height="480" x="0" y="0" fill="rgb(255,255,255)"></rect>
<path d="M35 37l525 0l0 408l-525 0Z" fill="rgb(0,0,0)" fill-opacity="0" stroke="#b7b9be" class="zr1-cls-0"></path>
<path d="M35 445l525 0l0 -58.2857l-525 0Z" fill="rgb(250,250,250)" fill-opacity="0.3" class="zr1-cls-0"></path>
<path d="M35 386.7143l525 0l0 -58.2857l-525 0Z" fill="rgb(200,200,200)" fill-opacity="0.3" class="zr1-cls-0"></path>
<path d="M35 328.4286l525 0l0 -58.2857l-525 0Z" fill="rgb(250,250,250)" fill-opacity="0.3" class="zr1-cls-0"></path>
<path d="M35 270.1429l525 0l0 -58.2857l-525 0Z" fill="rgb(200,200,200)" fill-opacity="0.3" class="zr1-cls-0"></path>
<path d="M35 211.8571l525 0l0 -58.2857l-525 0Z" fill="rgb(250,250,250)" fill-opacity="0.3" class="zr1-cls-0"></path>
<path d="M35 153.5714l525 0l0 -58.2857l-525 0Z" fill="rgb(200,200,200)" fill-opacity="0.3" class="zr1-cls-0"></path>
<path d="M35 95.2857l525 0l0 -58.2857l-525 0Z" fill="rgb(250,250,250)" fill-opacity="0.3" class="zr1-cls-0"></path>
<path d="M35 445.5L560 445.5" fill="none" stroke="#ccc" class="zr1-cls-0"></path>
<path d="M35 386.5L560 386.5" fill="none" stroke="#ccc" class="zr1-cls-0"></path>
<path d="M35 328.5L560 328.5" fill="none" stroke="#ccc" class="zr1-cls-0"></path>
<path d="M35 270.5L560 270.5" fill="none" stroke="#ccc" class="zr1-cls-0"></path>
<path d="M35 212.5L560 212.5" fill="none" stroke="#ccc" class="zr1-cls-0"></path>
<path d="M35 153.5L560 153.5" fill="none" stroke="#ccc" class="zr1-cls-0"></path>
<path d="M35 95.5L560 95.5" fill="none" stroke="#ccc" class="zr1-cls-0"></path>
<path d="M35 37.5L560 37.5" fill="none" stroke="#ccc" class="zr1-cls-0"></path>
<path d="M35 37l75 0l0 408l-75 0Z" fill="rgb(250,250,250)" fill-opacity="0.3" class="zr1-cls-0"></path>
<path d="M110 37l75 0l0 408l-75 0Z" fill="rgb(200,200,200)" fill-opacity="0.3" class="zr1-cls-0"></path>
<path d="M185 37l75 0l0 408l-75 0Z" fill="rgb(250,250,250)" fill-opacity="0.3" class="zr1-cls-0"></path>
<path d="M260 37l75 0l0 408l-75 0Z" fill="rgb(200,200,200)" fill-opacity="0.3" class="zr1-cls-0"></path>
<path d="M335 37l75 0l0 408l-75 0Z" fill="rgb(250,250,250)" fill-opacity="0.3" class="zr1-cls-0"></path>
<path d="M410 37l75 0l0 408l-75 0Z" fill="rgb(200,200,200)" fill-opacity="0.3" class="zr1-cls-0"></path>
<path d="M485 37l75 0l0 408l-75 0Z" fill="rgb(250,250,250)" fill-opacity="0.3" class="zr1-cls-0"></path>
<path d="M35.5 37L35.5 445" fill="none" stroke="#ccc" class="zr1-cls-0"></path>
<path d="M110.5 37L110.5 445" fill="none" stroke="#ccc" class="zr1-cls-0"></path>
<path d="M185.5 37L185.5 445" fill="none" stroke="#ccc" class="zr1-cls-0"></path>
<path d="M260.5 37L260.5 445" fill="none" stroke="#ccc" class="zr1-cls-0"></path>
<path d="M335.5 37L335.5 445" fill="none" stroke="#ccc" class="zr1-cls-0"></path>
<path d="M410.5 37L410.5 445" fill="none" stroke="#ccc" class="zr1-cls-0"></path>
<path d="M485.5 37L485.5 445" fill="none" stroke="#ccc" class="zr1-cls-0"></path>
<path d="M560.5 37L560.5 445" fill="none" stroke="#ccc" class="zr1-cls-0"></path>
<path d="M35.5 445L35.5 37" fill="none" stroke="#333" stroke-linecap="round" class="zr1-cls-0"></path>
<path d="M35 445.5L560 445.5" fill="none" stroke="#333" stroke-linecap="round" class="zr1-cls-0"></path>
<path d="M35 445.5L30 445.5" fill="none" stroke="#333" class="zr1-cls-0"></path>
<path d="M35 386.5L30 386.5" fill="none" stroke="#333" class="zr1-cls-0"></path>
<path d="M35 328.5L30 328.5" fill="none" stroke="#333" class="zr1-cls-0"></path>
<path d="M35 270.5L30 270.5" fill="none" stroke="#333" class="zr1-cls-0"></path>
<path d="M35 212.5L30 212.5" fill="none" stroke="#333" class="zr1-cls-0"></path>
<path d="M35 153.5L30 153.5" fill="none" stroke="#333" class="zr1-cls-0"></path>
<path d="M35 95.5L30 95.5" fill="none" stroke="#333" class="zr1-cls-0"></path>
<path d="M35 37.5L30 37.5" fill="none" stroke="#333" class="zr1-cls-0"></path>
<path d="M35.5 445L35.5 450" fill="none" stroke="#333" class="zr1-cls-0"></path>
<path d="M110.5 445L110.5 450" fill="none" stroke="#333" class="zr1-cls-0"></path>
<path d="M185.5 445L185.5 450" fill="none" stroke="#333" class="zr1-cls-0"></path>
<path d="M260.5 445L260.5 450" fill="none" stroke="#333" class="zr1-cls-0"></path>
<path d="M335.5 445L335.5 450" fill="none" stroke="#333" class="zr1-cls-0"></path>
<path d="M410.5 445L410.5 450" fill="none" stroke="#333" class="zr1-cls-0"></path>
<path d="M485.5 445L485.5 450" fill="none" stroke="#333" class="zr1-cls-0"></path>
<path d="M560.5 445L560.5 450" fill="none" stroke="#333" class="zr1-cls-0"></path>
<text dominant-baseline="central" text-anchor="end" style="font-size:12px;font-family:sans-serif;" transform="translate(27 415.8571)" fill="#333">杭州</text>
<text dominant-baseline="central" text-anchor="end" style="font-size:12px;font-family:sans-serif;" transform="translate(27 357.5714)" fill="#333">宁波</text>
<text dominant-baseline="central" text-anchor="end" style="font-size:12px;font-family:sans-serif;" transform="translate(27 299.2857)" fill="#333">温州</text>
<text dominant-baseline="central" text-anchor="end" style="font-size:12px;font-family:sans-serif;" transform="translate(27 241)" fill="#333">金华</text>
<text dominant-baseline="central" text-anchor="end" style="font-size:12px;font-family:sans-serif;" transform="translate(27 182.7143)" fill="#333">绍兴</text>
<text dominant-baseline="central" text-anchor="end" style="font-size:12px;font-family:sans-serif;" transform="translate(27 124.4286)" fill="#333">嘉兴</text>
<text dominant-baseline="central" text-anchor="end" style="font-size:12px;font-family:sans-serif;" transform="translate(27 66.1429)" fill="#333">湖州</text>
<text dominant-baseline="central" text-anchor="middle" style="font-size:12px;font-family:sans-serif;" y="6" transform="translate(72.5 453)" fill="#333">杭州</text>
<text dominant-baseline="central" text-anchor="middle" style="font-size:12px;font-family:sans-serif;" y="6" transform="translate(147.5 453)" fill="#333">宁波</text>
<text dominant-baseline="central" text-anchor="middle" style="font-size:12px;font-family:sans-serif;" y="6" transform="translate(222.5 453)" fill="#333">温州</text>
<text dominant-baseline="central" text-anchor="middle" style="font-size:12px;font-family:sans-serif;" y="6" transform="translate(297.5 453)" fill="#333">金华</text>
<text dominant-baseline="central" text-anchor="middle" style="font-size:12px;font-family:sans-serif;" y="6" transform="translate(372.5 453)" fill="#333">绍兴</text>
<text dominant-baseline="central" text-anchor="middle" style="font-size:12px;font-family:sans-serif;" y="6" transform="translate(447.5 453)" fill="#333">嘉兴</text>
<text dominant-baseline="central" text-anchor="middle" style="font-size:12px;font-family:sans-serif;" y="6" transform="translate(522.5 453)" fill="#333">湖州</text>
<path d="M34.75 386.4643l75.5 0l0 58.7857l-75.5 0Z" fill="rgb(231,219,195)" class="zr1-cls-1"></path>
<path d="M34.75 328.1786l75.5 0l0 58.7857l-75.5 0Z" fill="rgb(227,101,125)" class="zr1-cls-2"></path>
<path d="M34.75 269.8929l75.5 0l0 58.7857l-75.5 0Z" fill="rgb(227,103,126)" class="zr1-cls-3"></path>
<path d="M34.75 211.6071l75.5 0l0 58.7857l-75.5 0Z" fill="rgb(224,31,84)" class="zr1-cls-4"></path>
<path d="M34.75 153.3214l75.5 0l0 58.7857l-75.5 0Z" fill="rgb(227,102,126)" class="zr1-cls-5"></path>
<path d="M34.75 95.0357l75.5 0l0 58.7857l-75.5 0Z" fill="rgb(226,84,115)" class="zr1-cls-6"></path>
<path d="M34.75 36.75l75.5 0l0 58.7857l-75.5 0Z" fill="rgb(226,96,123)" class="zr1-cls-7"></path>
<path d="M109.75 386.4643l75.5 0l0 58.7857l-75.5 0Z" fill="rgb(229,168,165)" class="zr1-cls-8"></path>
<path d="M109.75 328.1786l75.5 0l0 58.7857l-75.5 0Z" fill="rgb(231,219,195)" class="zr1-cls-1"></path>
<path d="M109.75 269.8929l75.5 0l0 58.7857l-75.5 0Z" fill="rgb(230,195,181)" class="zr1-cls-9"></path>
<path d="M109.75 211.6071l75.5 0l0 58.7857l-75.5 0Z" fill="rgb(229,167,164)" class="zr1-cls-10"></path>
<path d="M109.75 153.3214l75.5 0l0 58.7857l-75.5 0Z" fill="rgb(230,184,174)" class="zr1-cls-11"></path>
<path d="M109.75 95.0357l75.5 0l0 58.7857l-75.5 0Z" fill="rgb(229,172,167)" class="zr1-cls-12"></path>
<path d="M109.75 36.75l75.5 0l0 58.7857l-75.5 0Z" fill="rgb(230,204,186)" class="zr1-cls-13"></path>
<path d="M184.75 386.4643l75.5 0l0 58.7857l-75.5 0Z" fill="rgb(230,180,172)" class="zr1-cls-14"></path>
<path d="M184.75 328.1786l75.5 0l0 58.7857l-75.5 0Z" fill="rgb(230,205,187)" class="zr1-cls-15"></path>
<path d="M184.75 269.8929l75.5 0l0 58.7857l-75.5 0Z" fill="rgb(231,219,195)" class="zr1-cls-1"></path>
<path d="M184.75 211.6071l75.5 0l0 58.7857l-75.5 0Z" fill="rgb(230,180,172)" class="zr1-cls-14"></path>
<path d="M184.75 153.3214l75.5 0l0 58.7857l-75.5 0Z" fill="rgb(230,204,186)" class="zr1-cls-13"></path>
<path d="M184.75 95.0357l75.5 0l0 58.7857l-75.5 0Z" fill="rgb(230,199,183)" class="zr1-cls-16"></path>
<path d="M184.75 36.75l75.5 0l0 58.7857l-75.5 0Z" fill="rgb(230,204,186)" class="zr1-cls-13"></path>
<path d="M259.75 386.4643l75.5 0l0 58.7857l-75.5 0Z" fill="rgb(229,179,171)" class="zr1-cls-17"></path>
<path d="M259.75 328.1786l75.5 0l0 58.7857l-75.5 0Z" fill="rgb(231,207,188)" class="zr1-cls-18"></path>
<path d="M259.75 269.8929l75.5 0l0 58.7857l-75.5 0Z" fill="rgb(230,198,183)" class="zr1-cls-19"></path>
<path d="M259.75 211.6071l75.5 0l0 58.7857l-75.5 0Z" fill="rgb(231,219,195)" class="zr1-cls-1"></path>
<path d="M259.75 153.3214l75.5 0l0 58.7857l-75.5 0Z" fill="rgb(231,206,187)" class="zr1-cls-20"></path>
<path d="M259.75 95.0357l75.5 0l0 58.7857l-75.5 0Z" fill="rgb(230,201,184)" class="zr1-cls-21"></path>
<path d="M259.75 36.75l75.5 0l0 58.7857l-75.5 0Z" fill="rgb(231,207,188)" class="zr1-cls-18"></path>
<path d="M334.75 386.4643l75.5 0l0 58.7857l-75.5 0Z" fill="rgb(229,174,168)" class="zr1-cls-22"></path>
<path d="M334.75 328.1786l75.5 0l0 58.7857l-75.5 0Z" fill="rgb(230,201,185)" class="zr1-cls-23"></path>
<path d="M334.75 269.8929l75.5 0l0 58.7857l-75.5 0Z" fill="rgb(231,206,187)" class="zr1-cls-20"></path>
<path d="M334.75 211.6071l75.5 0l0 58.7857l-75.5 0Z" fill="rgb(230,202,185)" class="zr1-cls-24"></path>
<path d="M334.75 153.3214l75.5 0l0 58.7857l-75.5 0Z" fill="rgb(231,219,195)" class="zr1-cls-1"></path>
<path d="M334.75 95.0357l75.5 0l0 58.7857l-75.5 0Z" fill="rgb(230,198,182)" class="zr1-cls-25"></path>
<path d="M334.75 36.75l75.5 0l0 58.7857l-75.5 0Z" fill="rgb(230,204,186)" class="zr1-cls-13"></path>
<path d="M409.75 386.4643l75.5 0l0 58.7857l-75.5 0Z" fill="rgb(230,190,178)" class="zr1-cls-26"></path>
<path d="M409.75 328.1786l75.5 0l0 58.7857l-75.5 0Z" fill="rgb(231,210,189)" class="zr1-cls-27"></path>
<path d="M409.75 269.8929l75.5 0l0 58.7857l-75.5 0Z" fill="rgb(231,208,189)" class="zr1-cls-28"></path>
<path d="M409.75 211.6071l75.5 0l0 58.7857l-75.5 0Z" fill="rgb(231,206,187)" class="zr1-cls-20"></path>
<path d="M409.75 153.3214l75.5 0l0 58.7857l-75.5 0Z" fill="rgb(231,208,189)" class="zr1-cls-28"></path>
<path d="M409.75 95.0357l75.5 0l0 58.7857l-75.5 0Z" fill="rgb(231,219,195)" class="zr1-cls-1"></path>
<path d="M409.75 36.75l75.5 0l0 58.7857l-75.5 0Z" fill="rgb(230,200,184)" class="zr1-cls-29"></path>
<path d="M484.75 386.4643l75.5 0l0 58.7857l-75.5 0Z" fill="rgb(230,185,175)" class="zr1-cls-30"></path>
<path d="M484.75 328.1786l75.5 0l0 58.7857l-75.5 0Z" fill="rgb(231,212,191)" class="zr1-cls-31"></path>
<path d="M484.75 269.8929l75.5 0l0 58.7857l-75.5 0Z" fill="rgb(231,207,188)" class="zr1-cls-18"></path>
<path d="M484.75 211.6071l75.5 0l0 58.7857l-75.5 0Z" fill="rgb(231,207,188)" class="zr1-cls-18"></path>
<path d="M484.75 153.3214l75.5 0l0 58.7857l-75.5 0Z" fill="rgb(231,210,190)" class="zr1-cls-32"></path>
<path d="M484.75 95.0357l75.5 0l0 58.7857l-75.5 0Z" fill="rgb(230,194,180)" class="zr1-cls-33"></path>
<path d="M484.75 36.75l75.5 0l0 58.7857l-75.5 0Z" fill="rgb(231,219,195)" class="zr1-cls-1"></path>
<text dominant-baseline="central" text-anchor="middle" style="font-size:12px;font-family:sans-serif;" transform="translate(72.5 415.8571)" fill="#333">0</text>
<text dominant-baseline="central" text-anchor="middle" style="font-size:12px;font-family:sans-serif;" transform="translate(72.5 357.5714)" fill="#333">275</text>
<text dominant-baseline="central" text-anchor="middle" style="font-size:12px;font-family:sans-serif;" transform="translate(72.5 299.2857)" fill="#333">271</text>
<text dominant-baseline="central" text-anchor="middle" style="font-size:12px;font-family:sans-serif;" transform="translate(72.5 241)" fill="#eee" stroke="rgb(224,31,84)" stroke-width="2" paint-order="stroke" stroke-miterlimit="2">438</text>
<text dominant-baseline="central" text-anchor="middle" style="font-size:12px;font-family:sans-serif;" transform="translate(72.5 182.7143)" fill="#333">272</text>
<text dominant-baseline="central" text-anchor="middle" style="font-size:12px;font-family:sans-serif;" transform="translate(72.5 124.4286)" fill="#333">315</text>
<text dominant-baseline="central" text-anchor="middle" style="font-size:12px;font-family:sans-serif;" transform="translate(72.5 66.1429)" fill="#333">286</text>
<text dominant-baseline="central" text-anchor="middle" style="font-size:12px;font-family:sans-serif;" transform="translate(147.5 415.8571)" fill="#333">118</text>
<text dominant-baseline="central" text-anchor="middle" style="font-size:12px;font-family:sans-serif;" transform="translate(147.5 357.5714)" fill="#333">0</text>
<text dominant-baseline="central" text-anchor="middle" style="font-size:12px;font-family:sans-serif;" transform="translate(147.5 299.2857)" fill="#333">56</text>
<text dominant-baseline="central" text-anchor="middle" style="font-size:12px;font-family:sans-serif;" transform="translate(147.5 241)" fill="#333">121</text>
<text dominant-baseline="central" text-anchor="middle" style="font-size:12px;font-family:sans-serif;" transform="translate(147.5 182.7143)" fill="#333">81</text>
<text dominant-baseline="central" text-anchor="middle" style="font-size:12px;font-family:sans-serif;" transform="translate(147.5 124.4286)" fill="#333">110</text>
<text dominant-baseline="central" text-anchor="middle" style="font-size:12px;font-family:sans-serif;" transform="translate(147.5 66.1429)" fill="#333">36</text>
<text dominant-baseline="central" text-anchor="middle" style="font-size:12px;font-family:sans-serif;" transform="translate(222.5 415.8571)" fill="#333">91</text>
<text dominant-baseline="central" text-anchor="middle" style="font-size:12px;font-family:sans-serif;" transform="translate(222.5 357.5714)" fill="#333">32</text>
<text dominant-baseline="central" text-anchor="middle" style="font-size:12px;font-family:sans-serif;" transform="translate(222.5 299.2857)" fill="#333">0</text>
<text dominant-baseline="central" text-anchor="middle" style="font-size:12px;font-family:sans-serif;" transform="translate(222.5 241)" fill="#333">92</text>
<text dominant-baseline="central" text-anchor="middle" style="font-size:12px;font-family:sans-serif;" transform="translate(222.5 182.7143)" fill="#333">35</text>
<text dominant-baseline="central" text-anchor="middle" style="font-size:12px;font-family:sans-serif;" transform="translate(222.5 124.4286)" fill="#333">47</text>
<text dominant-baseline="central" text-anchor="middle" style="font-size:12px;font-family:sans-serif;" transform="translate(222.5 66.1429)" fill="#333">35</text>
<text dominant-baseline="central" text-anchor="middle" style="font-size:12px;font-family:sans-serif;" transform="translate(297.5 415.8571)" fill="#333">94</text>
<text dominant-baseline="central" text-anchor="middle" style="font-size:12px;font-family:sans-serif;" transform="translate(297.5 357.5714)" fill="#333">29</text>
<text dominant-baseline="central" text-anchor="middle" style="font-size:12px;font-family:sans-serif;" transform="translate(297.5 299.2857)" fill="#333">49</text>
<text dominant-baseline="central" text-anchor="middle" style="font-size:12px;font-family:sans-serif;" transform="translate(297.5 241)" fill="#333">0</text>
<text dominant-baseline="central" text-anchor="middle" style="font-size:12px;font-family:sans-serif;" transform="translate(297.5 182.7143)" fill="#333">31</text>
<text dominant-baseline="central" text-anchor="middle" style="font-size:12px;font-family:sans-serif;" transform="translate(297.5 124.4286)" fill="#333">42</text>
<text dominant-baseline="central" text-anchor="middle" style="font-size:12px;font-family:sans-serif;" transform="translate(297.5 66.1429)" fill="#333">28</text>
<text dominant-baseline="central" text-anchor="middle" style="font-size:12px;font-family:sans-serif;" transform="translate(372.5 415.8571)" fill="#333">106</text>
<text dominant-baseline="central" text-anchor="middle" style="font-size:12px;font-family:sans-serif;" transform="translate(372.5 357.5714)" fill="#333">41</text>
<text dominant-baseline="central" text-anchor="middle" style="font-size:12px;font-family:sans-serif;" transform="translate(372.5 299.2857)" fill="#333">30</text>
<text dominant-baseline="central" text-anchor="middle" style="font-size:12px;font-family:sans-serif;" transform="translate(372.5 241)" fill="#333">39</text>
<text dominant-baseline="central" text-anchor="middle" style="font-size:12px;font-family:sans-serif;" transform="translate(372.5 182.7143)" fill="#333">0</text>
<text dominant-baseline="central" text-anchor="middle" style="font-size:12px;font-family:sans-serif;" transform="translate(372.5 124.4286)" fill="#333">50</text>
<text dominant-baseline="central" text-anchor="middle" style="font-size:12px;font-family:sans-serif;" transform="translate(372.5 66.1429)" fill="#333">34</text>
<text dominant-baseline="central" text-anchor="middle" style="font-size:12px;font-family:sans-serif;" transform="translate(447.5 415.8571)" fill="#333">68</text>
<text dominant-baseline="central" text-anchor="middle" style="font-size:12px;font-family:sans-serif;" transform="translate(447.5 357.5714)" fill="#333">22</text>
<text dominant-baseline="central" text-anchor="middle" style="font-size:12px;font-family:sans-serif;" transform="translate(447.5 299.2857)" fill="#333">25</text>
<text dominant-baseline="central" text-anchor="middle" style="font-size:12px;font-family:sans-serif;" transform="translate(447.5 241)" fill="#333">30</text>
<text dominant-baseline="central" text-anchor="middle" style="font-size:12px;font-family:sans-serif;" transform="translate(447.5 182.7143)" fill="#333">25</text>
<text dominant-baseline="central" text-anchor="middle" style="font-size:12px;font-family:sans-serif;" transform="translate(447.5 124.4286)" fill="#333">0</text>
<text dominant-baseline="central" text-anchor="middle" style="font-size:12px;font-family:sans-serif;" transform="translate(447.5 66.1429)" fill="#333">45</text>
<text dominant-baseline="central" text-anchor="middle" style="font-size:12px;font-family:sans-serif;" transform="translate(522.5 415.8571)" fill="#333">79</text>
<text dominant-baseline="central" text-anchor="middle" style="font-size:12px;font-family:sans-serif;" transform="translate(522.5 357.5714)" fill="#333">17</text>
<text dominant-baseline="central" text-anchor="middle" style="font-size:12px;font-family:sans-serif;" transform="translate(522.5 299.2857)" fill="#333">29</text>
<text dominant-baseline="central" text-anchor="middle" style="font-size:12px;font-family:sans-serif;" transform="translate(522.5 241)" fill="#333">28</text>
<text dominant-baseline="central" text-anchor="middle" style="font-size:12px;font-family:sans-serif;" transform="translate(522.5 182.7143)" fill="#333">20</text>
<text dominant-baseline="central" text-anchor="middle" style="font-size:12px;font-family:sans-serif;" transform="translate(522.5 124.4286)" fill="#333">59</text>
<text dominant-baseline="central" text-anchor="middle" style="font-size:12px;font-family:sans-serif;" transform="translate(522.5 66.1429)" fill="#333">0</text>
<path d="M-70.6 -161l88.6 0l0 182l-88.6 0Z" transform="translate(622 310)" fill="rgb(0,0,0)" fill-opacity="0" stroke="#cfd2d7" stroke-width="0" class="zr1-cls-0"></path>
<text dominant-baseline="central" text-anchor="end" style="font-size:12px;font-family:sans-serif;" x="-34" transform="translate(622 310)" fill="#54555a">0</text>
<text dominant-baseline="central" text-anchor="end" style="font-size:12px;font-family:sans-serif;" x="-34" y="-140" transform="translate(622 310)" fill="#54555a">438</text>
<g clip-path="url(#zr1-c0)">
<polygon points="0 0 20 0 20 140 0 140" transform="matrix(-1,0,0,-1,622,310)" fill="url(#zr1-g0)" class="zr1-cls-35"></polygon>
<polygon points="0 0 20 0 20 140 0 140" transform="matrix(-1,0,0,-1,622,310)" fill="url(#zr1-g1)" class="zr1-cls-36"></polygon>
</g>
<path d="M12 0A2.8966 2.8966 0 0 1 9.1034 2.8966L-9.1034 2.8966A2.8966 2.8966 0 0 1 -12 0L-12 0A2.8966 2.8966 0 0 1 -9.1034 -2.8966L9.1034 -2.8966A2.8966 2.8966 0 0 1 12 0Z" transform="matrix(-1,0,0,-1,612,310)" fill="rgb(231,219,195)" stroke="#fff" stroke-width="2" paint-order="stroke" class="zr1-cls-1"></path>
<path d="M12 0A2.8966 2.8966 0 0 1 9.1034 2.8966L-9.1034 2.8966A2.8966 2.8966 0 0 1 -12 0L-12 0A2.8966 2.8966 0 0 1 -9.1034 -2.8966L9.1034 -2.8966A2.8966 2.8966 0 0 1 12 0Z" transform="matrix(-1,0,0,-1,612,170)" fill="rgb(224,31,84)" stroke="#fff" stroke-width="2" paint-order="stroke" class="zr1-cls-4"></path>
<path d="M-54 -5l108 0l0 24l-108 0Z" transform="translate(320 10)" fill="rgb(0,0,0)" fill-opacity="0" stroke="#3c3c41" stroke-width="0" class="zr1-cls-0"></path>
<text dominant-baseline="central" text-anchor="middle" style="font-size:14px;font-family:sans-serif;font-weight:bold;" y="7" transform="translate(320 10)" fill="#333333">城市间客流矩阵</text>
<defs >
<clipPath id="zr1-c0">
<path d="M3 0L17 0A3 3 0 0 1 20 3L20 137A3 3 0 0 1 17 140L3 140A3 3 0 0 1 0 137L0 3A3 3 0 0 1 3 0" transform="matrix(-1,0,0,-1,622,310)" fill="#000" class="zr1-cls-34"></path>
</clipPath>
<linearGradient gradientUnits="objectBoundingBox" x1="0" y1="0" x2="0" y2="1" id="zr1-g0">
<stop offset="0%" stop-color="rgb(207,210,215)"></stop>
<stop offset="1%" stop-color="rgb(207,210,215)"></stop>
<stop offset="2%" stop-color="rgb(207,210,215)"></stop>
<stop offset="3%" stop-color="rgb(207,210,215)"></stop>
<stop offset="4%" stop-color="rgb(207,210,215)"></stop>
<stop offset="5%" stop-color="rgb(207,210,215)"></stop>
<stop offset="6%" stop-color="rgb(207,210,215)"></stop>
<stop offset="7.000000000000001%" stop-color="rgb(207,210,215)"></stop>
<stop offset="8%" stop-color="rgb(207,210,215)"></stop>
<stop offset="9%" stop-color="rgb(207,210,215)"></stop>
<stop offset="10%" stop-color="rgb(207,210,215)"></stop>
<stop offset="11%" stop-color="rgb(207,210,215)"></stop>
<stop offset="12%" stop-color="rgb(207,210,215)"></stop>
<stop offset="13%" stop-color="rgb(207,210,215)"></stop>
<stop offset="14.000000000000002%" stop-color="rgb(207,210,215)"></stop>
<stop offset="15%" stop-color="rgb(207,210,215)"></stop>
<stop offset="16%" stop-color="rgb(207,210,215)"></stop>
<stop offset="17%" stop-color="rgb(207,210,215)"></stop>
<stop offset="18%" stop-color="rgb(207,210,215)"></stop>
<stop offset="19%" stop-color="rgb(207,210,215)"></stop>
<stop offset="20%" stop-color="rgb(207,210,215)"></stop>
<stop offset="21%" stop-color="rgb(207,210,215)"></stop>
<stop offset="22%" stop-color="rgb(207,210,215)"></stop>
<stop offset="23%" stop-color="rgb(207,210,215)"></stop>
<stop offset="24%" stop-color="rgb(207,210,215)"></stop>
<stop offset="25%" stop-color="rgb(207,210,215)"></stop>
<stop offset="26%" stop-color="rgb(207,210,215)"></stop>
<stop offset="27%" stop-color="rgb(207,210,215)"></stop>
<stop offset="28.000000000000004%" stop-color="rgb(207,210,215)"></stop>
<stop offset="28.999999999999996%" stop-color="rgb(207,210,215)"></stop>
<stop offset="30%" stop-color="rgb(207,210,215)"></stop>
<stop offset="31%" stop-color="rgb(207,210,215)"></stop>
<stop offset="32%" stop-color="rgb(207,210,215)"></stop>
<stop offset="33%" stop-color="rgb(207,210,215)"></stop>
<stop offset="34%" stop-color="rgb(207,210,215)"></stop>
<stop offset="35%" stop-color="rgb(207,210,215)"></stop>
<stop offset="36%" stop-color="rgb(207,210,215)"></stop>
<stop offset="37%" stop-color="rgb(207,210,215)"></stop>
<stop offset="38%" stop-color="rgb(207,210,215)"></stop>
<stop offset="39%" stop-color="rgb(207,210,215)"></stop>
<stop offset="40%" stop-color="rgb(207,210,215)"></stop>
<stop offset="41%" stop-color="rgb(207,210,215)"></stop>
<stop offset="42%" stop-color="rgb(207,210,215)"></stop>
<stop offset="43%" stop-color="rgb(207,210,215)"></stop>
<stop offset="44%" stop-color="rgb(207,210,215)"></stop>
<stop offset="45%" stop-color="rgb(207,210,215)"></stop>
<stop offset="46%" stop-color="rgb(207,210,215)"></stop>
<stop offset="47%" stop-color="rgb(207,210,215)"></stop>
<stop offset="48%" stop-color="rgb(207,210,215)"></stop>
<stop offset="49%" stop-color="rgb(207,210,215)"></stop>
<stop offset="50%" stop-color="rgb(207,210,215)"></stop>
<stop offset="51%" stop-color="rgb(207,210,215)"></stop>
<stop offset="52%" stop-color="rgb(207,210,215)"></stop>
<stop offset="53%" stop-color="rgb(207,210,215)"></stop>
<stop offset="54%" stop-color="rgb(207,210,215)"></stop>
<stop offset="55.00000000000001%" stop-color="rgb(207,210,215)"></stop>
<stop offset="56.00000000000001%" stop-color="rgb(207,210,215)"></stop>
<stop offset="56.99999999999999%" stop-color="rgb(207,210,215)"></stop>
<stop offset="57.99999999999999%" stop-color="rgb(207,210,215)"></stop>
<stop offset="59%" stop-color="rgb(207,210,215)"></stop>
<stop offset="60%" stop-color="rgb(207,210,215)"></stop>
<stop offset="61%" stop-color="rgb(207,210,215)"></stop>
<stop offset="62%" stop-color="rgb(207,210,215)"></stop>
<stop offset="63%" stop-color="rgb(207,210,215)"></stop>
<stop offset="64%" stop-color="rgb(207,210,215)"></stop>
<stop offset="65%" stop-color="rgb(207,210,215)"></stop>
<stop offset="66%" stop-color="rgb(207,210,215)"></stop>
<stop offset="67%" stop-color="rgb(207,210,215)"></stop>
<stop offset="68%" stop-color="rgb(207,210,215)"></stop>
<stop offset="69%" stop-color="rgb(207,210,215)"></stop>
<stop offset="70%" stop-color="rgb(207,210,215)"></stop>
<stop offset="71%" stop-color="rgb(207,210,215)"></stop>
<stop offset="72%" stop-color="rgb(207,210,215)"></stop>
<stop offset="73%" stop-color="rgb(207,210,215)"></stop>
<stop offset="74%" stop-color="rgb(207,210,215)"></stop>
<stop offset="75%" stop-color="rgb(207,210,215)"></stop>
<stop offset="76%" stop-color="rgb(207,210,215)"></stop>
<stop offset="77%" stop-color="rgb(207,210,215)"></stop>
<stop offset="78%" stop-color="rgb(207,210,215)"></stop>
<stop offset="79%" stop-color="rgb(207,210,215)"></stop>
<stop offset="80%" stop-color="rgb(207,210,215)"></stop>
<stop offset="81%" stop-color="rgb(207,210,215)"></stop>
<stop offset="82%" stop-color="rgb(207,210,215)"></stop>
<stop offset="83%" stop-color="rgb(207,210,215)"></stop>
<stop offset="84%" stop-color="rgb(207,210,215)"></stop>
<stop offset="85%" stop-color="rgb(207,210,215)"></stop>
<stop offset="86%" stop-color="rgb(207,210,215)"></stop>
<stop offset="87%" stop-color="rgb(207,210,215)"></stop>
<stop offset="88%" stop-color="rgb(207,210,215)"></stop>
<stop offset="89%" stop-color="rgb(207,210,215)"></stop>
<stop offset="90%" stop-color="rgb(207,210,215)"></stop>
<stop offset="91%" stop-color="rgb(207,210,215)"></stop>
<stop offset="92%" stop-color="rgb(207,210,215)"></stop>
<stop offset="93%" stop-color="rgb(207,210,215)"></stop>
<stop offset="94%" stop-color="rgb(207,210,215)"></stop>
<stop offset="95%" stop-color="rgb(207,210,215)"></stop>
<stop offset="96%" stop-color="rgb(207,210,215)"></stop>
<stop offset="97%" stop-color="rgb(207,210,215)"></stop>
<stop offset="98%" stop-color="rgb(207,210,215)"></stop>
<stop offset="99%" stop-color="rgb(207,210,215)"></stop>
<stop offset="100%" stop-color="rgb(207,210,215)"></stop>
</linearGradient>
<linearGradient gradientUnits="objectBoundingBox" x1="0" y1="0" x2="0" y2="1" id="zr1-g1">
<stop offset="0%" stop-color="rgb(231,219,195)"></stop>
<stop offset="1%" stop-color="rgb(231,217,194)"></stop>
<stop offset="2%" stop-color="rgb(231,215,193)"></stop>
<stop offset="3%" stop-color="rgb(231,213,192)"></stop>
<stop offset="4%" stop-color="rgb(231,211,191)"></stop>
<stop offset="5%" stop-color="rgb(231,210,189)"></stop>
<stop offset="6%" stop-color="rgb(231,208,188)"></stop>
<stop offset="7.000000000000001%" stop-color="rgb(231,206,187)"></stop>
<stop offset="8%" stop-color="rgb(230,204,186)"></stop>
<stop offset="9%" stop-color="rgb(230,202,185)"></stop>
<stop offset="10%" stop-color="rgb(230,200,184)"></stop>
<stop offset="11%" stop-color="rgb(230,198,183)"></stop>
<stop offset="12%" stop-color="rgb(230,196,182)"></stop>
<stop offset="13%" stop-color="rgb(230,195,181)"></stop>
<stop offset="14.000000000000002%" stop-color="rgb(230,193,179)"></stop>
<stop offset="15%" stop-color="rgb(230,191,178)"></stop>
<stop offset="16%" stop-color="rgb(230,189,177)"></stop>
<stop offset="17%" stop-color="rgb(230,187,176)"></stop>
<stop offset="18%" stop-color="rgb(230,185,175)"></stop>
<stop offset="19%" stop-color="rgb(230,183,174)"></stop>
<stop offset="20%" stop-color="rgb(230,181,173)"></stop>
<stop offset="21%" stop-color="rgb(230,180,172)"></stop>
<stop offset="22%" stop-color="rgb(229,178,171)"></stop>
<stop offset="23%" stop-color="rgb(229,176,169)"></stop>
<stop offset="24%" stop-color="rgb(229,174,168)"></stop>
<stop offset="25%" stop-color="rgb(229,172,167)"></stop>
<stop offset="26%" stop-color="rgb(229,170,166)"></stop>
<stop offset="27%" stop-color="rgb(229,168,165)"></stop>
<stop offset="28.000000000000004%" stop-color="rgb(229,166,164)"></stop>
<stop offset="28.999999999999996%" stop-color="rgb(229,164,163)"></stop>
<stop offset="30%" stop-color="rgb(229,163,162)"></stop>
<stop offset="31%" stop-color="rgb(229,161,161)"></stop>
<stop offset="32%" stop-color="rgb(229,159,159)"></stop>
<stop offset="33%" stop-color="rgb(229,157,158)"></stop>
<stop offset="34%" stop-color="rgb(229,155,157)"></stop>
<stop offset="35%" stop-color="rgb(229,153,156)"></stop>
<stop offset="36%" stop-color="rgb(228,151,155)"></stop>
<stop offset="37%" stop-color="rgb(228,149,154)"></stop>
<stop offset="38%" stop-color="rgb(228,148,153)"></stop>
<stop offset="39%" stop-color="rgb(228,146,152)"></stop>
<stop offset="40%" stop-color="rgb(228,144,151)"></stop>
<stop offset="41%" stop-color="rgb(228,142,149)"></stop>
<stop offset="42%" stop-color="rgb(228,140,148)"></stop>
<stop offset="43%" stop-color="rgb(228,138,147)"></stop>
<stop offset="44%" stop-color="rgb(228,136,146)"></stop>
<stop offset="45%" stop-color="rgb(228,134,145)"></stop>
<stop offset="46%" stop-color="rgb(228,133,144)"></stop>
<stop offset="47%" stop-color="rgb(228,131,143)"></stop>
<stop offset="48%" stop-color="rgb(228,129,142)"></stop>
<stop offset="49%" stop-color="rgb(228,127,141)"></stop>
<stop offset="50%" stop-color="rgb(228,125,140)"></stop>
<stop offset="51%" stop-color="rgb(227,123,138)"></stop>
<stop offset="52%" stop-color="rgb(227,121,137)"></stop>
<stop offset="53%" stop-color="rgb(227,119,136)"></stop>
<stop offset="54%" stop-color="rgb(227,117,135)"></stop>
<stop offset="55.00000000000001%" stop-color="rgb(227,116,134)"></stop>
<stop offset="56.00000000000001%" stop-color="rgb(227,114,133)"></stop>
<stop offset="56.99999999999999%" stop-color="rgb(227,112,132)"></stop>
<stop offset="57.99999999999999%" stop-color="rgb(227,110,131)"></stop>
<stop offset="59%" stop-color="rgb(227,108,130)"></stop>
<stop offset="60%" stop-color="rgb(227,106,128)"></stop>
<stop offset="61%" stop-color="rgb(227,104,127)"></stop>
<stop offset="62%" stop-color="rgb(227,102,126)"></stop>
<stop offset="63%" stop-color="rgb(227,101,125)"></stop>
<stop offset="64%" stop-color="rgb(227,99,124)"></stop>
<stop offset="65%" stop-color="rgb(226,97,123)"></stop>
<stop offset="66%" stop-color="rgb(226,95,122)"></stop>
<stop offset="67%" stop-color="rgb(226,93,121)"></stop>
<stop offset="68%" stop-color="rgb(226,91,120)"></stop>
<stop offset="69%" stop-color="rgb(226,89,118)"></stop>
<stop offset="70%" stop-color="rgb(226,87,117)"></stop>
<stop offset="71%" stop-color="rgb(226,86,116)"></stop>
<stop offset="72%" stop-color="rgb(226,84,115)"></stop>
<stop offset="73%" stop-color="rgb(226,82,114)"></stop>
<stop offset="74%" stop-color="rgb(226,80,113)"></stop>
<stop offset="75%" stop-color="rgb(226,78,112)"></stop>
<stop offset="76%" stop-color="rgb(226,76,111)"></stop>
<stop offset="77%" stop-color="rgb(226,74,110)"></stop>
<stop offset="78%" stop-color="rgb(226,72,108)"></stop>
<stop offset="79%" stop-color="rgb(225,70,107)"></stop>
<stop offset="80%" stop-color="rgb(225,69,106)"></stop>
<stop offset="81%" stop-color="rgb(225,67,105)"></stop>
<stop offset="82%" stop-color="rgb(225,65,104)"></stop>
<stop offset="83%" stop-color="rgb(225,63,103)"></stop>
<stop offset="84%" stop-color="rgb(225,61,102)"></stop>
<stop offset="85%" stop-color="rgb(225,59,101)"></stop>
<stop offset="86%" stop-color="rgb(225,57,100)"></stop>
<stop offset="87%" stop-color="rgb(225,55,98)"></stop>
<stop offset="88%" stop-color="rgb(225,54,97)"></stop>
<stop offset="89%" stop-color="rgb(225,52,96)"></stop>
<stop offset="90%" stop-color="rgb(225,50,95)"></stop>
<stop offset="91%" stop-color="rgb(225,48,94)"></stop>
<stop offset="92%" stop-color="rgb(225,46,93)"></stop>
<stop offset="93%" stop-color="rgb(224,44,92)"></stop>
<stop offset="94%" stop-color="rgb(224,42,91)"></stop>
<stop offset="95%" stop-color="rgb(224,40,90)"></stop>
<stop offset="96%" stop-color="rgb(224,39,88)"></stop>
<stop offset="97%" stop-color="rgb(224,37,87)"></stop>
<stop offset="98%" stop-color="rgb(224,35,86)"></stop>
<stop offset="99%" stop-color="rgb(224,33,85)"></stop>
<stop offset="100%" stop-color="rgb(224,31,84)"></stop>
</linearGradient>
</defs>
<style ><![CDATA[
.zr1-cls-0:hover {
pointer-events:none;
}
.zr1-cls-1:hover {
cursor:pointer;
fill:rgba(254,240,214,1);
}
.zr1-cls-2:hover {
cursor:pointer;
fill:rgba(249,111,137,1);
}
.zr1-cls-3:hover {
cursor:pointer;
fill:rgba(249,113,138,1);
}
.zr1-cls-4:hover {
cursor:pointer;
fill:rgba(246,34,92,1);
}
.zr1-cls-5:hover {
cursor:pointer;
fill:rgba(249,112,138,1);
}
.zr1-cls-6:hover {
cursor:pointer;
fill:rgba(248,92,126,1);
}
.zr1-cls-7:hover {
cursor:pointer;
fill:rgba(248,105,135,1);
}
.zr1-cls-8:hover {
cursor:pointer;
fill:rgba(251,184,181,1);
}
.zr1-cls-9:hover {
cursor:pointer;
fill:rgba(253,214,199,1);
}
.zr1-cls-10:hover {
cursor:pointer;
fill:rgba(251,183,180,1);
}
.zr1-cls-11:hover {
cursor:pointer;
fill:rgba(253,202,191,1);
}
.zr1-cls-12:hover {
cursor:pointer;
fill:rgba(251,189,183,1);
}
.zr1-cls-13:hover {
cursor:pointer;
fill:rgba(253,224,204,1);
}
.zr1-cls-14:hover {
cursor:pointer;
fill:rgba(253,198,189,1);
}
.zr1-cls-15:hover {
cursor:pointer;
fill:rgba(253,225,205,1);
}
.zr1-cls-16:hover {
cursor:pointer;
fill:rgba(253,218,201,1);
}
.zr1-cls-17:hover {
cursor:pointer;
fill:rgba(251,196,188,1);
}
.zr1-cls-18:hover {
cursor:pointer;
fill:rgba(254,227,206,1);
}
.zr1-cls-19:hover {
cursor:pointer;
fill:rgba(253,217,201,1);
}
.zr1-cls-20:hover {
cursor:pointer;
fill:rgba(254,226,205,1);
}
.zr1-cls-21:hover {
cursor:pointer;
fill:rgba(253,221,202,1);
}
.zr1-cls-22:hover {
cursor:pointer;
fill:rgba(251,191,184,1);
}
.zr1-cls-23:hover {
cursor:pointer;
fill:rgba(253,221,203,1);
}
.zr1-cls-24:hover {
cursor:pointer;
fill:rgba(253,222,203,1);
}
.zr1-cls-25:hover {
cursor:pointer;
fill:rgba(253,217,200,1);
}
.zr1-cls-26:hover {
cursor:pointer;
fill:rgba(253,209,195,1);
}
.zr1-cls-27:hover {
cursor:pointer;
fill:rgba(254,231,207,1);
}
.zr1-cls-28:hover {
cursor:pointer;
fill:rgba(254,228,207,1);
}
.zr1-cls-29:hover {
cursor:pointer;
fill:rgba(253,220,202,1);
}
.zr1-cls-30:hover {
cursor:pointer;
fill:rgba(253,203,192,1);
}
.zr1-cls-31:hover {
cursor:pointer;
fill:rgba(254,233,210,1);
}
.zr1-cls-32:hover {
cursor:pointer;
fill:rgba(254,231,209,1);
}
.zr1-cls-33:hover {
cursor:pointer;
fill:rgba(253,213,198,1);
}
.zr1-cls-34:hover {
cursor:pointer;
fill:rgba(0,0,0,1);
}
.zr1-cls-35:hover {
cursor:pointer;
fill:[object Object];
}
.zr1-cls-36:hover {
cursor:pointer;
fill:[object Object];
}

]]>

</style>
</svg>