<svg width="640" height="480" xmlns="http://www.w3.org/2000/svg" xmlns:xlink="http://www.w3.org/1999/xlink" version="1.1" baseProfile="full" viewBox="0 0 640 480">
<rect width="640" height="480" x="0" y="0" fill="rgb(255,255,255)"></rect>
<text dominant-baseline="central" text-anchor="middle" style="font-size:12px;font-family:sans-serif;" y="-6" transform="matrix(0,-1,1,0,20,221)" fill="#333">占比</text>
<path d="M70.5 405L70.5 37" fill="none" stroke="#333" stroke-linecap="round" class="zr1-cls-0"></path>
<text dominant-baseline="central" text-anchor="middle" style="font-size:12px;font-family:sans-serif;" y="6" transform="translate(347.376 435)" fill="#333">季度</text>
<path d="M69.752 405.5L625 405.5" fill="none" stroke="#333" stroke-linecap="round" class="zr1-cls-0"></path>
<path d="M69.752 405.5L64.752 405.5" fill="none" stroke="#333" class="zr1-cls-0"></path>
<path d="M69.752 331.5L64.752 331.5" fill="none" stroke="#333" class="zr1-cls-0"></path>
<path d="M69.752 258.5L64.752 258.5" fill="none" stroke="#333" class="zr1-cls-0"></path>
<path d="M69.752 184.5L64.752 184.5" fill="none" stroke="#333" class="zr1-cls-0"></path>
<path d="M69.752 110.5L64.752 110.5" fill="none" stroke="#333" class="zr1-cls-0"></path>
<path d="M69.752 37.5L64.752 37.5" fill="none" stroke="#333" class="zr1-cls-0"></path>
<path d="M70.5 405L70.5 410" fill="none" stroke="#333" class="zr1-cls-0"></path>
<path d="M208.5 405L208.5 410" fill="none" stroke="#333" class="zr1-cls-0"></path>
<path d="M347.5 405L347.5 410" fill="none" stroke="#333" class="zr1-cls-0"></path>
<path d="M486.5 405L486.5 410" fill="none" stroke="#333" class="zr1-cls-0"></path>
<path d="M625.5 405L625.5 410" fill="none" stroke="#333" class="zr1-cls-0"></path>
<text dominant-baseline="central" text-anchor="end" style="font-size:12px;font-family:sans-serif;" transform="translate(61.752 405)" fill="#333">0%</text>
<text dominant-baseline="central" text-anchor="end" style="font-size:12px;font-family:sans-serif;" transform="translate(61.752 331.4)" fill="#333">20%</text>
<text dominant-baseline="central" text-anchor="end" style="font-size:12px;font-family:sans-serif;" transform="translate(61.752 257.8)" fill="#333">40%</text>
<text dominant-baseline="central" text-anchor="end" style="font-size:12px;font-family:sans-serif;" transform="translate(61.752 184.2)" fill="#333">60%</text>
<text dominant-baseline="central" text-anchor="end" style="font-size:12px;font-family:sans-serif;" transform="translate(61.752 110.6)" fill="#333">80%</text>
<text dominant-baseline="central" text-anchor="end" style="font-size:12px;font-family:sans-serif;" transform="translate(61.752 37)" fill="#333">100%</text>
<text dominant-baseline="central" text-anchor="middle" style="font-size:12px;font-family:sans-serif;" y="6" transform="translate(139.158 413)" fill="#333">Q1</text>
<text dominant-baseline="central" text-anchor="middle" style="font-size:12px;font-family:sans-serif;" y="6" transform="translate(277.97 413)" fill="#333">Q2</text>
<text dominant-baseline="central" text-anchor="middle" style="font-size:12px;font-family:sans-serif;" y="6" transform="translate(416.782 413)" fill="#333">Q3</text>
<text dominant-baseline="central" text-anchor="middle" style="font-size:12px;font-family:sans-serif;" y="6" transform="translate(555.594 413)" fill="#333">Q4</text>
<path d="M91.2679 405l95.7803 0l0 -287.5l-95.7803 0Z" fill="#e01f54" class="zr1-cls-1"></path>
<path d="M230.0799 405l95.7803 0l0 -178.0645l-95.7803 0Z" fill="#e01f54" class="zr1-cls-1"></path>
<path d="M368.8919 405l95.7803 0l0 -176.64l-95.7803 0Z" fill="#e01f54" class="zr1-cls-1"></path>
<path d="M507.7039 405l95.7803 0l0 -173.1765l-95.7803 0Z" fill="#e01f54" class="zr1-cls-1"></path>
<path d="M91.2679 117.5l95.7803 0l0 -46l-95.7803 0Z" fill="#001852" class="zr1-cls-2"></path>
<path d="M230.0799 226.9355l95.7803 0l0 -106.8387l-95.7803 0Z" fill="rgb(0,24,82)" class="zr1-cls-2"></path>
<path d="M368.8919 228.36l95.7803 0l0 -107.9467l-95.7803 0Z" fill="#001852" class="zr1-cls-2"></path>
<path d="M507.7039 231.8235l95.7803 0l0 -112.5647l-95.7803 0Z" fill="#001852" class="zr1-cls-2"></path>
<path d="M91.2679 71.5l95.7803 0l0 -34.5l-95.7803 0Z" fill="#efe1a9" class="zr1-cls-3"></path>
<path d="M230.0799 120.0968l95.7803 0l0 -83.0968l-95.7803 0Z" fill="#efe1a9" class="zr1-cls-3"></path>
<path d="M368.8919 120.4133l95.7803 0l0 -83.4133l-95.7803 0Z" fill="rgb(239,225,169)" class="zr1-cls-3"></path>
<path d="M507.7039 119.2588l95.7803 0l0 -82.2588l-95.7803 0Z" fill="#efe1a9" class="zr1-cls-3"></path>
<text dominant-baseline="central" text-anchor="middle" style="font-size:12px;font-family:sans-serif;" transform="translate(139.158 261.25)" fill="#eee" stroke="#e01f54" stroke-width="2" paint-order="stroke" stroke-miterlimit="2">78.13%</text>
<text dominant-baseline="central" text-anchor="middle" style="font-size:12px;font-family:sans-serif;" transform="translate(277.97 315.9677)" fill="#eee" stroke="#e01f54" stroke-width="2" paint-order="stroke" stroke-miterlimit="2">48.39%</text>
<text dominant-baseline="central" text-anchor="middle" style="font-size:12px;font-family:sans-serif;" transform="translate(416.782 316.68)" fill="#eee" stroke="#e01f54" stroke-width="2" paint-order="stroke" stroke-miterlimit="2">48.00%</text>
<text dominant-baseline="central" text-anchor="middle" style="font-size:12px;font-family:sans-serif;" transform="translate(555.594 318.4118)" fill="#eee" stroke="#e01f54" stroke-width="2" paint-order="stroke" stroke-miterlimit="2">47.06%</text>
<text dominant-baseline="central" text-anchor="middle" style="font-size:12px;font-family:sans-serif;" transform="translate(139.158 94.5)" fill="#ccc" stroke="#001852" stroke-width="2" paint-order="stroke" stroke-miterlimit="2">12.50%</text>
<text dominant-baseline="central" text-anchor="middle" style="font-size:12px;font-family:sans-serif;" transform="translate(277.97 173.5161)" fill="#ccc" stroke="rgb(0,24,82)" stroke-width="2" paint-order="stroke" stroke-miterlimit="2">29.03%</text>
<text dominant-baseline="central" text-anchor="middle" style="font-size:12px;font-family:sans-serif;" transform="translate(416.782 174.3867)" fill="#ccc" stroke="#001852" stroke-width="2" paint-order="stroke" stroke-miterlimit="2">29.33%</text>
<text dominant-baseline="central" text-anchor="middle" style="font-size:12px;font-family:sans-serif;" transform="translate(555.594 175.5412)" fill="#ccc" stroke="#001852" stroke-width="2" paint-order="stroke" stroke-miterlimit="2">30.59%</text>
<text dominant-baseline="central" text-anchor="middle" style="font-size:12px;font-family:sans-serif;" transform="translate(139.158 54.25)" fill="#333">9.38%</text>
<text dominant-baseline="central" text-anchor="middle" style="font-size:12px;font-family:sans-serif;" transform="translate(277.97 78.5484)" fill="#333">22.58%</text>
<text dominant-baseline="central" text-anchor="middle" style="font-size:12px;font-family:sans-serif;" transform="translate(416.782 78.7067)" fill="#333">22.67%</text>
<text dominant-baseline="central" text-anchor="middle" style="font-size:12px;font-family:sans-serif;" transform="translate(555.594 78.1294)" fill="#333">22.35%</text>
<path d="M-5 -5l212.744 0l0 24l-212.744 0Z" transform="translate(218.628 456)" fill="rgb(0,0,0)" fill-opacity="0" stroke="#b7b9be" stroke-width="0" class="zr1-cls-0"></path>
<path d="M3.5 0L21.5 0A3.5 3.5 0 0 1 25 3.5L25 10.5A3.5 3.5 0 0 1 21.5 14L3.5 14A3.5 3.5 0 0 1 0 10.5L0 3.5A3.5 3.5 0 0 1 3.5 0" transform="translate(218.628 456)" fill="#e01f54" class="zr1-cls-0"></path>
<text dominant-baseline="central" text-anchor="start" style="font-size:12px;font-family:sans-serif;" x="30" y="7" transform="translate(218.628 456)" fill="#333333">产品A</text>
<path d="M0 0l61.884 0l0 14l-61.884 0Z" transform="translate(218.628 456)" fill="none" class="zr1-cls-4"></path>
<path d="M3.5 0L21.5 0A3.5 3.5 0 0 1 25 3.5L25 10.5A3.5 3.5 0 0 1 21.5 14L3.5 14A3.5 3.5 0 0 1 0 10.5L0 3.5A3.5 3.5 0 0 1 3.5 0" transform="translate(288.512 456)" fill="#001852" class="zr1-cls-0"></path>
<text dominant-baseline="central" text-anchor="start" style="font-size:12px;font-family:sans-serif;" x="30" y="7" transform="translate(288.512 456)" fill="#333333">产品B</text>
<path d="M0 0l62.124 0l0 14l-62.124 0Z" transform="translate(288.512 456)" fill="none" class="zr1-cls-4"></path>
<path d="M3.5 0L21.5 0A3.5 3.5 0 0 1 25 3.5L25 10.5A3.5 3.5 0 0 1 21.5 14L3.5 14A3.5 3.5 0 0 1 0 10.5L0 3.5A3.5 3.5 0 0 1 3.5 0" transform="translate(358.636 456)" fill="#efe1a9" class="zr1-cls-0"></path>
<text dominant-baseline="central" text-anchor="start" style="font-size:12px;font-family:sans-serif;" x="30" y="7" transform="translate(358.636 456)" fill="#333333">产品C</text>
<path d="M0 0l62.736 0l0 14l-62.736 0Z" transform="translate(358.636 456)" fill="none" class="zr1-cls-4"></path>
<path d="M-61 -5l122 0l0 24l-122 0Z" transform="translate(320 10)" fill="rgb(0,0,0)" fill-opacity="0" stroke="#3c3c41" stroke-width="0" class="zr1-cls-0"></path>
<text dominant-baseline="central" text-anchor="middle" style="font-size:14px;font-family:sans-serif;font-weight:bold;" y="7" transform="translate(320 10)" fill="#333333">季度产品销量占比</text>
<style ><![CDATA[
.zr1-cls-0:hover {
pointer-events:none;
}
.zr1-cls-1:hover {
cursor:pointer;
fill:rgba(246,34,92,1);
}
.zr1-cls-2:hover {
cursor:pointer;
fill:rgba(0,26,90,1);
}
.zr1-cls-3:hover {
cursor:pointer;
fill:rgba(255,247,185,1);
}
.zr1-cls-4:hover {
cursor:pointer;
fill:rgba(0,0,0,0);
}

]]>

</style>
</svg>