<svg width="440" height="280" xmlns="http://www.w3.org/2000/svg" xmlns:xlink="http://www.w3.org/1999/xlink" version="1.1" baseProfile="full" viewBox="0 0 440 280">
<rect width="440" height="280" x="0" y="0" fill="rgb(255,255,255)"></rect>
<polyline points="248.5 74.5 254.5 60.8 284.5 60.8" fill="none" stroke="#e01f54" class="zr1-cls-0"></polyline>
<polyline points="286.6 114.2 300.6 108.8 330.6 108.8" fill="none" stroke="#001852" class="zr1-cls-0"></polyline>
<polyline points="288.3 161 302.6 165.4 332.6 165.4" fill="none" stroke="#efe1a9" class="zr1-cls-0"></polyline>
<polyline points="272.2 188.7 283.2 198.9 313.2 198.9" fill="none" stroke="#b8d2c7" class="zr1-cls-0"></polyline>
<polyline points="152.4 163 138.2 167.8 108.2 167.8" fill="none" stroke="#c6b38e" class="zr1-cls-0"></polyline>
<path d="M220 68.6A71.4 71.4 0 0 1 272.2803 91.3715L220 140Z" fill="#e01f54" stroke="#ccc" stroke-width="0" stroke-linejoin="round" class="zr1-cls-1"></path>
<path d="M272.2803 91.3715A71.4 71.4 0 0 1 291.3957 140.788L220 140Z" fill="#001852" stroke="#ccc" stroke-width="0" stroke-linejoin="round" class="zr1-cls-2"></path>
<path d="M291.3957 140.788A71.4 71.4 0 0 1 279.5306 179.4217L220 140Z" fill="#efe1a9" stroke="#ccc" stroke-width="0" stroke-linejoin="round" class="zr1-cls-3"></path>
<path d="M279.5306 179.4217A71.4 71.4 0 0 1 263.4829 196.6321L220 140Z" fill="#b8d2c7" stroke="#ccc" stroke-width="0" stroke-linejoin="round" class="zr1-cls-4"></path>
<path d="M263.4829 196.6321A71.4 71.4 0 1 1 220 68.6L220 140Z" fill="#c6b38e" stroke="#ccc" stroke-width="0" stroke-linejoin="round" class="zr1-cls-5"></path>
<text dominant-baseline="central" text-anchor="start" style="font-size:12px;font-family:sans-serif;" y="-6" transform="translate(289.5021 60.7879)" fill="#333" stroke="rgb(255,255,255)" stroke-width="2" paint-order="stroke" stroke-miterlimit="2">直接访问</text>
<text dominant-baseline="central" text-anchor="start" style="font-size:12px;font-family:sans-serif;" y="6" transform="translate(289.5021 60.7879)" fill="#333" stroke="rgb(255,255,255)" stroke-width="2" paint-order="stroke" stroke-miterlimit="2">335</text>
<text dominant-baseline="central" text-anchor="start" style="font-size:12px;font-family:sans-serif;" y="-6" transform="translate(335.5813 108.8294)" fill="#333" stroke="rgb(255,255,255)" stroke-width="2" paint-order="stroke" stroke-miterlimit="2">邮件营销</text>
<text dominant-baseline="central" text-anchor="start" style="font-size:12px;font-family:sans-serif;" y="6" transform="translate(335.5813 108.8294)" fill="#333" stroke="rgb(255,255,255)" stroke-width="2" paint-order="stroke" stroke-miterlimit="2">310</text>
<text dominant-baseline="central" text-anchor="start" style="font-size:12px;font-family:sans-serif;" y="-6" transform="translate(337.5927 165.3656)" fill="#333" stroke="rgb(255,255,255)" stroke-width="2" paint-order="stroke" stroke-miterlimit="2">联盟广告</text>
<text dominant-baseline="central" text-anchor="start" style="font-size:12px;font-family:sans-serif;" y="6" transform="translate(337.5927 165.3656)" fill="#333" stroke="rgb(255,255,255)" stroke-width="2" paint-order="stroke" stroke-miterlimit="2">234</text>
<text dominant-baseline="central" text-anchor="start" style="font-size:12px;font-family:sans-serif;" y="-6" transform="translate(318.1914 198.9221)" fill="#333" stroke="rgb(255,255,255)" stroke-width="2" paint-order="stroke" stroke-miterlimit="2">视频广告</text>
<text dominant-baseline="central" text-anchor="start" style="font-size:12px;font-family:sans-serif;" y="6" transform="translate(318.1914 198.9221)" fill="#333" stroke="rgb(255,255,255)" stroke-width="2" paint-order="stroke" stroke-miterlimit="2">135</text>
<text dominant-baseline="central" text-anchor="end" style="font-size:12px;font-family:sans-serif;" y="-6" transform="translate(103.1895 167.7849)" fill="#333" stroke="rgb(255,255,255)" stroke-width="2" paint-order="stroke" stroke-miterlimit="2">搜索引擎</text>
<text dominant-baseline="central" text-anchor="end" style="font-size:12px;font-family:sans-serif;" y="6" transform="translate(103.1895 167.7849)" fill="#333" stroke="rgb(255,255,255)" stroke-width="2" paint-order="stroke" stroke-miterlimit="2">1548</text>
<path d="M-5 -5l432 0l0 24l-432 0Z" transform="translate(9 256)" fill="rgb(0,0,0)" fill-opacity="0" stroke="#b7b9be" stroke-width="0" class="zr1-cls-6"></path>
<path d="M3.5 0L21.5 0A3.5 3.5 0 0 1 25 3.5L25 10.5A3.5 3.5 0 0 1 21.5 14L3.5 14A3.5 3.5 0 0 1 0 10.5L0 3.5A3.5 3.5 0 0 1 3.5 0" transform="translate(9 256)" fill="#e01f54" stroke="#ccc" stroke-width="0" stroke-linecap="butt" stroke-miterlimit="10" stroke-linejoin="round" class="zr1-cls-6"></path>
<text dominant-baseline="central" text-anchor="start" style="font-size:12px;font-family:sans-serif;" x="30" y="7" transform="translate(9 256)" fill="#333333">直接访问</text>
<path d="M0 0l78 0l0 14l-78 0Z" transform="translate(9 256)" fill="none" class="zr1-cls-7"></path>
<path d="M3.5 0L21.5 0A3.5 3.5 0 0 1 25 3.5L25 10.5A3.5 3.5 0 0 1 21.5 14L3.5 14A3.5 3.5 0 0 1 0 10.5L0 3.5A3.5 3.5 0 0 1 3.5 0" transform="translate(95 256)" fill="#001852" stroke="#ccc" stroke-width="0" stroke-linecap="butt" stroke-miterlimit="10" stroke-linejoin="round" class="zr1-cls-6"></path>
<text dominant-baseline="central" text-anchor="start" style="font-size:12px;font-family:sans-serif;" x="30" y="7" transform="translate(95 256)" fill="#333333">邮件营销</text>
<path d="M0 0l78 0l0 14l-78 0Z" transform="translate(95 256)" fill="none" class="zr1-cls-7"></path>
<path d="M3.5 0L21.5 0A3.5 3.5 0 0 1 25 3.5L25 10.5A3.5 3.5 0 0 1 21.5 14L3.5 14A3.5 3.5 0 0 1 0 10.5L0 3.5A3.5 3.5 0 0 1 3.5 0" transform="translate(181 256)" fill="#efe1a9" stroke="#ccc" stroke-width="0" stroke-linecap="butt" stroke-miterlimit="10" stroke-linejoin="round" class="zr1-cls-6"></path>
<text dominant-baseline="central" text-anchor="start" style="font-size:12px;font-family:sans-serif;" x="30" y="7" transform="translate(181 256)" fill="#333333">联盟广告</text>
<path d="M0 0l78 0l0 14l-78 0Z" transform="translate(181 256)" fill="none" class="zr1-cls-7"></path>
<path d="M3.5 0L21.5 0A3.5 3.5 0 0 1 25 3.5L25 10.5A3.5 3.5 0 0 1 21.5 14L3.5 14A3.5 3.5 0 0 1 0 10.5L0 3.5A3.5 3.5 0 0 1 3.5 0" transform="translate(267 256)" fill="#b8d2c7" stroke="#ccc" stroke-width="0" stroke-linecap="butt" stroke-miterlimit="10" stroke-linejoin="round" class="zr1-cls-6"></path>
<text dominant-baseline="central" text-anchor="start" style="font-size:12px;font-family:sans-serif;" x="30" y="7" transform="translate(267 256)" fill="#333333">视频广告</text>
<path d="M0 0l78 0l0 14l-78 0Z" transform="translate(267 256)" fill="none" class="zr1-cls-7"></path>
<path d="M3.5 0L21.5 0A3.5 3.5 0 0 1 25 3.5L25 10.5A3.5 3.5 0 0 1 21.5 14L3.5 14A3.5 3.5 0 0 1 0 10.5L0 3.5A3.5 3.5 0 0 1 3.5 0" transform="translate(353 256)" fill="#c6b38e" stroke="#ccc" stroke-width="0" stroke-linecap="butt" stroke-miterlimit="10" stroke-linejoin="round" class="zr1-cls-6"></path>
<text dominant-baseline="central" text-anchor="start" style="font-size:12px;font-family:sans-serif;" x="30" y="7" transform="translate(353 256)" fill="#333333">搜索引擎</text>
<path d="M0 0l78 0l0 14l-78 0Z" transform="translate(353 256)" fill="none" class="zr1-cls-7"></path>
<path d="M-61 -5l122 0l0 24l-122 0Z" transform="translate(220 10)" fill="rgb(0,0,0)" fill-opacity="0" stroke="#3c3c41" stroke-width="0" class="zr1-cls-6"></path>
<text dominant-baseline="central" text-anchor="middle" style="font-size:14px;font-family:sans-serif;font-weight:bold;" y="7" transform="translate(220 10)" fill="#333333">网站流量来源占比</text>
<style ><![CDATA[
.zr1-cls-0:hover {
cursor:pointer;
}
.zr1-cls-1:hover {
cursor:pointer;
fill:rgba(246,34,92,1);
}
.zr1-cls-2:hover {
cursor:pointer;
fill:rgba(0,26,90,1);
}
.zr1-cls-3:hover {
cursor:pointer;
fill:rgba(255,247,185,1);
}
.zr1-cls-4:hover {
cursor:pointer;
fill:rgba(202,231,218,1);
}
.zr1-cls-5:hover {
cursor:pointer;
fill:rgba(217,196,156,1);
}
.zr1-cls-6:hover {
pointer-events:none;
}
.zr1-cls-7:hover {
cursor:pointer;
fill:rgba(0,0,0,0);
}

]]>

</style>
</svg>