<svg width="640" height="640" xmlns="http://www.w3.org/2000/svg" xmlns:xlink="http://www.w3.org/1999/xlink" version="1.1" baseProfile="full" viewBox="0 0 640 640">
<rect width="640" height="640" x="0" y="0" fill="rgb(255,255,255)"></rect>
<path d="M395.244 339.5707Q424.1666 385.5267 397.2278 432.673" transform="matrix(1.331,0,0,1.331,-114.857,-90.694)" fill="none" stroke="#e01f54" stroke-width="0.7513148009015774" stroke-opacity="0.5" class="zr1-cls-6"></path>
<path d="M395.244 339.5707Q351.9611 353.3856 319.4031 321.6959" transform="matrix(1.331,0,0,1.331,-114.857,-90.694)" fill="none" stroke="#e01f54" stroke-width="0.7513148009015774" stroke-opacity="0.5" class="zr1-cls-6"></path>
<path d="M395.244 339.5707Q383.2632 385.5546 337.0511 396.6228" transform="matrix(1.331,0,0,1.331,-114.857,-90.694)" fill="none" stroke="#e01f54" stroke-width="0.7513148009015774" stroke-opacity="0.5" class="zr1-cls-6"></path>
<path d="M361.2463 255.697Q403.4073 287.4345 395.244 339.5707" transform="matrix(1.331,0,0,1.331,-114.857,-90.694)" fill="none" stroke="#e01f54" stroke-width="0.7513148009015774" stroke-opacity="0.5" class="zr1-cls-6"></path>
<path d="M447.9808 414.8959Q399.0148 393.0543 395.244 339.5707" transform="matrix(1.331,0,0,1.331,-114.857,-90.694)" fill="none" stroke="#e01f54" stroke-width="0.7513148009015774" stroke-opacity="0.5" class="zr1-cls-6"></path>
<path d="M413.4311 245.7384Q432.4872 298.1107 395.244 339.5707" transform="matrix(1.331,0,0,1.331,-114.857,-90.694)" fill="none" stroke="#e01f54" stroke-width="0.7513148009015774" stroke-opacity="0.5" class="zr1-cls-6"></path>
<path d="M458.8028 269.5866Q448.0186 323.6463 395.244 339.5707" transform="matrix(1.331,0,0,1.331,-114.857,-90.694)" fill="none" stroke="#e01f54" stroke-width="0.7513148009015774" stroke-opacity="0.5" class="zr1-cls-6"></path>
<path d="M484.0687 315.9434Q446.7445 354.4045 395.244 339.5707" transform="matrix(1.331,0,0,1.331,-114.857,-90.694)" fill="none" stroke="#e01f54" stroke-width="0.7513148009015774" stroke-opacity="0.5" class="zr1-cls-6"></path>
<path d="M481.2479 370.7256Q428.8995 380.9493 395.244 339.5707" transform="matrix(1.331,0,0,1.331,-114.857,-90.694)" fill="none" stroke="#e01f54" stroke-width="0.7513148009015774" stroke-opacity="0.5" class="zr1-cls-6"></path>
<path d="M266.8244 373.9971Q295.3907 418.1176 269.9038 464.0857" transform="matrix(1.331,0,0,1.331,-114.857,-90.694)" fill="none" stroke="#001852" stroke-width="0.7513148009015774" stroke-opacity="0.5" class="zr1-cls-6"></path>
<path d="M266.8244 373.9971Q308.7255 364.242 337.0511 396.6228" transform="matrix(1.331,0,0,1.331,-114.857,-90.694)" fill="none" stroke="#001852" stroke-width="0.7513148009015774" stroke-opacity="0.5" class="zr1-cls-6"></path>
<path d="M266.8244 373.9971Q277.4234 332.0729 319.4031 321.6959" transform="matrix(1.331,0,0,1.331,-114.857,-90.694)" fill="none" stroke="#001852" stroke-width="0.7513148009015774" stroke-opacity="0.5" class="zr1-cls-6"></path>
<path d="M266.8244 373.9971Q320.7063 318.258 395.244 339.5707" transform="matrix(1.331,0,0,1.331,-114.857,-90.694)" fill="none" stroke="#001852" stroke-width="0.7513148009015774" stroke-opacity="0.5" class="zr1-cls-6"></path>
<path d="M187.2522 334.541Q238.8751 330.3974 266.8244 373.9971" transform="matrix(1.331,0,0,1.331,-114.857,-90.694)" fill="none" stroke="#001852" stroke-width="0.7513148009015774" stroke-opacity="0.5" class="zr1-cls-6"></path>
<path d="M179.3908 392.5086Q217.5542 357.0228 266.8244 373.9971" transform="matrix(1.331,0,0,1.331,-114.857,-90.694)" fill="none" stroke="#001852" stroke-width="0.7513148009015774" stroke-opacity="0.5" class="zr1-cls-6"></path>
<path d="M234.1496 293.6638Q274.587 324.028 266.8244 373.9971" transform="matrix(1.331,0,0,1.331,-114.857,-90.694)" fill="none" stroke="#001852" stroke-width="0.7513148009015774" stroke-opacity="0.5" class="zr1-cls-6"></path>
<path d="M211.3888 443.4537Q218.2696 392.0947 266.8244 373.9971" transform="matrix(1.331,0,0,1.331,-114.857,-90.694)" fill="none" stroke="#001852" stroke-width="0.7513148009015774" stroke-opacity="0.5" class="zr1-cls-6"></path>
<path d="M210.3556 135.2601Q191.266 172.5794 149.3539 173.2977" transform="matrix(1.331,0,0,1.331,-114.857,-90.694)" fill="none" stroke="#f5e8c8" stroke-width="0.7513148009015774" stroke-opacity="0.5" class="zr1-cls-6"></path>
<path d="M210.3556 135.2601Q234.2524 101.0783 275.6584 106.0783" transform="matrix(1.331,0,0,1.331,-114.857,-90.694)" fill="none" stroke="#f5e8c8" stroke-width="0.7513148009015774" stroke-opacity="0.5" class="zr1-cls-6"></path>
<path d="M1 0A1 1 0 1 1 1 -0.0001" transform="matrix(23.245,0,0,23.245,411.2128,361.2746)" fill="#e01f54" stroke="#ccc" stroke-width="0" class="zr1-cls-7"></path>
<path d="M1 0A1 1 0 1 1 1 -0.0001" transform="matrix(5.811,0,0,5.811,413.8532,485.1938)" fill="#e01f54" stroke="#ccc" stroke-width="0" class="zr1-cls-7"></path>
<path d="M1 0A1 1 0 1 1 1 -0.0001" transform="matrix(7.748,0,0,7.748,310.2685,337.4833)" fill="#e01f54" stroke="#ccc" stroke-width="0" class="zr1-cls-7"></path>
<path d="M1 0A1 1 0 1 1 1 -0.0001" transform="matrix(7.748,0,0,7.748,333.758,437.211)" fill="#e01f54" stroke="#ccc" stroke-width="0" class="zr1-cls-7"></path>
<path d="M1 0A1 1 0 1 1 1 -0.0001" transform="matrix(5.811,0,0,5.811,365.9618,249.6387)" fill="#e01f54" stroke="#ccc" stroke-width="0" class="zr1-cls-7"></path>
<path d="M1 0A1 1 0 1 1 1 -0.0001" transform="matrix(5.811,0,0,5.811,481.4054,461.5324)" fill="#e01f54" stroke="#ccc" stroke-width="0" class="zr1-cls-7"></path>
<path d="M1 0A1 1 0 1 1 1 -0.0001" transform="matrix(5.811,0,0,5.811,435.4197,236.3838)" fill="#e01f54" stroke="#ccc" stroke-width="0" class="zr1-cls-7"></path>
<path d="M1 0A1 1 0 1 1 1 -0.0001" transform="matrix(5.811,0,0,5.811,495.8095,268.1258)" fill="#e01f54" stroke="#ccc" stroke-width="0" class="zr1-cls-7"></path>
<path d="M1 0A1 1 0 1 1 1 -0.0001" transform="matrix(5.811,0,0,5.811,529.4384,329.8267)" fill="#e01f54" stroke="#ccc" stroke-width="0" class="zr1-cls-7"></path>
<path d="M1 0A1 1 0 1 1 1 -0.0001" transform="matrix(5.811,0,0,5.811,525.684,402.7418)" fill="#e01f54" stroke="#ccc" stroke-width="0" class="zr1-cls-7"></path>
<path d="M1 0A1 1 0 1 1 1 -0.0001" transform="matrix(19.371,0,0,19.371,240.2863,407.0961)" fill="#001852" stroke="#ccc" stroke-width="0" class="zr1-cls-8"></path>
<path d="M1 0A1 1 0 1 1 1 -0.0001" transform="matrix(5.811,0,0,5.811,244.385,527.0041)" fill="#001852" stroke="#ccc" stroke-width="0" class="zr1-cls-8"></path>
<path d="M1 0A1 1 0 1 1 1 -0.0001" transform="matrix(5.811,0,0,5.811,134.3757,354.5801)" fill="#001852" stroke="#ccc" stroke-width="0" class="zr1-cls-8"></path>
<path d="M1 0A1 1 0 1 1 1 -0.0001" transform="matrix(5.811,0,0,5.811,123.9122,431.7349)" fill="#001852" stroke="#ccc" stroke-width="0" class="zr1-cls-8"></path>
<path d="M1 0A1 1 0 1 1 1 -0.0001" transform="matrix(5.811,0,0,5.811,196.7961,300.1725)" fill="#001852" stroke="#ccc" stroke-width="0" class="zr1-cls-8"></path>
<path d="M1 0A1 1 0 1 1 1 -0.0001" transform="matrix(5.811,0,0,5.811,166.5015,499.5429)" fill="#001852" stroke="#ccc" stroke-width="0" class="zr1-cls-8"></path>
<path d="M1 0A1 1 0 1 1 1 -0.0001" transform="matrix(7.748,0,0,7.748,165.1263,89.3372)" fill="#f5e8c8" stroke="#ccc" stroke-width="0" class="zr1-cls-9"></path>
<path d="M1 0A1 1 0 1 1 1 -0.0001" transform="matrix(5.811,0,0,5.811,83.9331,139.9652)" fill="#f5e8c8" stroke="#ccc" stroke-width="0" class="zr1-cls-9"></path>
<path d="M1 0A1 1 0 1 1 1 -0.0001" transform="matrix(5.811,0,0,5.811,252.0444,50.4962)" fill="#f5e8c8" stroke="#ccc" stroke-width="0" class="zr1-cls-9"></path>
<text dominant-baseline="central" text-anchor="start" style="font-size:12px;font-family:sans-serif;" transform="translate(439.4575 361.2746)" fill="#666">Myriel</text>
<text dominant-baseline="central" text-anchor="start" style="font-size:12px;font-family:sans-serif;" transform="translate(424.6644 485.1938)" fill="#666">Napoleon</text>
<text dominant-baseline="central" text-anchor="start" style="font-size:12px;font-family:sans-serif;" transform="translate(323.0167 337.4833)" fill="#666">Mlle.Baptistine</text>
<text dominant-baseline="central" text-anchor="start" style="font-size:12px;font-family:sans-serif;" transform="translate(346.5062 437.211)" fill="#666">Mme.Magloire</text>
<text dominant-baseline="central" text-anchor="start" style="font-size:12px;font-family:sans-serif;" transform="translate(376.773 249.6387)" fill="#666">CountessdeLo</text>
<text dominant-baseline="central" text-anchor="start" style="font-size:12px;font-family:sans-serif;" transform="translate(492.2166 461.5324)" fill="#666">Geborand</text>
<text dominant-baseline="central" text-anchor="start" style="font-size:12px;font-family:sans-serif;" transform="translate(446.2309 236.3838)" fill="#666">Champtercier</text>
<text dominant-baseline="central" text-anchor="start" style="font-size:12px;font-family:sans-serif;" transform="translate(506.6206 268.1258)" fill="#666">Cravatte</text>
<text dominant-baseline="central" text-anchor="start" style="font-size:12px;font-family:sans-serif;" transform="translate(540.2496 329.8267)" fill="#666">Count</text>
<text dominant-baseline="central" text-anchor="start" style="font-size:12px;font-family:sans-serif;" transform="translate(536.4951 402.7418)" fill="#666">OldMan</text>
<text dominant-baseline="central" text-anchor="start" style="font-size:12px;font-family:sans-serif;" transform="translate(264.6569 407.0961)" fill="#666">Valjean</text>
<text dominant-baseline="central" text-anchor="start" style="font-size:12px;font-family:sans-serif;" transform="translate(255.1962 527.0041)" fill="#666">Labarre</text>
<text dominant-baseline="central" text-anchor="start" style="font-size:12px;font-family:sans-serif;" transform="translate(145.1869 354.5801)" fill="#666">Marguerite</text>
<text dominant-baseline="central" text-anchor="start" style="font-size:12px;font-family:sans-serif;" transform="translate(134.7234 431.7349)" fill="#666">Mme.deR</text>
<text dominant-baseline="central" text-anchor="start" style="font-size:12px;font-family:sans-serif;" transform="translate(207.6073 300.1725)" fill="#666">Isabeau</text>
<text dominant-baseline="central" text-anchor="start" style="font-size:12px;font-family:sans-serif;" transform="translate(177.3127 499.5429)" fill="#666">Gervais</text>
<text dominant-baseline="central" text-anchor="start" style="font-size:12px;font-family:sans-serif;" transform="translate(177.8745 89.3372)" fill="#666">Tholomyes</text>
<text dominant-baseline="central" text-anchor="start" style="font-size:12px;font-family:sans-serif;" transform="translate(94.7442 139.9652)" fill="#666">Fantine</text>
<text dominant-baseline="central" text-anchor="start" style="font-size:12px;font-family:sans-serif;" transform="translate(262.8556 50.4962)" fill="#666">Mme.Thenardier</text>
<path d="M-5 -5l237.6319 0l0 24l-237.6319 0Z" transform="translate(206.1841 616)" fill="rgb(0,0,0)" fill-opacity="0" stroke="#b7b9be" stroke-width="0" class="zr1-cls-10"></path>
<path d="M3.5 0L21.5 0A3.5 3.5 0 0 1 25 3.5L25 10.5A3.5 3.5 0 0 1 21.5 14L3.5 14A3.5 3.5 0 0 1 0 10.5L0 3.5A3.5 3.5 0 0 1 3.5 0" transform="translate(206.1841 616)" fill="#e01f54" stroke="#ccc" stroke-width="0" stroke-linecap="butt" stroke-miterlimit="10" class="zr1-cls-10"></path>
<text dominant-baseline="central" text-anchor="start" style="font-size:12px;font-family:sans-serif;" x="30" y="7" transform="translate(206.1841 616)" fill="#333333">Group1</text>
<path d="M0 0l68.952 0l0 14l-68.952 0Z" transform="translate(206.1841 616)" fill="none" class="zr1-cls-11"></path>
<path d="M3.5 0L21.5 0A3.5 3.5 0 0 1 25 3.5L25 10.5A3.5 3.5 0 0 1 21.5 14L3.5 14A3.5 3.5 0 0 1 0 10.5L0 3.5A3.5 3.5 0 0 1 3.5 0" transform="translate(283.136 616)" fill="#001852" stroke="#ccc" stroke-width="0" stroke-linecap="butt" stroke-miterlimit="10" class="zr1-cls-10"></path>
<text dominant-baseline="central" text-anchor="start" style="font-size:12px;font-family:sans-serif;" x="30" y="7" transform="translate(283.136 616)" fill="#333333">Group2</text>
<path d="M0 0l71.34 0l0 14l-71.34 0Z" transform="translate(283.136 616)" fill="none" class="zr1-cls-11"></path>
<path d="M3.5 0L21.5 0A3.5 3.5 0 0 1 25 3.5L25 10.5A3.5 3.5 0 0 1 21.5 14L3.5 14A3.5 3.5 0 0 1 0 10.5L0 3.5A3.5 3.5 0 0 1 3.5 0" transform="translate(362.476 616)" fill="#f5e8c8" stroke="#ccc" stroke-width="0" stroke-linecap="butt" stroke-miterlimit="10" class="zr1-cls-10"></path>
<text dominant-baseline="central" text-anchor="start" style="font-size:12px;font-family:sans-serif;" x="30" y="7" transform="translate(362.476 616)" fill="#333333">Group3</text>
<path d="M0 0l71.34 0l0 14l-71.34 0Z" transform="translate(362.476 616)" fill="none" class="zr1-cls-11"></path>
<path d="M-81.993 -5l163.986 0l0 24l-163.986 0Z" transform="translate(320 10)" fill="rgb(0,0,0)" fill-opacity="0" stroke="#3c3c41" stroke-width="0" class="zr1-cls-10"></path>
<text dominant-baseline="central" text-anchor="middle" style="font-size:14px;font-family:sans-serif;font-weight:bold;" xml:space="preserve" y="7" transform="translate(320 10)" fill="#333333">悲惨世界人物关系 (简化)</text>
<style ><![CDATA[
.zr1-cls-6:hover {
cursor:pointer;
}
.zr1-cls-7:hover {
cursor:pointer;
fill:rgba(246,34,92,1);
}
.zr1-cls-8:hover {
cursor:pointer;
fill:rgba(0,26,90,1);
}
.zr1-cls-9:hover {
cursor:pointer;
fill:rgba(255,255,220,1);
}
.zr1-cls-10:hover {
pointer-events:none;
}
.zr1-cls-11:hover {
cursor:pointer;
fill:rgba(0,0,0,0);
}

]]>

</style>
</svg>