<svg width="640" height="480" xmlns="http://www.w3.org/2000/svg" xmlns:xlink="http://www.w3.org/1999/xlink" version="1.1" baseProfile="full" viewBox="0 0 640 480">
<rect width="640" height="480" x="0" y="0" fill="rgb(255,255,255)"></rect>
<polyline points="391.9 75 397.9 61.2 427.9 61.2" fill="none" stroke="#e01f54" class="zr1-cls-0"></polyline>
<polyline points="487.9 175.1 501.9 169.6 531.9 169.6" fill="none" stroke="#001852" class="zr1-cls-0"></polyline>
<polyline points="492.1 292.8 506.4 297.2 536.4 297.2" fill="none" stroke="#efe1a9" class="zr1-cls-0"></polyline>
<polyline points="451.6 362.8 462.6 373 492.6 373" fill="none" stroke="#b8d2c7" class="zr1-cls-0"></polyline>
<polyline points="149.6 297.9 135.4 302.7 105.4 302.7" fill="none" stroke="#c6b38e" class="zr1-cls-0"></polyline>
<path d="M327.4025 70.4559A10 10 0 0 1 338.4161 60.9446A180 180 0 0 1 438.5648 104.566A10 10 0 0 1 439.1015 119.1082L402.516 156.2437A10 10 0 0 1 389.0032 156.9183A108 108 0 0 0 333.8378 132.8902A10 10 0 0 1 325.1286 122.5364Z" fill="rgb(224,31,84)" stroke="#fff" stroke-width="2" stroke-linejoin="round" class="zr1-cls-1"></path>
<path d="M449.1847 129.9486A10 10 0 0 1 463.6501 131.5351A180 180 0 0 1 499.2478 223.5611A10 10 0 0 1 489.6155 234.4691L437.513 236.168A10 10 0 0 1 427.256 227.3451A108 108 0 0 0 407.8522 177.1828A10 10 0 0 1 409.5018 163.7542Z" fill="#001852" stroke="#fff" stroke-width="2" stroke-linejoin="round" class="zr1-cls-2"></path>
<path d="M489.4521 249.2731A10 10 0 0 1 498.8413 260.391A180 180 0 0 1 479.4575 323.5063A10 10 0 0 1 465.4465 327.4376L420.7683 300.5785A10 10 0 0 1 416.9443 287.6005A108 108 0 0 0 426.9506 255.019A10 10 0 0 1 437.3999 246.4246Z" fill="#efe1a9" stroke="#fff" stroke-width="2" stroke-linejoin="round" class="zr1-cls-3"></path>
<path d="M457.2723 339.7813A10 10 0 0 1 459.1216 354.2155A180 180 0 0 1 443.6526 370.8053A10 10 0 0 1 429.1245 369.9686L395.6037 330.0449A10 10 0 0 1 396.206 316.5287A108 108 0 0 0 401.6639 310.6754A10 10 0 0 1 415.105 309.1305Z" fill="#b8d2c7" stroke="#fff" stroke-width="2" stroke-linejoin="round" class="zr1-cls-4"></path>
<path d="M417.3818 378.9849A10 10 0 0 1 414.4386 393.2363A180 180 0 1 1 301.5839 60.9446A10 10 0 0 1 312.5975 70.4559L314.8714 122.5364A10 10 0 0 1 306.1622 132.8902A108 108 0 1 0 374.2547 333.3832A10 10 0 0 1 387.4681 336.2915Z" fill="rgb(198,179,142)" stroke="#fff" stroke-width="2" stroke-linejoin="round" class="zr1-cls-5"></path>
<text dominant-baseline="central" text-anchor="start" style="font-size:12px;font-family:sans-serif;" y="-6" transform="translate(432.8693 61.2226)" fill="#333" stroke="rgb(255,255,255)" stroke-width="2" paint-order="stroke" stroke-miterlimit="2">直接访问</text>
<text dominant-baseline="central" text-anchor="start" style="font-size:12px;font-family:sans-serif;" y="6" transform="translate(432.8693 61.2226)" fill="#333" stroke="rgb(255,255,255)" stroke-width="2" paint-order="stroke" stroke-miterlimit="2">335</text>
<text dominant-baseline="central" text-anchor="start" style="font-size:12px;font-family:sans-serif;" y="-6" transform="translate(536.8676 169.6497)" fill="#333" stroke="rgb(255,255,255)" stroke-width="2" paint-order="stroke" stroke-miterlimit="2">邮件营销</text>
<text dominant-baseline="central" text-anchor="start" style="font-size:12px;font-family:sans-serif;" y="6" transform="translate(536.8676 169.6497)" fill="#333" stroke="rgb(255,255,255)" stroke-width="2" paint-order="stroke" stroke-miterlimit="2">310</text>
<text dominant-baseline="central" text-anchor="start" style="font-size:12px;font-family:sans-serif;" y="-6" transform="translate(541.407 297.2487)" fill="#333" stroke="rgb(255,255,255)" stroke-width="2" paint-order="stroke" stroke-miterlimit="2">联盟广告</text>
<text dominant-baseline="central" text-anchor="start" style="font-size:12px;font-family:sans-serif;" y="6" transform="translate(541.407 297.2487)" fill="#333" stroke="rgb(255,255,255)" stroke-width="2" paint-order="stroke" stroke-miterlimit="2">234</text>
<text dominant-baseline="central" text-anchor="start" style="font-size:12px;font-family:sans-serif;" y="-6" transform="translate(497.6194 372.9839)" fill="#333" stroke="rgb(255,255,255)" stroke-width="2" paint-order="stroke" stroke-miterlimit="2">视频广告</text>
<text dominant-baseline="central" text-anchor="start" style="font-size:12px;font-family:sans-serif;" y="6" transform="translate(497.6194 372.9839)" fill="#333" stroke="rgb(255,255,255)" stroke-width="2" paint-order="stroke" stroke-miterlimit="2">135</text>
<text dominant-baseline="central" text-anchor="end" style="font-size:12px;font-family:sans-serif;" y="-6" transform="translate(100.3582 302.709)" fill="#333" stroke="rgb(255,255,255)" stroke-width="2" paint-order="stroke" stroke-miterlimit="2">搜索引擎</text>
<text dominant-baseline="central" text-anchor="end" style="font-size:12px;font-family:sans-serif;" y="6" transform="translate(100.3582 302.709)" fill="#333" stroke="rgb(255,255,255)" stroke-width="2" paint-order="stroke" stroke-miterlimit="2">1548</text>
<path d="M-5 -5l437 0l0 26l-437 0Z" transform="translate(106.5 454)" fill="rgb(0,0,0)" fill-opacity="0" stroke="#b7b9be" stroke-width="0" class="zr1-cls-6"></path>
<path d="M3.5 0L21.5 0A3.5 3.5 0 0 1 25 3.5L25 10.5A3.5 3.5 0 0 1 21.5 14L3.5 14A3.5 3.5 0 0 1 0 10.5L0 3.5A3.5 3.5 0 0 1 3.5 0" transform="translate(107.5 455)" fill="#e01f54" stroke="#fff" stroke-width="2" stroke-linecap="butt" stroke-miterlimit="10" stroke-linejoin="round" class="zr1-cls-6"></path>
<text dominant-baseline="central" text-anchor="start" style="font-size:12px;font-family:sans-serif;" x="30" y="7" transform="translate(107.5 455)" fill="#333333">直接访问</text>
<path d="M-1 -1l79 0l0 16l-79 0Z" transform="translate(107.5 455)" fill="none" class="zr1-cls-7"></path>
<path d="M3.5 0L21.5 0A3.5 3.5 0 0 1 25 3.5L25 10.5A3.5 3.5 0 0 1 21.5 14L3.5 14A3.5 3.5 0 0 1 0 10.5L0 3.5A3.5 3.5 0 0 1 3.5 0" transform="translate(194.5 455)" fill="#001852" stroke="#fff" stroke-width="2" stroke-linecap="butt" stroke-miterlimit="10" stroke-linejoin="round" class="zr1-cls-6"></path>
<text dominant-baseline="central" text-anchor="start" style="font-size:12px;font-family:sans-serif;" x="30" y="7" transform="translate(194.5 455)" fill="#333333">邮件营销</text>
<path d="M-1 -1l79 0l0 16l-79 0Z" transform="translate(194.5 455)" fill="none" class="zr1-cls-7"></path>
<path d="M3.5 0L21.5 0A3.5 3.5 0 0 1 25 3.5L25 10.5A3.5 3.5 0 0 1 21.5 14L3.5 14A3.5 3.5 0 0 1 0 10.5L0 3.5A3.5 3.5 0 0 1 3.5 0" transform="translate(281.5 455)" fill="#efe1a9" stroke="#fff" stroke-width="2" stroke-linecap="butt" stroke-miterlimit="10" stroke-linejoin="round" class="zr1-cls-6"></path>
<text dominant-baseline="central" text-anchor="start" style="font-size:12px;font-family:sans-serif;" x="30" y="7" transform="translate(281.5 455)" fill="#333333">联盟广告</text>
<path d="M-1 -1l79 0l0 16l-79 0Z" transform="translate(281.5 455)" fill="none" class="zr1-cls-7"></path>
<path d="M3.5 0L21.5 0A3.5 3.5 0 0 1 25 3.5L25 10.5A3.5 3.5 0 0 1 21.5 14L3.5 14A3.5 3.5 0 0 1 0 10.5L0 3.5A3.5 3.5 0 0 1 3.5 0" transform="translate(368.5 455)" fill="#b8d2c7" stroke="#fff" stroke-width="2" stroke-linecap="butt" stroke-miterlimit="10" stroke-linejoin="round" class="zr1-cls-6"></path>
<text dominant-baseline="central" text-anchor="start" style="font-size:12px;font-family:sans-serif;" x="30" y="7" transform="translate(368.5 455)" fill="#333333">视频广告</text>
<path d="M-1 -1l79 0l0 16l-79 0Z" transform="translate(368.5 455)" fill="none" class="zr1-cls-7"></path>
<path d="M3.5 0L21.5 0A3.5 3.5 0 0 1 25 3.5L25 10.5A3.5 3.5 0 0 1 21.5 14L3.5 14A3.5 3.5 0 0 1 0 10.5L0 3.5A3.5 3.5 0 0 1 3.5 0" transform="translate(455.5 455)" fill="#c6b38e" stroke="#fff" stroke-width="2" stroke-linecap="butt" stroke-miterlimit="10" stroke-linejoin="round" class="zr1-cls-6"></path>
<text dominant-baseline="central" text-anchor="start" style="font-size:12px;font-family:sans-serif;" x="30" y="7" transform="translate(455.5 455)" fill="#333333">搜索引擎</text>
<path d="M-1 -1l79 0l0 16l-79 0Z" transform="translate(455.5 455)" fill="none" class="zr1-cls-7"></path>
<path d="M-47 -5l94 0l0 24l-94 0Z" transform="translate(320 10)" fill="rgb(0,0,0)" fill-opacity="0" stroke="#3c3c41" stroke-width="0" class="zr1-cls-6"></path>
<text dominant-baseline="central" text-anchor="middle" style="font-size:14px;font-family:sans-serif;font-weight:bold;" y="7" transform="translate(320 10)" fill="#333333">网站流量来源</text>
<style ><![CDATA[
.zr1-cls-0:hover {
cursor:pointer;
}
.zr1-cls-1:hover {
cursor:pointer;
fill:rgba(246,34,92,1);
}
.zr1-cls-2:hover {
cursor:pointer;
fill:rgba(0,26,90,1);
}
.zr1-cls-3:hover {
cursor:pointer;
fill:rgba(255,247,185,1);
}
.zr1-cls-4:hover {
cursor:pointer;
fill:rgba(202,231,218,1);
}
.zr1-cls-5:hover {
cursor:pointer;
fill:rgba(217,196,156,1);
}
.zr1-cls-6:hover {
pointer-events:none;
}
.zr1-cls-7:hover {
cursor:pointer;
fill:rgba(0,0,0,0);
}

]]>

</style>
</svg>