<svg width="850" height="400" xmlns="http://www.w3.org/2000/svg" xmlns:xlink="http://www.w3.org/1999/xlink" version="1.1" baseProfile="full" viewBox="0 0 850 400">
<rect width="850" height="400" x="0" y="0" fill="rgb(255,255,255)"></rect>
<polygon points="37.5 180 150.8 180 170.8 200 150.8 220 37.5 220" fill="#e01f54" stroke="#e01f54" stroke-width="2" stroke-linejoin="round" class="zr1-cls-1"></polygon>
<text dominant-baseline="central" text-anchor="middle" style="font-size:12px;font-family:sans-serif;font-weight:bold;" transform="translate(104.1667 200)" fill="#fff">1956</text>
<path d="M-29.883 -125l59.766 0l0 14l-59.766 0Z" transform="translate(104.1667 165)" fill="none" class="zr1-cls-1"></path>
<text dominant-baseline="central" text-anchor="middle" style="font-size:14px;font-family:sans-serif;font-weight:bold;" xml:space="preserve" y="-118" transform="translate(104.1667 165)" fill="#333">AI 的诞生</text>
<path d="M-60 -105l120 0l0 12l-120 0Z" transform="translate(104.1667 165)" fill="none" class="zr1-cls-1"></path>
<text dominant-baseline="central" text-anchor="middle" style="font-size:12px;font-family:sans-serif;" y="-99" transform="translate(104.1667 165)" fill="#888">达特茅斯会议首次提出</text>
<path d="M-60 -87l120 0l0 12l-120 0Z" transform="translate(104.1667 165)" fill="none" class="zr1-cls-1"></path>
<text dominant-baseline="central" text-anchor="middle" style="font-size:12px;font-family:sans-serif;" y="-81" transform="translate(104.1667 165)" fill="#888">了“人工智能”这一术</text>
<path d="M-60.708 -69l121.416 0l0 12l-121.416 0Z" transform="translate(104.1667 165)" fill="none" class="zr1-cls-1"></path>
<text dominant-baseline="central" text-anchor="middle" style="font-size:12px;font-family:sans-serif;" y="-63" transform="translate(104.1667 165)" fill="#888">语，标志着AI作为一门</text>
<path d="M-60 -51l120 0l0 12l-120 0Z" transform="translate(104.1667 165)" fill="none" class="zr1-cls-1"></path>
<text dominant-baseline="central" text-anchor="middle" style="font-size:12px;font-family:sans-serif;" y="-45" transform="translate(104.1667 165)" fill="#888">独立学科正式诞生，科</text>
<path d="M-60 -33l120 0l0 12l-120 0Z" transform="translate(104.1667 165)" fill="none" class="zr1-cls-1"></path>
<text dominant-baseline="central" text-anchor="middle" style="font-size:12px;font-family:sans-serif;" y="-27" transform="translate(104.1667 165)" fill="#888">学家们对让机器拥有智</text>
<path d="M-60 -15l120 0l0 12l-120 0Z" transform="translate(104.1667 165)" fill="none" class="zr1-cls-1"></path>
<text dominant-baseline="central" text-anchor="middle" style="font-size:12px;font-family:sans-serif;" y="-9" transform="translate(104.1667 165)" fill="#888">能充满了最初的憧憬。</text>
<polygon points="165.8 180 279.2 180 299.2 200 279.2 220 165.8 220 185.8 200" fill="#001852" stroke="#001852" stroke-width="2" stroke-linejoin="round" class="zr1-cls-1"></polygon>
<text dominant-baseline="central" text-anchor="middle" style="font-size:12px;font-family:sans-serif;font-weight:bold;" transform="translate(237.5 200)" fill="#fff">1997</text>
<path d="M-42 3l84 0l0 14l-84 0Z" transform="translate(237.5 235)" fill="none" class="zr1-cls-1"></path>
<text dominant-baseline="central" text-anchor="middle" style="font-size:14px;font-family:sans-serif;font-weight:bold;" y="10" transform="translate(237.5 235)" fill="#333">深蓝击败人类</text>
<path d="M-64.062 23l128.124 0l0 12l-128.124 0Z" transform="translate(237.5 235)" fill="none" class="zr1-cls-1"></path>
<text dominant-baseline="central" text-anchor="middle" style="font-size:12px;font-family:sans-serif;" y="29" transform="translate(237.5 235)" fill="#888">IBM的超级计算机“深蓝</text>
<path d="M-60.894 41l121.7879 0l0 12l-121.7879 0Z" transform="translate(237.5 235)" fill="none" class="zr1-cls-1"></path>
<text dominant-baseline="central" text-anchor="middle" style="font-size:12px;font-family:sans-serif;" xml:space="preserve" y="47" transform="translate(237.5 235)" fill="#888">”(Deep Blue)击败了</text>
<path d="M-60 59l120 0l0 12l-120 0Z" transform="translate(237.5 235)" fill="none" class="zr1-cls-1"></path>
<text dominant-baseline="central" text-anchor="middle" style="font-size:12px;font-family:sans-serif;" y="65" transform="translate(237.5 235)" fill="#888">国际象棋世界冠军卡斯</text>
<path d="M-60 77l120 0l0 12l-120 0Z" transform="translate(237.5 235)" fill="none" class="zr1-cls-1"></path>
<text dominant-baseline="central" text-anchor="middle" style="font-size:12px;font-family:sans-serif;" y="83" transform="translate(237.5 235)" fill="#888">帕罗夫，这是符号主义</text>
<path d="M-60 95l120 0l0 12l-120 0Z" transform="translate(237.5 235)" fill="none" class="zr1-cls-1"></path>
<text dominant-baseline="central" text-anchor="middle" style="font-size:12px;font-family:sans-serif;" y="101" transform="translate(237.5 235)" fill="#888">和暴力搜索在特定领域</text>
<path d="M-42 113l84 0l0 12l-84 0Z" transform="translate(237.5 235)" fill="none" class="zr1-cls-1"></path>
<text dominant-baseline="central" text-anchor="middle" style="font-size:12px;font-family:sans-serif;" y="119" transform="translate(237.5 235)" fill="#888">的历史性胜利。</text>
<polygon points="294.2 180 407.5 180 427.5 200 407.5 220 294.2 220 314.2 200" fill="#efe1a9" stroke="#efe1a9" stroke-width="2" stroke-linejoin="round" class="zr1-cls-1"></polygon>
<text dominant-baseline="central" text-anchor="middle" style="font-size:12px;font-family:sans-serif;font-weight:bold;" transform="translate(365.8333 200)" fill="#fff">2012</text>
<path d="M-42 -125l84 0l0 14l-84 0Z" transform="translate(365.8333 165)" fill="none" class="zr1-cls-1"></path>
<text dominant-baseline="central" text-anchor="middle" style="font-size:14px;font-family:sans-serif;font-weight:bold;" y="-118" transform="translate(365.8333 165)" fill="#333">深度学习元年</text>
<path d="M-63.0179 -105l126.0359 0l0 12l-126.0359 0Z" transform="translate(365.8333 165)" fill="none" class="zr1-cls-1"></path>
<text dominant-baseline="central" text-anchor="middle" style="font-size:12px;font-family:sans-serif;" xml:space="preserve" y="-99" transform="translate(365.8333 165)" fill="#888">AlexNet 在 ImageNet</text>
<path d="M-63.354 -87l126.708 0l0 12l-126.708 0Z" transform="translate(365.8333 165)" fill="none" class="zr1-cls-1"></path>
<text dominant-baseline="central" text-anchor="middle" style="font-size:12px;font-family:sans-serif;" xml:space="preserve" y="-81" transform="translate(365.8333 165)" fill="#888"> 图像识别比赛中以巨大</text>
<path d="M-60 -69l120 0l0 12l-120 0Z" transform="translate(365.8333 165)" fill="none" class="zr1-cls-1"></path>
<text dominant-baseline="central" text-anchor="middle" style="font-size:12px;font-family:sans-serif;" y="-63" transform="translate(365.8333 165)" fill="#888">优势夺冠，证明了神经</text>
<path d="M-64.062 -51l128.124 0l0 12l-128.124 0Z" transform="translate(365.8333 165)" fill="none" class="zr1-cls-1"></path>
<text dominant-baseline="central" text-anchor="middle" style="font-size:12px;font-family:sans-serif;" y="-45" transform="translate(365.8333 165)" fill="#888">网络配合GPU算力的强大</text>
<path d="M-60 -33l120 0l0 12l-120 0Z" transform="translate(365.8333 165)" fill="none" class="zr1-cls-1"></path>
<text dominant-baseline="central" text-anchor="middle" style="font-size:12px;font-family:sans-serif;" y="-27" transform="translate(365.8333 165)" fill="#888">，彻底引爆了全球的深</text>
<path d="M-36 -15l72 0l0 12l-72 0Z" transform="translate(365.8333 165)" fill="none" class="zr1-cls-1"></path>
<text dominant-baseline="central" text-anchor="middle" style="font-size:12px;font-family:sans-serif;" y="-9" transform="translate(365.8333 165)" fill="#888">度学习热潮。</text>
<polygon points="422.5 180 535.8 180 555.8 200 535.8 220 422.5 220 442.5 200" fill="#b8d2c7" stroke="#b8d2c7" stroke-width="2" stroke-linejoin="round" class="zr1-cls-1"></polygon>
<text dominant-baseline="central" text-anchor="middle" style="font-size:12px;font-family:sans-serif;font-weight:bold;" transform="translate(494.1667 200)" fill="#fff">2016</text>
<path d="M-44.611 3l89.222 0l0 14l-89.222 0Z" transform="translate(494.1667 235)" fill="none" class="zr1-cls-1"></path>
<text dominant-baseline="central" text-anchor="middle" style="font-size:14px;font-family:sans-serif;font-weight:bold;" xml:space="preserve" y="10" transform="translate(494.1667 235)" fill="#333">AlphaGo 崛起</text>
<path d="M-51.54 23l103.0799 0l0 12l-103.0799 0Z" transform="translate(494.1667 235)" fill="none" class="zr1-cls-1"></path>
<text dominant-baseline="central" text-anchor="middle" style="font-size:12px;font-family:sans-serif;" xml:space="preserve" y="29" transform="translate(494.1667 235)" fill="#888">DeepMind 研发的 </text>
<path d="M-62.832 41l125.6639 0l0 12l-125.6639 0Z" transform="translate(494.1667 235)" fill="none" class="zr1-cls-1"></path>
<text dominant-baseline="central" text-anchor="middle" style="font-size:12px;font-family:sans-serif;" xml:space="preserve" y="47" transform="translate(494.1667 235)" fill="#888">AlphaGo 击败了人类围</text>
<path d="M-60 59l120 0l0 12l-120 0Z" transform="translate(494.1667 235)" fill="none" class="zr1-cls-1"></path>
<text dominant-baseline="central" text-anchor="middle" style="font-size:12px;font-family:sans-serif;" y="65" transform="translate(494.1667 235)" fill="#888">棋世界冠军李世石，展</text>
<path d="M-60 77l120 0l0 12l-120 0Z" transform="translate(494.1667 235)" fill="none" class="zr1-cls-1"></path>
<text dominant-baseline="central" text-anchor="middle" style="font-size:12px;font-family:sans-serif;" y="83" transform="translate(494.1667 235)" fill="#888">现了深度强化学习在极</text>
<path d="M-60 95l120 0l0 12l-120 0Z" transform="translate(494.1667 235)" fill="none" class="zr1-cls-1"></path>
<text dominant-baseline="central" text-anchor="middle" style="font-size:12px;font-family:sans-serif;" y="101" transform="translate(494.1667 235)" fill="#888">高复杂度游戏中的惊人</text>
<path d="M-48 113l96 0l0 12l-96 0Z" transform="translate(494.1667 235)" fill="none" class="zr1-cls-1"></path>
<text dominant-baseline="central" text-anchor="middle" style="font-size:12px;font-family:sans-serif;" y="119" transform="translate(494.1667 235)" fill="#888">潜力，震惊世界。</text>
<polygon points="550.8 180 664.2 180 684.2 200 664.2 220 550.8 220 570.8 200" fill="#c6b38e" stroke="#c6b38e" stroke-width="2" stroke-linejoin="round" class="zr1-cls-1"></polygon>
<text dominant-baseline="central" text-anchor="middle" style="font-size:12px;font-family:sans-serif;font-weight:bold;" transform="translate(622.5 200)" fill="#fff">2022</text>
<path d="M-49 -125l98 0l0 14l-98 0Z" transform="translate(622.5 165)" fill="none" class="zr1-cls-1"></path>
<text dominant-baseline="central" text-anchor="middle" style="font-size:14px;font-family:sans-serif;font-weight:bold;" y="-118" transform="translate(622.5 165)" fill="#333">大模型时代开启</text>
<path d="M-50.832 -105l101.6639 0l0 12l-101.6639 0Z" transform="translate(622.5 165)" fill="none" class="zr1-cls-1"></path>
<text dominant-baseline="central" text-anchor="middle" style="font-size:12px;font-family:sans-serif;" xml:space="preserve" y="-99" transform="translate(622.5 165)" fill="#888">OpenAI 正式发布 </text>
<path d="M-59.478 -87l118.9559 0l0 12l-118.9559 0Z" transform="translate(622.5 165)" fill="none" class="zr1-cls-1"></path>
<text dominant-baseline="central" text-anchor="middle" style="font-size:12px;font-family:sans-serif;" y="-81" transform="translate(622.5 165)" fill="#888">ChatGPT。其极其强大</text>
<path d="M-60 -69l120 0l0 12l-120 0Z" transform="translate(622.5 165)" fill="none" class="zr1-cls-1"></path>
<text dominant-baseline="central" text-anchor="middle" style="font-size:12px;font-family:sans-serif;" y="-63" transform="translate(622.5 165)" fill="#888">的自然语言理解、推理</text>
<path d="M-63.354 -51l126.708 0l0 12l-126.708 0Z" transform="translate(622.5 165)" fill="none" class="zr1-cls-1"></path>
<text dominant-baseline="central" text-anchor="middle" style="font-size:12px;font-family:sans-serif;" xml:space="preserve" y="-45" transform="translate(622.5 165)" fill="#888">和生成能力，让生成式 </text>
<path d="M-60.894 -33l121.7879 0l0 12l-121.7879 0Z" transform="translate(622.5 165)" fill="none" class="zr1-cls-1"></path>
<text dominant-baseline="central" text-anchor="middle" style="font-size:12px;font-family:sans-serif;" xml:space="preserve" y="-27" transform="translate(622.5 165)" fill="#888">AI (GenAI) 走入大众</text>
<path d="M-60 -15l120 0l0 12l-120 0Z" transform="translate(622.5 165)" fill="none" class="zr1-cls-1"></path>
<text dominant-baseline="central" text-anchor="middle" style="font-size:12px;font-family:sans-serif;" y="-9" transform="translate(622.5 165)" fill="#888">视野，开启全新纪元。</text>
<polygon points="679.2 180 792.5 180 812.5 200 792.5 220 679.2 220 699.2 200" fill="#a4d8c2" stroke="#a4d8c2" stroke-width="2" stroke-linejoin="round" class="zr1-cls-1"></polygon>
<text dominant-baseline="central" text-anchor="middle" style="font-size:12px;font-family:sans-serif;font-weight:bold;" transform="translate(750.8333 200)" fill="#fff">2024</text>
<path d="M-54.019 3l108.038 0l0 14l-108.038 0Z" transform="translate(750.8333 235)" fill="none" class="zr1-cls-1"></path>
<text dominant-baseline="central" text-anchor="middle" style="font-size:14px;font-family:sans-serif;font-weight:bold;" xml:space="preserve" y="10" transform="translate(750.8333 235)" fill="#333">多模态与 AGI</text>
<path d="M-58.77 23l117.54 0l0 12l-117.54 0Z" transform="translate(750.8333 235)" fill="none" class="zr1-cls-1"></path>
<text dominant-baseline="central" text-anchor="middle" style="font-size:12px;font-family:sans-serif;" xml:space="preserve" y="29" transform="translate(750.8333 235)" fill="#888">Sora 等文本生成视频</text>
<path d="M-60 41l120 0l0 12l-120 0Z" transform="translate(750.8333 235)" fill="none" class="zr1-cls-1"></path>
<text dominant-baseline="central" text-anchor="middle" style="font-size:12px;font-family:sans-serif;" y="47" transform="translate(750.8333 235)" fill="#888">大模型惊艳问世，大语</text>
<path d="M-60 59l120 0l0 12l-120 0Z" transform="translate(750.8333 235)" fill="none" class="zr1-cls-1"></path>
<text dominant-baseline="central" text-anchor="middle" style="font-size:12px;font-family:sans-serif;" y="65" transform="translate(750.8333 235)" fill="#888">言模型向多模态全面进</text>
<path d="M-60 77l120 0l0 12l-120 0Z" transform="translate(750.8333 235)" fill="none" class="zr1-cls-1"></path>
<text dominant-baseline="central" text-anchor="middle" style="font-size:12px;font-family:sans-serif;" y="83" transform="translate(750.8333 235)" fill="#888">化。人类正以前所未有</text>
<path d="M-63.354 95l126.708 0l0 12l-126.708 0Z" transform="translate(750.8333 235)" fill="none" class="zr1-cls-1"></path>
<text dominant-baseline="central" text-anchor="middle" style="font-size:12px;font-family:sans-serif;" xml:space="preserve" y="101" transform="translate(750.8333 235)" fill="#888">的速度向通用人工智能 </text>
<path d="M-38.124 113l76.248 0l0 12l-76.248 0Z" transform="translate(750.8333 235)" fill="none" class="zr1-cls-1"></path>
<text dominant-baseline="central" text-anchor="middle" style="font-size:12px;font-family:sans-serif;" xml:space="preserve" y="119" transform="translate(750.8333 235)" fill="#888">(AGI) 迈进。</text>
<path d="M-41.883 -5l83.766 0l0 24l-83.766 0Z" transform="translate(425 10)" fill="rgb(0,0,0)" fill-opacity="0" stroke="#3c3c41" stroke-width="0" class="zr1-cls-1"></path>
<text dominant-baseline="central" text-anchor="middle" style="font-size:14px;font-family:sans-serif;font-weight:bold;" xml:space="preserve" y="7" transform="translate(425 10)" fill="#333333">AI 发展简史</text>
<style ><![CDATA[
.zr1-cls-1:hover {
pointer-events:none;
}

]]>

</style>
</svg>