<svg width="640" height="480" xmlns="http://www.w3.org/2000/svg" xmlns:xlink="http://www.w3.org/1999/xlink" version="1.1" baseProfile="full" viewBox="0 0 640 480">
<rect width="640" height="480" x="0" y="0" fill="rgb(255,255,255)"></rect>
<text dominant-baseline="central" text-anchor="middle" style="font-size:12px;font-family:sans-serif;" y="-6" transform="matrix(0,-1,1,0,20,221)" fill="#333">年龄段</text>
<path d="M348.5 405L348.5 37" fill="none" stroke="#333" stroke-linecap="round" class="zr1-cls-0"></path>
<text dominant-baseline="central" text-anchor="middle" style="font-size:12px;font-family:sans-serif;" y="6" transform="translate(348.183 435)" fill="#333">人数</text>
<path d="M72.572 405.5L623.794 405.5" fill="none" stroke="#333" stroke-linecap="round" class="zr1-cls-0"></path>
<path d="M348.183 405.5L343.183 405.5" fill="none" stroke="#333" class="zr1-cls-0"></path>
<path d="M348.183 359.5L343.183 359.5" fill="none" stroke="#333" class="zr1-cls-0"></path>
<path d="M348.183 313.5L343.183 313.5" fill="none" stroke="#333" class="zr1-cls-0"></path>
<path d="M348.183 267.5L343.183 267.5" fill="none" stroke="#333" class="zr1-cls-0"></path>
<path d="M348.183 221.5L343.183 221.5" fill="none" stroke="#333" class="zr1-cls-0"></path>
<path d="M348.183 175.5L343.183 175.5" fill="none" stroke="#333" class="zr1-cls-0"></path>
<path d="M348.183 129.5L343.183 129.5" fill="none" stroke="#333" class="zr1-cls-0"></path>
<path d="M348.183 83.5L343.183 83.5" fill="none" stroke="#333" class="zr1-cls-0"></path>
<path d="M348.183 37.5L343.183 37.5" fill="none" stroke="#333" class="zr1-cls-0"></path>
<path d="M72.5 405L72.5 410" fill="none" stroke="#333" class="zr1-cls-0"></path>
<path d="M164.5 405L164.5 410" fill="none" stroke="#333" class="zr1-cls-0"></path>
<path d="M256.5 405L256.5 410" fill="none" stroke="#333" class="zr1-cls-0"></path>
<path d="M348.5 405L348.5 410" fill="none" stroke="#333" class="zr1-cls-0"></path>
<path d="M440.5 405L440.5 410" fill="none" stroke="#333" class="zr1-cls-0"></path>
<path d="M532.5 405L532.5 410" fill="none" stroke="#333" class="zr1-cls-0"></path>
<path d="M624.5 405L624.5 410" fill="none" stroke="#333" class="zr1-cls-0"></path>
<text dominant-baseline="central" text-anchor="end" style="font-size:12px;font-family:sans-serif;" transform="translate(64.572 382)" fill="#333">0-10</text>
<text dominant-baseline="central" text-anchor="end" style="font-size:12px;font-family:sans-serif;" transform="translate(64.572 336)" fill="#333">11-20</text>
<text dominant-baseline="central" text-anchor="end" style="font-size:12px;font-family:sans-serif;" transform="translate(64.572 290)" fill="#333">21-30</text>
<text dominant-baseline="central" text-anchor="end" style="font-size:12px;font-family:sans-serif;" transform="translate(64.572 244)" fill="#333">31-40</text>
<text dominant-baseline="central" text-anchor="end" style="font-size:12px;font-family:sans-serif;" transform="translate(64.572 198)" fill="#333">41-50</text>
<text dominant-baseline="central" text-anchor="end" style="font-size:12px;font-family:sans-serif;" transform="translate(64.572 152)" fill="#333">51-60</text>
<text dominant-baseline="central" text-anchor="end" style="font-size:12px;font-family:sans-serif;" transform="translate(64.572 106)" fill="#333">61-70</text>
<text dominant-baseline="central" text-anchor="end" style="font-size:12px;font-family:sans-serif;" transform="translate(64.572 60)" fill="#333">71+</text>
<text dominant-baseline="central" text-anchor="middle" style="font-size:12px;font-family:sans-serif;" y="6" transform="translate(72.572 413)" fill="#333">1500</text>
<text dominant-baseline="central" text-anchor="middle" style="font-size:12px;font-family:sans-serif;" y="6" transform="translate(164.4423 413)" fill="#333">1000</text>
<text dominant-baseline="central" text-anchor="middle" style="font-size:12px;font-family:sans-serif;" y="6" transform="translate(256.3127 413)" fill="#333">500</text>
<text dominant-baseline="central" text-anchor="middle" style="font-size:12px;font-family:sans-serif;" y="6" transform="translate(348.183 413)" fill="#333">0</text>
<text dominant-baseline="central" text-anchor="middle" style="font-size:12px;font-family:sans-serif;" y="6" transform="translate(440.0533 413)" fill="#333">500</text>
<text dominant-baseline="central" text-anchor="middle" style="font-size:12px;font-family:sans-serif;" y="6" transform="translate(531.9237 413)" fill="#333">1000</text>
<text dominant-baseline="central" text-anchor="middle" style="font-size:12px;font-family:sans-serif;" y="6" transform="translate(623.794 413)" fill="#333">1500</text>
<path d="M348.183 366.13l-91.8703 0l0 31.74l91.8703 0Z" fill="#e01f54" class="zr1-cls-1"></path>
<path d="M348.183 320.13l-113.9192 0l0 31.74l113.9192 0Z" fill="#e01f54" class="zr1-cls-1"></path>
<path d="M348.183 274.13l-156.1796 0l0 31.74l156.1796 0Z" fill="#e01f54" class="zr1-cls-1"></path>
<path d="M348.183 228.13l-220.4888 0l0 31.74l220.4888 0Z" fill="#e01f54" class="zr1-cls-1"></path>
<path d="M348.183 182.13l-202.1147 0l0 31.74l202.1147 0Z" fill="#e01f54" class="zr1-cls-1"></path>
<path d="M348.183 136.13l-165.3666 0l0 31.74l165.3666 0Z" fill="#e01f54" class="zr1-cls-1"></path>
<path d="M348.183 90.13l-128.6185 0l0 31.74l128.6185 0Z" fill="#e01f54" class="zr1-cls-1"></path>
<path d="M348.183 44.13l-73.4963 0l0 31.74l73.4963 0Z" fill="#e01f54" class="zr1-cls-1"></path>
<path d="M348.183 366.13l88.1955 0l0 31.74l-88.1955 0Z" fill="#001852" class="zr1-cls-2"></path>
<path d="M348.183 320.13l112.0818 0l0 31.74l-112.0818 0Z" fill="#001852" class="zr1-cls-2"></path>
<path d="M348.183 274.13l161.6918 0l0 31.74l-161.6918 0Z" fill="#001852" class="zr1-cls-2"></path>
<path d="M348.183 228.13l211.3018 0l0 31.74l-211.3018 0Z" fill="#001852" class="zr1-cls-2"></path>
<path d="M348.183 182.13l205.7896 0l0 31.74l-205.7896 0Z" fill="#001852" class="zr1-cls-2"></path>
<path d="M348.183 136.13l174.5536 0l0 31.74l-174.5536 0Z" fill="#001852" class="zr1-cls-2"></path>
<path d="M348.183 90.13l137.8055 0l0 31.74l-137.8055 0Z" fill="rgb(0,24,82)" class="zr1-cls-2"></path>
<path d="M348.183 44.13l91.8703 0l0 31.74l-91.8703 0Z" fill="#001852" class="zr1-cls-2"></path>
<text dominant-baseline="central" text-anchor="middle" style="font-size:12px;font-family:sans-serif;" transform="translate(302.2478 382)" fill="#eee" stroke="#e01f54" stroke-width="2" paint-order="stroke" stroke-miterlimit="2">500</text>
<text dominant-baseline="central" text-anchor="middle" style="font-size:12px;font-family:sans-serif;" transform="translate(291.2234 336)" fill="#eee" stroke="#e01f54" stroke-width="2" paint-order="stroke" stroke-miterlimit="2">620</text>
<text dominant-baseline="central" text-anchor="middle" style="font-size:12px;font-family:sans-serif;" transform="translate(270.0932 290)" fill="#eee" stroke="#e01f54" stroke-width="2" paint-order="stroke" stroke-miterlimit="2">850</text>
<text dominant-baseline="central" text-anchor="middle" style="font-size:12px;font-family:sans-serif;" transform="translate(237.9386 244)" fill="#eee" stroke="#e01f54" stroke-width="2" paint-order="stroke" stroke-miterlimit="2">1200</text>
<text dominant-baseline="central" text-anchor="middle" style="font-size:12px;font-family:sans-serif;" transform="translate(247.1256 198)" fill="#eee" stroke="#e01f54" stroke-width="2" paint-order="stroke" stroke-miterlimit="2">1100</text>
<text dominant-baseline="central" text-anchor="middle" style="font-size:12px;font-family:sans-serif;" transform="translate(265.4997 152)" fill="#eee" stroke="#e01f54" stroke-width="2" paint-order="stroke" stroke-miterlimit="2">900</text>
<text dominant-baseline="central" text-anchor="middle" style="font-size:12px;font-family:sans-serif;" transform="translate(283.8738 106)" fill="#eee" stroke="#e01f54" stroke-width="2" paint-order="stroke" stroke-miterlimit="2">700</text>
<text dominant-baseline="central" text-anchor="middle" style="font-size:12px;font-family:sans-serif;" transform="translate(311.4349 60)" fill="#eee" stroke="#e01f54" stroke-width="2" paint-order="stroke" stroke-miterlimit="2">400</text>
<text dominant-baseline="central" text-anchor="middle" style="font-size:12px;font-family:sans-serif;" transform="translate(392.2808 382)" fill="#ccc" stroke="#001852" stroke-width="2" paint-order="stroke" stroke-miterlimit="2">480</text>
<text dominant-baseline="central" text-anchor="middle" style="font-size:12px;font-family:sans-serif;" transform="translate(404.2239 336)" fill="#ccc" stroke="#001852" stroke-width="2" paint-order="stroke" stroke-miterlimit="2">610</text>
<text dominant-baseline="central" text-anchor="middle" style="font-size:12px;font-family:sans-serif;" transform="translate(429.0289 290)" fill="#ccc" stroke="#001852" stroke-width="2" paint-order="stroke" stroke-miterlimit="2">880</text>
<text dominant-baseline="central" text-anchor="middle" style="font-size:12px;font-family:sans-serif;" transform="translate(453.8339 244)" fill="#ccc" stroke="#001852" stroke-width="2" paint-order="stroke" stroke-miterlimit="2">1150</text>
<text dominant-baseline="central" text-anchor="middle" style="font-size:12px;font-family:sans-serif;" transform="translate(451.0778 198)" fill="#ccc" stroke="#001852" stroke-width="2" paint-order="stroke" stroke-miterlimit="2">1120</text>
<text dominant-baseline="central" text-anchor="middle" style="font-size:12px;font-family:sans-serif;" transform="translate(435.4598 152)" fill="#ccc" stroke="#001852" stroke-width="2" paint-order="stroke" stroke-miterlimit="2">950</text>
<text dominant-baseline="central" text-anchor="middle" style="font-size:12px;font-family:sans-serif;" transform="translate(417.0857 106)" fill="#ccc" stroke="rgb(0,24,82)" stroke-width="2" paint-order="stroke" stroke-miterlimit="2">750</text>
<text dominant-baseline="central" text-anchor="middle" style="font-size:12px;font-family:sans-serif;" transform="translate(394.1182 60)" fill="#ccc" stroke="#001852" stroke-width="2" paint-order="stroke" stroke-miterlimit="2">500</text>
<path d="M-5 -5l126 0l0 24l-126 0Z" transform="translate(262 456)" fill="rgb(0,0,0)" fill-opacity="0" stroke="#b7b9be" stroke-width="0" class="zr1-cls-0"></path>
<path d="M3.5 0L21.5 0A3.5 3.5 0 0 1 25 3.5L25 10.5A3.5 3.5 0 0 1 21.5 14L3.5 14A3.5 3.5 0 0 1 0 10.5L0 3.5A3.5 3.5 0 0 1 3.5 0" transform="translate(262 456)" fill="#e01f54" class="zr1-cls-0"></path>
<text dominant-baseline="central" text-anchor="start" style="font-size:12px;font-family:sans-serif;" x="30" y="7" transform="translate(262 456)" fill="#333333">男性</text>
<path d="M0 0l54 0l0 14l-54 0Z" transform="translate(262 456)" fill="none" class="zr1-cls-3"></path>
<path d="M3.5 0L21.5 0A3.5 3.5 0 0 1 25 3.5L25 10.5A3.5 3.5 0 0 1 21.5 14L3.5 14A3.5 3.5 0 0 1 0 10.5L0 3.5A3.5 3.5 0 0 1 3.5 0" transform="translate(324 456)" fill="#001852" class="zr1-cls-0"></path>
<text dominant-baseline="central" text-anchor="start" style="font-size:12px;font-family:sans-serif;" x="30" y="7" transform="translate(324 456)" fill="#333333">女性</text>
<path d="M0 0l54 0l0 14l-54 0Z" transform="translate(324 456)" fill="none" class="zr1-cls-3"></path>
<path d="M-68 -5l136 0l0 24l-136 0Z" transform="translate(320 10)" fill="rgb(0,0,0)" fill-opacity="0" stroke="#3c3c41" stroke-width="0" class="zr1-cls-0"></path>
<text dominant-baseline="central" text-anchor="middle" style="font-size:14px;font-family:sans-serif;font-weight:bold;" y="7" transform="translate(320 10)" fill="#333333">人口年龄构成金字塔</text>
<style ><![CDATA[
.zr1-cls-0:hover {
pointer-events:none;
}
.zr1-cls-1:hover {
cursor:pointer;
fill:rgba(246,34,92,1);
}
.zr1-cls-2:hover {
cursor:pointer;
fill:rgba(0,26,90,1);
}
.zr1-cls-3:hover {
cursor:pointer;
fill:rgba(0,0,0,0);
}

]]>

</style>
</svg>